<?xml version="1.0" encoding="UTF-8"?>
<svg width="34px" height="20px" viewBox="0 0 34 20" version="1.1" xmlns="http://www.w3.org/2000/svg" xmlns:xlink="http://www.w3.org/1999/xlink">
    <!-- Generator: Sketch 41.2 (35397) - http://www.bohemiancoding.com/sketch -->
    <title>email</title>
    <desc>Created with Sketch.</desc>
    <defs>
        <linearGradient x1="49.9999157%" y1="0%" x2="49.9999157%" y2="99.9999548%" id="linearGradient-1">
            <stop stop-color="#F0F0F0" offset="0%"></stop>
            <stop stop-color="#CECECE" offset="100%"></stop>
        </linearGradient>
    </defs>
    <g id="Page-1" stroke="none" stroke-width="1" fill="none" fill-rule="evenodd">
        <g id="email">
            <path d="M33.5483871,19.4444444 C33.5483871,19.75 33.2967742,20 32.9892473,20 L0.559139785,20 C0.251612903,20 0,19.75 0,19.4444444 L0,0.555555556 C0,0.25 0.251612903,0 0.559139785,0 L32.9892473,0 C33.2967742,0 33.5483871,0.25 33.5483871,0.555555556 L33.5483871,19.4444444 Z" id="Shape" fill="#000000"></path>
            <g id="Group">
                <path d="M0.208,19.8757222 L13.5960989,11.8743889 L0.175346237,0.153166667 C0.067711828,0.254611111 0,0.397444444 0,0.555555556 L0,19.4444444 C0,19.6180556 0.0814107527,19.7736667 0.208,19.8757222 Z" id="Shape" fill="#E7E7E7"></path>
                <path d="M33.3729849,0.153166667 L19.9522882,11.8743333 L33.3403871,19.8757222 C33.4669763,19.7736667 33.5483871,19.6180556 33.5483871,19.4444444 L33.5483871,0.555555556 C33.5483871,0.397444444 33.4806753,0.254611111 33.3729849,0.153166667 Z" id="Shape" fill="#E6E6E6"></path>
                <path d="M19.9522882,11.8743333 L16.7741935,14.65 L13.5960989,11.8743889 L0.208,19.8757222 C0.304172043,19.9532222 0.426344086,20 0.559139785,20 L32.9892473,20 C33.1219871,20 33.244271,19.9532222 33.3403871,19.8757222 L19.9522882,11.8743333 Z" id="Shape" fill="#CECECE"></path>
                <path d="M18.521114,11.0190556 L19.9522882,11.8743889 L33.3729849,0.153166667 C33.3681204,0.148555556 33.3630323,0.144055556 33.358,0.139611111 L18.521114,11.0190556 Z" id="Shape" fill="#D6D3D3"></path>
                <path d="M0.190387097,0.139611111 C0.185298925,0.144055556 0.180266667,0.148555556 0.175346237,0.153166667 L13.5960989,11.8743333 L15.0272731,11.019 L0.190387097,0.139611111 Z" id="Shape" fill="#D6D4D4"></path>
                <polygon id="Shape" fill="#B7B7B7" points="16.7741935 12.3 15.0272731 11.0190556 13.5960989 11.8743333 16.7741935 14.65 19.9522882 11.8743333 18.521114 11.0190556"></polygon>
                <path d="M32.9892473,0 L0.559139785,0 C0.418012903,0 0.289019355,0.0530555556 0.190387097,0.139611111 L16.7741935,12.3 L33.3580559,0.139611111 C33.2593677,0.0530555556 33.1303742,0 32.9892473,0 Z" id="Shape" fill="url(#linearGradient-1)"></path>
            </g>
        </g>
    </g>
</svg>