<?xml version="1.0" encoding="UTF-8"?>
<svg width="550px" height="143px" viewBox="0 0 550 143" version="1.1" xmlns="http://www.w3.org/2000/svg" xmlns:xlink="http://www.w3.org/1999/xlink">
    <!-- Generator: Sketch 41.2 (35397) - http://www.bohemiancoding.com/sketch -->
    <title>Logo__light-bg</title>
    <desc>Created with Sketch.</desc>
    <defs>
        <path d="M137.066117,97.9793081 C124.299402,129.539472 90.9593234,147.627921 57.5416243,141.12482 C24.1239252,134.621719 1.34512996e-05,105.350748 1.34512996e-05,71.3061752 C1.34512995e-05,37.2616025 24.1239252,7.99063131 57.5416243,1.48753021 C90.9593234,-5.01557088 124.299402,13.0728787 137.066117,44.6330424 L71.1283543,71.3061752 L137.066117,97.9793081 Z" id="path-1"></path>
    </defs>
    <g id="On-Site" stroke="none" stroke-width="1" fill="none" fill-rule="evenodd">
        <g id="Logo__light-bg">
            <g id="colo">
                <g id="Group">
                    <path d="M137.066117,97.9793081 C124.299402,129.539472 90.9593234,147.627921 57.5416243,141.12482 C24.1239252,134.621719 1.34512995e-05,105.350748 1.34512995e-05,71.3061752 C1.34512995e-05,37.2616025 24.1239252,7.99063131 57.5416243,1.48753021 C90.9593234,-5.01557088 124.299402,13.0728787 137.066117,44.6330424 L71.1283543,71.3061752 L137.066117,97.9793081 Z" id="Shape" fill="#BF2C34"></path>
                    <ellipse id="Oval" fill="#F6D047" cx="71.1283543" cy="71.3061752" rx="35.5641772" ry="35.5641772"></ellipse>
                    <g id="Path-2">
                        <mask id="mask-2" fill="white">
                            <use xlink:href="#path-1"></use>
                        </mask>
                        <g id="Mask"></g>
                        <g id="mountains" mask="url(#mask-2)">
                            <g transform="translate(8.001940, 76.818623)">
                                <polygon id="Rectangle-2" fill="#FFFFFF" points="53.7610489 6.57937278 73.0078576 29.0076969 85.8905839 30.2511133 102.837311 53.9228538 16.3341681 42.731887 9.24668607 33.5261831 20.4761445 21.3548297 28.8667202 30.2511133"></polygon>
                                <path d="M119.270198,66.7090982 C111.084604,56.0457663 85.981254,23.0731295 85.981254,23.0731295 C85.3803617,22.2818904 84.432302,21.7701067 83.3916942,21.6721319 C82.3450506,21.5789112 81.312714,21.8978459 80.5484093,22.5582453 L73.9703372,28.2517357 L58.5344682,1.76238147 C57.9085387,0.693340541 56.7101072,0.0192990743 55.3945375,0.00296994954 C54.1028872,-0.0507714737 52.8584052,0.629264229 52.2040853,1.68238943 L28.3943835,28.2517357 L28.3943835,28.2517357 C24.8374211,20.2483259 15.2310616,22.7041731 6.93407996,33.7422113 L0.0916888943,42.8451089 C-0.551900778,43.881905 10.6879687,69.7421815 11.3315584,70.7771173 C11.9823015,71.8106062 13.1780505,72.4482688 14.4688066,72.4482688 L116.660295,72.4482688 C118.733016,72.4482688 120.352162,70.9490898 120.352162,69.0997648 C120.352162,68.1628037 119.812297,67.4153845 119.270198,66.7090982 Z M75.4911224,36.1118323 L82.4588357,30.0768771 L96.3126678,48.2365174 C96.3126678,48.2365174 85.0499653,37.1232357 82.4588357,37.1232357 C79.867706,37.1232357 74.7198878,44.6443167 74.7198878,44.6443167 C74.7198878,44.6443167 73.2830632,43.7559423 72.3131257,42.0329225 C71.3431882,40.3099027 72.9833805,38.4639542 72.9833805,38.4639542 C72.9833805,38.4639542 74.8119889,36.6959602 75.4911224,36.1118323 Z M55.2420789,10.2355436 L64.2293091,25.6533379 C64.2293091,25.6533379 58.6781139,31.4370371 56.6644511,31.4370371 C54.6507884,31.4370371 56.2320348,24.8848521 51.3481251,25.6533379 C46.4642154,26.4218236 34.9452771,32.1571012 34.9452771,32.1571012 L55.2420789,10.2355436 Z M20.5570669,23.9964423 L24.7143247,33.6536446 C24.7143247,33.6536446 21.7279236,31.088613 19.2046557,30.9484749 C16.6813877,30.8083367 11.5579378,37.0882418 11.9911014,34.8615763 C12.424265,32.6349108 20.5570669,23.9964423 20.5570669,23.9964423 Z" id="Combined-Shape" fill="#0F2679"></path>
                            </g>
                        </g>
                    </g>
                </g>
            </g>
            <g id="text" transform="translate(162.883931, 43.743938)" fill="#FFFFFF">
                <path d="M10.5680419,32.0720433 L9.54907851,29.4966741 L4.47278797,29.4966741 L3.50940436,32.0720433 L0.0634553076,32.0720433 L5.56585783,18.9543352 L8.64127473,18.9543352 L14.0880974,32.0720433 L10.5680419,32.0720433 Z M7.04798646,22.4560962 L5.38059175,26.9583605 L8.67832794,26.9583605 L7.04798646,22.4560962 Z M26.7992802,32.0720433 L26.7992802,27.0324718 C26.7992802,26.7730808 26.7807538,26.5229575 26.7437004,26.2820945 C26.706647,26.0412314 26.6387168,25.8343393 26.5399077,25.6614119 C26.4410987,25.4884846 26.308326,25.3495272 26.1415857,25.2445356 C25.9748454,25.139544 25.755616,25.087049 25.4838911,25.087049 C25.2245173,25.087049 24.9991125,25.142632 24.8076699,25.2537995 C24.6162273,25.3649671 24.455665,25.5131883 24.3259781,25.6984676 C24.1962912,25.8837469 24.1005714,26.0968149 24.0388157,26.337678 C23.97706,26.578541 23.9461826,26.8286643 23.9461826,27.0880553 L23.9461826,32.0720433 L20.907819,32.0720433 L20.907819,26.8101378 C20.907819,26.2790038 20.8028359,25.8590437 20.5928666,25.5502449 C20.3828974,25.2414461 20.0494218,25.087049 19.5924298,25.087049 C19.1107356,25.087049 18.7371194,25.2785014 18.47157,25.6614119 C18.2060207,26.0443225 18.073248,26.5136896 18.073248,27.0695275 L18.073248,32.0720433 L15.0163577,32.0720433 L15.0163577,22.8451808 L17.9620883,22.8451808 L17.9620883,24.1236015 L17.9991415,24.1236015 C18.1103017,23.9259703 18.2492499,23.7345179 18.4159902,23.5492386 C18.5827305,23.3639593 18.7834334,23.2002984 19.018105,23.0582509 C19.2527765,22.9162035 19.5152342,22.8019496 19.8054858,22.7154859 C20.0957374,22.6290223 20.4137744,22.5857911 20.7596061,22.5857911 C21.4265673,22.5857911 21.9916232,22.7216605 22.4547907,22.9934035 C22.9179582,23.2651465 23.2792235,23.6542271 23.5385973,24.1606572 C23.8473756,23.678931 24.242606,23.2960262 24.7243002,23.0119313 C25.2059944,22.7278364 25.7926644,22.5857911 26.4843279,22.5857911 C27.1142357,22.5857911 27.6422388,22.7000449 28.0683529,22.9285561 C28.494467,23.1570672 28.8372058,23.4535096 29.0965796,23.8178922 C29.3559534,24.1822748 29.5443054,24.5898831 29.6616412,25.0407294 C29.7789769,25.4915757 29.8376439,25.9331514 29.8376439,26.3654697 L29.8376439,32.0720433 L26.7992802,32.0720433 Z M38.4914996,26.4025254 C38.4914996,25.9207992 38.3402005,25.507015 38.0375977,25.1611604 C37.734995,24.8153057 37.2810976,24.6423809 36.6758921,24.6423809 C36.3794649,24.6423809 36.107744,24.6887001 35.8607213,24.7813397 C35.6136987,24.8739794 35.3975571,25.000585 35.2122901,25.1611604 C35.027023,25.3217357 34.8788117,25.5101002 34.7676515,25.7262594 C34.6564913,25.9424185 34.5947365,26.1678383 34.5823854,26.4025254 L38.4914996,26.4025254 Z M41.2890174,27.5697791 L41.2890174,27.9403358 C41.2890174,28.0638553 41.2828419,28.1811971 41.2704908,28.2923647 L34.5823854,28.2923647 C34.6070877,28.5517557 34.6842811,28.7864393 34.813968,28.9964225 C34.9436549,29.2064057 35.1103927,29.3885943 35.3141864,29.5429937 C35.5179801,29.6973931 35.7464726,29.8178228 35.9996709,29.9042865 C36.2528691,29.9907501 36.5153268,30.0339813 36.7870517,30.0339813 C37.2687459,30.0339813 37.6763272,29.944431 38.0098078,29.7653277 C38.3432884,29.5862244 38.6150093,29.3546287 38.8249786,29.0705338 L40.9370119,30.4045381 C40.5047222,31.0344876 39.9334908,31.5192945 39.2233006,31.8589732 C38.5131105,32.1986519 37.6886847,32.3684887 36.7499985,32.3684887 C36.058335,32.3684887 35.4037348,32.2604107 34.7861781,32.0442516 C34.1686214,31.8280924 33.6282674,31.5131223 33.1650999,31.0993319 C32.7019324,30.6855415 32.3375794,30.1760311 32.07203,29.5707854 C31.8064807,28.9655397 31.673708,28.2738408 31.673708,27.4956677 C31.673708,26.7421986 31.8033929,26.0597635 32.0627667,25.4483418 C32.3221405,24.8369202 32.6741426,24.3181459 33.1187834,23.8920036 C33.5634242,23.4658612 34.0883395,23.1354514 34.693545,22.9007643 C35.2987506,22.6660772 35.9533508,22.5487354 36.6573655,22.5487354 C37.3366778,22.5487354 37.9604007,22.6629893 38.5285529,22.8915004 C39.096705,23.1200115 39.5845675,23.4504213 39.9921549,23.8827396 C40.3997423,24.315058 40.7177792,24.8400081 40.9462752,25.4576057 C41.1747711,26.0752034 41.2890174,26.7792541 41.2890174,27.5697791 Z M49.1647556,25.3279109 C49.0288931,25.290855 48.8961204,25.2661515 48.7664335,25.2537995 C48.6367466,25.2414476 48.5101494,25.2352717 48.3866381,25.2352717 C47.9790507,25.2352717 47.6363118,25.3093823 47.3584113,25.4576057 C47.0805108,25.6058292 46.8581938,25.7849298 46.6914535,25.994913 C46.5247132,26.2048962 46.4042914,26.4334039 46.3301846,26.6804429 C46.2560778,26.927482 46.219025,27.1436379 46.219025,27.3289172 L46.219025,32.0720433 L43.1806613,32.0720433 L43.1806613,22.8451808 L46.1078653,22.8451808 L46.1078653,24.179185 L46.1449185,24.179185 C46.3795901,23.7098108 46.7130657,23.326906 47.1453553,23.0304592 C47.577645,22.7340123 48.0778584,22.5857911 48.6460106,22.5857911 C48.7695219,22.5857911 48.8899437,22.591967 49.0072794,22.6043189 C49.1246152,22.6166709 49.2203351,22.6351985 49.2944419,22.6599024 L49.1647556,25.3279109 Z M53.816864,19.8992548 C53.816864,20.1339419 53.770548,20.3531858 53.6779145,20.556993 C53.585281,20.7608002 53.4617715,20.9368129 53.3073823,21.0850363 C53.1529931,21.2332598 52.9677289,21.3506016 52.7515841,21.4370652 C52.5354392,21.5235289 52.3100344,21.5667601 52.0753629,21.5667601 C51.5813175,21.5667601 51.1675608,21.4030992 50.8340802,21.0757724 C50.5005995,20.7484457 50.3338617,20.3562771 50.3338617,19.8992548 C50.3338617,19.6769197 50.3770901,19.4638517 50.463548,19.2600445 C50.5500059,19.0562372 50.6735154,18.8802246 50.8340802,18.7320011 C50.9946449,18.5837777 51.1799091,18.463348 51.3898784,18.3707083 C51.5998477,18.2780687 51.8283402,18.2317495 52.0753629,18.2317495 C52.3100344,18.2317495 52.5354392,18.2749807 52.7515841,18.3614444 C52.9677289,18.4479081 53.1529931,18.5652499 53.3073823,18.7134733 C53.4617715,18.8616967 53.585281,19.0377094 53.6779145,19.2415166 C53.770548,19.4453238 53.816864,19.6645677 53.816864,19.8992548 Z M50.556181,32.0720433 L50.556181,22.8451808 L53.5945447,22.8451808 L53.5945447,32.0720433 L50.556181,32.0720433 Z M62.3595601,25.8281625 C62.1866442,25.6058273 61.9519762,25.4267267 61.655549,25.2908552 C61.3591218,25.1549837 61.0565235,25.087049 60.7477452,25.087049 C60.4266157,25.087049 60.1363684,25.1518958 59.8769946,25.2815913 C59.6176208,25.4112868 59.3953038,25.5842115 59.2100367,25.8003707 C59.0247697,26.0165299 58.8796461,26.2666532 58.7746615,26.5507481 C58.6696768,26.834843 58.6171853,27.1374613 58.6171853,27.4586121 C58.6171853,27.7797628 58.6665891,28.0823811 58.7653982,28.366476 C58.8642072,28.650571 59.0093309,28.9006943 59.2007734,29.1168534 C59.392216,29.3330126 59.6207086,29.5028494 59.8862579,29.6263689 C60.1518073,29.7498885 60.4513178,29.8116473 60.7847984,29.8116473 C61.0935768,29.8116473 61.3992627,29.7529764 61.7018655,29.6356328 C62.0044683,29.5182893 62.2483995,29.3484525 62.4336665,29.1261173 L64.1195878,31.1827072 C63.7367027,31.5532658 63.2426647,31.8435323 62.6374592,32.0535155 C62.0322536,32.2634987 61.3900043,32.3684887 60.710692,32.3684887 C59.9819751,32.3684887 59.3026729,32.2573228 58.6727651,32.0349877 C58.0428573,31.8126525 57.4963278,31.4884186 57.0331603,31.0622762 C56.5699928,30.6361339 56.2056398,30.1204476 55.9400905,29.5152019 C55.6745411,28.9099562 55.5417684,28.2244331 55.5417684,27.4586121 C55.5417684,26.705143 55.6745411,26.0257957 55.9400905,25.4205501 C56.2056398,24.8153044 56.5699928,24.2996181 57.0331603,23.8734757 C57.4963278,23.4473334 58.0428573,23.1200115 58.6727651,22.8915004 C59.3026729,22.6629893 59.9757996,22.5487354 60.6921654,22.5487354 C61.025646,22.5487354 61.3560339,22.5796148 61.6833389,22.6413746 C62.0106439,22.7031344 62.3255931,22.7865088 62.6281959,22.8915004 C62.9307987,22.996492 63.208695,23.1261855 63.4618932,23.280585 C63.7150915,23.4349844 63.9343208,23.6048212 64.1195878,23.7901005 L62.3595601,25.8281625 Z M70.7725699,28.0515028 L70.3835111,28.0515028 C70.0500305,28.0515028 69.7134672,28.0669425 69.373811,28.0978224 C69.0341548,28.1287023 68.7315566,28.1873732 68.4660072,28.2738369 C68.2004578,28.3603005 67.9812285,28.4869062 67.8083126,28.6536575 C67.6353968,28.8204089 67.5489401,29.0396527 67.5489401,29.3113957 C67.5489401,29.484323 67.5890807,29.6325443 67.6693631,29.7560638 C67.7496454,29.8795833 67.8515408,29.9783974 67.9750521,30.0525092 C68.0985634,30.1266209 68.2405993,30.1791159 68.4011641,30.2099958 C68.5617288,30.2408757 68.7161157,30.2563154 68.8643293,30.2563154 C69.481886,30.2563154 69.9543097,30.0864786 70.2816148,29.7467999 C70.6089198,29.4071212 70.7725699,28.9470178 70.7725699,28.366476 L70.7725699,28.0515028 Z M65.1960609,24.1050737 C65.7395108,23.5862917 66.3724969,23.197211 67.0950382,22.93782 C67.8175795,22.678429 68.5555487,22.5487354 69.3089679,22.5487354 C70.0870893,22.5487354 70.7447773,22.6444616 71.2820516,22.8359169 C71.8193259,23.0273721 72.2546968,23.3238146 72.5881774,23.725253 C72.9216581,24.1266915 73.1655893,24.633114 73.3199785,25.2445356 C73.4743676,25.8559573 73.5515611,26.5816236 73.5515611,27.4215564 L73.5515611,32.0720433 L70.7725699,32.0720433 L70.7725699,31.090068 L70.7169901,31.090068 C70.4823185,31.4729785 70.1272288,31.769421 69.6517101,31.9794041 C69.1761915,32.1893873 68.6605394,32.2943774 68.1047384,32.2943774 C67.7342043,32.2943774 67.3513249,32.2449703 66.9560887,32.1461547 C66.5608524,32.0473391 66.1995872,31.8867661 65.8722821,31.6644309 C65.5449771,31.4420958 65.2763439,31.1456534 65.0663747,30.7750948 C64.8564054,30.4045362 64.7514223,29.9475208 64.7514223,29.4040349 C64.7514223,28.7370294 64.9335988,28.1997276 65.2979573,27.7921131 C65.6623157,27.3844987 66.1316518,27.0695286 66.7059795,26.8471935 C67.2803072,26.6248583 67.9194688,26.4766371 68.6234834,26.4025254 C69.327498,26.3284137 70.0129756,26.2913584 70.6799368,26.2913584 L70.6799368,26.1431357 C70.6799368,25.6861134 70.5193745,25.3495278 70.198245,25.1333686 C69.8771156,24.9172094 69.4818852,24.8091315 69.0125421,24.8091315 C68.5802525,24.8091315 68.163408,24.9017697 67.7619961,25.087049 C67.3605843,25.2723283 67.0178455,25.4946601 66.7337694,25.7540511 L65.1960609,24.1050737 Z M81.8719378,32.0720433 L81.8719378,27.0324718 C81.8719378,26.7730808 81.8503237,26.5260455 81.8070947,26.2913584 C81.7638657,26.0566713 81.6928478,25.8497792 81.5940387,25.6706759 C81.4952296,25.4915725 81.3562815,25.3495272 81.17719,25.2445356 C80.9980986,25.139544 80.7726938,25.087049 80.5009688,25.087049 C80.2292439,25.087049 79.9914881,25.139544 79.7876944,25.2445356 C79.5839007,25.3495272 79.4140752,25.4946605 79.2782127,25.6799398 C79.1423503,25.8652191 79.0404549,26.078287 78.9725237,26.3191501 C78.9045925,26.5600132 78.8706274,26.8101365 78.8706274,27.0695275 L78.8706274,32.0720433 L75.8137371,32.0720433 L75.8137371,22.8451808 L78.7594677,22.8451808 L78.7594677,24.1236015 L78.7965209,24.1236015 C78.9076811,23.9259703 79.0528048,23.7314299 79.2318962,23.5399747 C79.4109876,23.3485194 79.6209538,23.1848585 79.8618009,23.048987 C80.102648,22.9131155 80.3651056,22.8019496 80.6491817,22.7154859 C80.9332578,22.6290223 81.235856,22.5857911 81.5569855,22.5857911 C82.1745422,22.5857911 82.6994575,22.696957 83.1317472,22.9192921 C83.5640368,23.1416273 83.9129511,23.4288059 84.1785005,23.7808365 C84.4440499,24.1328672 84.6354896,24.5373876 84.7528253,24.9944098 C84.8701611,25.4514321 84.9288281,25.9084475 84.9288281,26.3654697 L84.9288281,32.0720433 L81.8719378,32.0720433 Z M103.570455,30.2563154 C102.989952,30.9233208 102.273597,31.4513589 101.421369,31.8404454 C100.569141,32.2295319 99.5872402,32.4240722 98.4756381,32.4240722 C97.4628452,32.4240722 96.5272608,32.2573234 95.6688571,31.9238206 C94.8104533,31.5903179 94.0663086,31.1178628 93.4364008,30.5064412 C92.806493,29.8950195 92.3124551,29.1631773 91.9542722,28.3108925 C91.5960893,27.4586078 91.4170006,26.5198735 91.4170006,25.4946614 C91.4170006,24.4447454 91.599177,23.4936593 91.9635355,22.6413746 C92.3278939,21.7890899 92.8311951,21.0634235 93.473454,20.4643538 C94.115713,19.8652841 94.8691208,19.4051808 95.7337002,19.08403 C96.5982795,18.7628792 97.5307761,18.6023063 98.531218,18.6023063 C99.457553,18.6023063 100.368435,18.7659672 101.263893,19.0932939 C102.15935,19.4206207 102.884968,19.8992517 103.440769,20.5292013 L101.291683,22.6784303 C100.995255,22.2708158 100.6062,21.9681975 100.124506,21.7705663 C99.642812,21.572935 99.1487741,21.4741209 98.6423776,21.4741209 C98.0865766,21.4741209 97.5771,21.576023 97.1139325,21.7798302 C96.650765,21.9836374 96.2524469,22.2646401 95.9189663,22.6228468 C95.5854857,22.9810534 95.3261157,23.4041014 95.1408487,23.8920036 C94.9555817,24.3799057 94.8629496,24.9141196 94.8629496,25.4946614 C94.8629496,26.0875551 94.9555817,26.6310329 95.1408487,27.125111 C95.3261157,27.6191891 95.5823979,28.0422372 95.909703,28.3942678 C96.237008,28.7462985 96.6291506,29.0211253 97.0861426,29.2187565 C97.5431345,29.4163878 98.0433479,29.5152019 98.5867978,29.5152019 C99.2167056,29.5152019 99.7663228,29.3916842 100.235666,29.1446452 C100.705009,28.8976061 101.081713,28.5764602 101.365789,28.1811977 L103.570455,30.2563154 Z M114.317818,27.4215564 C114.317818,28.1750255 114.181957,28.8574607 113.910232,29.4688823 C113.638507,30.080304 113.267979,30.5990782 112.798636,31.0252206 C112.329293,31.4513629 111.785851,31.7817727 111.168294,32.0164598 C110.550738,32.2511469 109.889962,32.3684887 109.185947,32.3684887 C108.494284,32.3684887 107.836596,32.2511469 107.212864,32.0164598 C106.589131,31.7817727 106.04569,31.4513629 105.582522,31.0252206 C105.119355,30.5990782 104.751914,30.080304 104.480189,29.4688823 C104.208464,28.8574607 104.072604,28.1750255 104.072604,27.4215564 C104.072604,26.6680873 104.208464,25.9887401 104.480189,25.3834944 C104.751914,24.7782487 105.119355,24.2656504 105.582522,23.845684 C106.04569,23.4257176 106.589131,23.1045716 107.212864,22.8822365 C107.836596,22.6599013 108.494284,22.5487354 109.185947,22.5487354 C109.889962,22.5487354 110.550738,22.6599013 111.168294,22.8822365 C111.785851,23.1045716 112.329293,23.4257176 112.798636,23.845684 C113.267979,24.2656504 113.638507,24.7782487 113.910232,25.3834944 C114.181957,25.9887401 114.317818,26.6680873 114.317818,27.4215564 Z M111.390614,27.4215564 C111.390614,27.1251095 111.34121,26.834843 111.242401,26.5507481 C111.143592,26.2666532 111.001556,26.0165299 110.816289,25.8003707 C110.631022,25.5842115 110.402529,25.4081988 110.130804,25.2723274 C109.859079,25.1364559 109.54413,25.0685212 109.185947,25.0685212 C108.827764,25.0685212 108.512815,25.1364559 108.24109,25.2723274 C107.969365,25.4081988 107.743961,25.5842115 107.564869,25.8003707 C107.385778,26.0165299 107.249917,26.2666532 107.157284,26.5507481 C107.06465,26.834843 107.018334,27.1251095 107.018334,27.4215564 C107.018334,27.7180033 107.06465,28.0082698 107.157284,28.2923647 C107.249917,28.5764596 107.388865,28.8327588 107.574132,29.0612699 C107.759399,29.289781 107.987892,29.4719696 108.259617,29.6078411 C108.531342,29.7437126 108.846291,29.8116473 109.204474,29.8116473 C109.562657,29.8116473 109.877606,29.7437126 110.149331,29.6078411 C110.421056,29.4719696 110.649548,29.289781 110.834815,29.0612699 C111.020082,28.8327588 111.159031,28.5764596 111.251664,28.2923647 C111.344298,28.0082698 111.390614,27.7180033 111.390614,27.4215564 Z M116.283568,32.0720433 L116.283568,18.064999 L119.358985,18.064999 L119.358985,32.0720433 L116.283568,32.0720433 Z M121.806427,32.0720433 L121.806427,18.064999 L124.881844,18.064999 L124.881844,32.0720433 L121.806427,32.0720433 Z M133.646859,26.4025254 C133.646859,25.9207992 133.49556,25.507015 133.192957,25.1611604 C132.890355,24.8153057 132.436457,24.6423809 131.831252,24.6423809 C131.534824,24.6423809 131.263104,24.6887001 131.016081,24.7813397 C130.769058,24.8739794 130.552917,25.000585 130.36765,25.1611604 C130.182383,25.3217357 130.034171,25.5101002 129.923011,25.7262594 C129.811851,25.9424185 129.750096,26.1678383 129.737745,26.4025254 L133.646859,26.4025254 Z M136.444377,27.5697791 L136.444377,27.9403358 C136.444377,28.0638553 136.438202,28.1811971 136.42585,28.2923647 L129.737745,28.2923647 C129.762447,28.5517557 129.839641,28.7864393 129.969328,28.9964225 C130.099014,29.2064057 130.265752,29.3885943 130.469546,29.5429937 C130.67334,29.6973931 130.901832,29.8178228 131.15503,29.9042865 C131.408229,29.9907501 131.670686,30.0339813 131.942411,30.0339813 C132.424105,30.0339813 132.831687,29.944431 133.165167,29.7653277 C133.498648,29.5862244 133.770369,29.3546287 133.980338,29.0705338 L136.092371,30.4045381 C135.660082,31.0344876 135.08885,31.5192945 134.37866,31.8589732 C133.66847,32.1986519 132.844044,32.3684887 131.905358,32.3684887 C131.213695,32.3684887 130.559094,32.2604107 129.941538,32.0442516 C129.323981,31.8280924 128.783627,31.5131223 128.320459,31.0993319 C127.857292,30.6855415 127.492939,30.1760311 127.22739,29.5707854 C126.96184,28.9655397 126.829068,28.2738408 126.829068,27.4956677 C126.829068,26.7421986 126.958752,26.0597635 127.218126,25.4483418 C127.4775,24.8369202 127.829502,24.3181459 128.274143,23.8920036 C128.718784,23.4658612 129.243699,23.1354514 129.848905,22.9007643 C130.45411,22.6660772 131.10871,22.5487354 131.812725,22.5487354 C132.492037,22.5487354 133.11576,22.6629893 133.683912,22.8915004 C134.252065,23.1200115 134.739927,23.4504213 135.147514,23.8827396 C135.555102,24.315058 135.873139,24.8400081 136.101635,25.4576057 C136.330131,26.0752034 136.444377,26.7792541 136.444377,27.5697791 Z M148.11807,31.201235 C148.11807,32.1029276 147.988385,32.8872648 147.729011,33.5542702 C147.469637,34.2212757 147.105284,34.7740173 146.635941,35.2125116 C146.166598,35.6510059 145.595367,35.9783278 144.92223,36.1944869 C144.249093,36.4106461 143.504948,36.5187241 142.689774,36.5187241 C141.874599,36.5187241 141.037822,36.3952064 140.179418,36.1481673 C139.321015,35.9011283 138.57687,35.542927 137.946962,35.0735528 L139.466144,32.905796 C139.910785,33.3010585 140.401735,33.5944129 140.939009,33.7858682 C141.476284,33.9773235 142.004287,34.0730497 142.523034,34.0730497 C143.412316,34.0730497 144.070004,33.8383661 144.496118,33.3689919 C144.922232,32.8996177 145.135286,32.2758534 145.135286,31.4976804 L145.135286,30.9418453 L145.079706,30.9418453 C144.79563,31.3124039 144.412751,31.6088463 143.931056,31.8311815 C143.449362,32.0535166 142.899745,32.1646825 142.282188,32.1646825 C141.578174,32.1646825 140.954451,32.0380769 140.411001,31.7848619 C139.867551,31.5316468 139.407478,31.1888853 139.030769,30.7565669 C138.654059,30.3242486 138.3669,29.8209141 138.169281,29.2465483 C137.971663,28.6721825 137.872856,28.0638579 137.872856,27.4215564 C137.872856,26.7792549 137.971663,26.1678424 138.169281,25.5873006 C138.3669,25.0067588 138.654059,24.4941605 139.030769,24.0494902 C139.407478,23.6048199 139.867551,23.2497066 140.411001,22.9841396 C140.954451,22.7185726 141.571998,22.5857911 142.263662,22.5857911 C142.844165,22.5857911 143.399958,22.7031329 143.931056,22.93782 C144.462155,23.1725071 144.888263,23.5368842 145.209392,24.0309623 L145.246446,24.0309623 L145.246446,22.8451808 L148.11807,22.8451808 L148.11807,31.201235 Z M145.227919,27.4030286 C145.227919,27.0942297 145.175427,26.7977873 145.070443,26.5136924 C144.965458,26.2295975 144.814159,25.9794742 144.616541,25.763315 C144.418923,25.5471559 144.184255,25.3773191 143.91253,25.2537995 C143.640805,25.13028 143.332031,25.0685212 142.986199,25.0685212 C142.640368,25.0685212 142.334682,25.13028 142.069132,25.2537995 C141.803583,25.3773191 141.578178,25.5440679 141.392911,25.7540511 C141.207644,25.9640343 141.065608,26.2110697 140.966799,26.4951646 C140.86799,26.7792595 140.818586,27.0818778 140.818586,27.4030286 C140.818586,27.7118274 140.86799,28.0082698 140.966799,28.2923647 C141.065608,28.5764596 141.207644,28.8265829 141.392911,29.0427421 C141.578178,29.2589012 141.803583,29.431826 142.069132,29.5615215 C142.334682,29.691217 142.640368,29.7560638 142.986199,29.7560638 C143.332031,29.7560638 143.643893,29.691217 143.921793,29.5615215 C144.199694,29.431826 144.434362,29.2619892 144.625804,29.052006 C144.817247,28.8420228 144.965458,28.5949875 145.070443,28.3108925 C145.175427,28.0267976 145.227919,27.7241793 145.227919,27.4030286 Z M156.883085,26.4025254 C156.883085,25.9207992 156.731786,25.507015 156.429183,25.1611604 C156.12658,24.8153057 155.672683,24.6423809 155.067478,24.6423809 C154.77105,24.6423809 154.499329,24.6887001 154.252307,24.7813397 C154.005284,24.8739794 153.789143,25.000585 153.603876,25.1611604 C153.418609,25.3217357 153.270397,25.5101002 153.159237,25.7262594 C153.048077,25.9424185 152.986322,26.1678383 152.973971,26.4025254 L156.883085,26.4025254 Z M159.680603,27.5697791 L159.680603,27.9403358 C159.680603,28.0638553 159.674427,28.1811971 159.662076,28.2923647 L152.973971,28.2923647 C152.998673,28.5517557 153.075867,28.7864393 153.205553,28.9964225 C153.33524,29.2064057 153.501978,29.3885943 153.705772,29.5429937 C153.909566,29.6973931 154.138058,29.8178228 154.391256,29.9042865 C154.644455,29.9907501 154.906912,30.0339813 155.178637,30.0339813 C155.660331,30.0339813 156.067913,29.944431 156.401393,29.7653277 C156.734874,29.5862244 157.006595,29.3546287 157.216564,29.0705338 L159.328597,30.4045381 C158.896308,31.0344876 158.325076,31.5192945 157.614886,31.8589732 C156.904696,32.1986519 156.08027,32.3684887 155.141584,32.3684887 C154.449921,32.3684887 153.79532,32.2604107 153.177764,32.0442516 C152.560207,31.8280924 152.019853,31.5131223 151.556685,31.0993319 C151.093518,30.6855415 150.729165,30.1760311 150.463616,29.5707854 C150.198066,28.9655397 150.065293,28.2738408 150.065293,27.4956677 C150.065293,26.7421986 150.194978,26.0597635 150.454352,25.4483418 C150.713726,24.8369202 151.065728,24.3181459 151.510369,23.8920036 C151.95501,23.4658612 152.479925,23.1354514 153.085131,22.9007643 C153.690336,22.6660772 154.344936,22.5487354 155.048951,22.5487354 C155.728263,22.5487354 156.351986,22.6629893 156.920138,22.8915004 C157.48829,23.1200115 157.976153,23.4504213 158.38374,23.8827396 C158.791328,24.315058 159.109365,24.8400081 159.337861,25.4576057 C159.566357,26.0752034 159.680603,26.7792541 159.680603,27.5697791 Z M175.987877,27.4215564 C175.987877,28.1750255 175.852017,28.8574607 175.580292,29.4688823 C175.308567,30.080304 174.938039,30.5990782 174.468696,31.0252206 C173.999353,31.4513629 173.455911,31.7817727 172.838354,32.0164598 C172.220797,32.2511469 171.560022,32.3684887 170.856007,32.3684887 C170.164344,32.3684887 169.506656,32.2511469 168.882923,32.0164598 C168.259191,31.7817727 167.715749,31.4513629 167.252582,31.0252206 C166.789414,30.5990782 166.421974,30.080304 166.150249,29.4688823 C165.878524,28.8574607 165.742663,28.1750255 165.742663,27.4215564 C165.742663,26.6680873 165.878524,25.9887401 166.150249,25.3834944 C166.421974,24.7782487 166.789414,24.2656504 167.252582,23.845684 C167.715749,23.4257176 168.259191,23.1045716 168.882923,22.8822365 C169.506656,22.6599013 170.164344,22.5487354 170.856007,22.5487354 C171.560022,22.5487354 172.220797,22.6599013 172.838354,22.8822365 C173.455911,23.1045716 173.999353,23.4257176 174.468696,23.845684 C174.938039,24.2656504 175.308567,24.7782487 175.580292,25.3834944 C175.852017,25.9887401 175.987877,26.6680873 175.987877,27.4215564 Z M173.060673,27.4215564 C173.060673,27.1251095 173.01127,26.834843 172.912461,26.5507481 C172.813652,26.2666532 172.671616,26.0165299 172.486349,25.8003707 C172.301082,25.5842115 172.072589,25.4081988 171.800864,25.2723274 C171.529139,25.1364559 171.21419,25.0685212 170.856007,25.0685212 C170.497824,25.0685212 170.182875,25.1364559 169.91115,25.2723274 C169.639425,25.4081988 169.41402,25.5842115 169.234929,25.8003707 C169.055838,26.0165299 168.919977,26.2666532 168.827344,26.5507481 C168.73471,26.834843 168.688394,27.1251095 168.688394,27.4215564 C168.688394,27.7180033 168.73471,28.0082698 168.827344,28.2923647 C168.919977,28.5764596 169.058925,28.8327588 169.244192,29.0612699 C169.429459,29.289781 169.657952,29.4719696 169.929677,29.6078411 C170.201402,29.7437126 170.516351,29.8116473 170.874534,29.8116473 C171.232717,29.8116473 171.547666,29.7437126 171.819391,29.6078411 C172.091116,29.4719696 172.319608,29.289781 172.504875,29.0612699 C172.690142,28.8327588 172.82909,28.5764596 172.921724,28.2923647 C173.014357,28.0082698 173.060673,27.7180033 173.060673,27.4215564 Z M183.641296,20.3068672 C183.530136,20.2698114 183.400451,20.2389319 183.252238,20.214228 C183.104024,20.1895241 182.955813,20.1771724 182.807599,20.1771724 C182.523523,20.1771724 182.29503,20.2265794 182.122115,20.3253951 C181.949199,20.4242107 181.813338,20.5569922 181.714529,20.7237435 C181.61572,20.8904949 181.54779,21.0788593 181.510736,21.2888425 C181.473683,21.4988257 181.455157,21.7088058 181.455157,21.918789 L181.455157,22.8451808 L183.51161,22.8451808 L183.51161,25.1241047 L181.455157,25.1241047 L181.455157,32.0720433 L178.416793,32.0720433 L178.416793,25.1241047 L176.730872,25.1241047 L176.730872,22.8451808 L178.416793,22.8451808 L178.416793,21.9558447 C178.416793,21.3876548 178.478548,20.847265 178.602059,20.334659 C178.72557,19.8220529 178.938624,19.3712134 179.241227,18.9821269 C179.54383,18.5930404 179.951411,18.2842462 180.463983,18.0557351 C180.976555,17.827224 181.615717,17.7129701 182.381487,17.7129701 C182.640861,17.7129701 182.897143,17.7284098 183.150341,17.7592897 C183.40354,17.7901696 183.63512,17.8364887 183.845089,17.8982485 L183.641296,20.3068672 Z M189.90715,32.0720433 L189.90715,18.9543352 L198.725815,18.9543352 L198.725815,21.6408714 L192.96404,21.6408714 L192.96404,24.1050737 L198.410863,24.1050737 L198.410863,26.6433873 L192.96404,26.6433873 L192.96404,29.3669792 L199.059294,29.3669792 L199.059294,32.0720433 L189.90715,32.0720433 Z M212.770913,32.0720433 L212.770913,27.0324718 C212.770913,26.7730808 212.752387,26.5229575 212.715334,26.2820945 C212.67828,26.0412314 212.61035,25.8343393 212.511541,25.6614119 C212.412732,25.4884846 212.279959,25.3495272 212.113219,25.2445356 C211.946479,25.139544 211.727249,25.087049 211.455524,25.087049 C211.19615,25.087049 210.970746,25.142632 210.779303,25.2537995 C210.587861,25.3649671 210.427298,25.5131883 210.297611,25.6984676 C210.167924,25.8837469 210.072205,26.0968149 210.010449,26.337678 C209.948693,26.578541 209.917816,26.8286643 209.917816,27.0880553 L209.917816,32.0720433 L206.879452,32.0720433 L206.879452,26.8101378 C206.879452,26.2790038 206.774469,25.8590437 206.5645,25.5502449 C206.354531,25.2414461 206.021055,25.087049 205.564063,25.087049 C205.082369,25.087049 204.708753,25.2785014 204.443203,25.6614119 C204.177654,26.0443225 204.044881,26.5136896 204.044881,27.0695275 L204.044881,32.0720433 L200.987991,32.0720433 L200.987991,22.8451808 L203.933722,22.8451808 L203.933722,24.1236015 L203.970775,24.1236015 C204.081935,23.9259703 204.220883,23.7345179 204.387623,23.5492386 C204.554364,23.3639593 204.755067,23.2002984 204.989738,23.0582509 C205.22441,22.9162035 205.486867,22.8019496 205.777119,22.7154859 C206.067371,22.6290223 206.385408,22.5857911 206.731239,22.5857911 C207.398201,22.5857911 207.963256,22.7216605 208.426424,22.9934035 C208.889591,23.2651465 209.250857,23.6542271 209.51023,24.1606572 C209.819009,23.678931 210.214239,23.2960262 210.695933,23.0119313 C211.177628,22.7278364 211.764298,22.5857911 212.455961,22.5857911 C213.085869,22.5857911 213.613872,22.7000449 214.039986,22.9285561 C214.4661,23.1570672 214.808839,23.4535096 215.068213,23.8178922 C215.327587,24.1822748 215.515939,24.5898831 215.633274,25.0407294 C215.75061,25.4915757 215.809277,25.9331514 215.809277,26.3654697 L215.809277,32.0720433 L212.770913,32.0720433 Z M224.463133,26.4025254 C224.463133,25.9207992 224.311834,25.507015 224.009231,25.1611604 C223.706628,24.8153057 223.252731,24.6423809 222.647525,24.6423809 C222.351098,24.6423809 222.079377,24.6887001 221.832355,24.7813397 C221.585332,24.8739794 221.36919,25.000585 221.183923,25.1611604 C220.998656,25.3217357 220.850445,25.5101002 220.739285,25.7262594 C220.628124,25.9424185 220.56637,26.1678383 220.554019,26.4025254 L224.463133,26.4025254 Z M227.260651,27.5697791 L227.260651,27.9403358 C227.260651,28.0638553 227.254475,28.1811971 227.242124,28.2923647 L220.554019,28.2923647 C220.578721,28.5517557 220.655914,28.7864393 220.785601,28.9964225 C220.915288,29.2064057 221.082026,29.3885943 221.28582,29.5429937 C221.489613,29.6973931 221.718106,29.8178228 221.971304,29.9042865 C222.224502,29.9907501 222.48696,30.0339813 222.758685,30.0339813 C223.240379,30.0339813 223.64796,29.944431 223.981441,29.7653277 C224.314922,29.5862244 224.586642,29.3546287 224.796612,29.0705338 L226.908645,30.4045381 C226.476355,31.0344876 225.905124,31.5192945 225.194934,31.8589732 C224.484744,32.1986519 223.660318,32.3684887 222.721632,32.3684887 C222.029968,32.3684887 221.375368,32.2604107 220.757811,32.0442516 C220.140255,31.8280924 219.599901,31.5131223 219.136733,31.0993319 C218.673566,30.6855415 218.309213,30.1760311 218.043663,29.5707854 C217.778114,28.9655397 217.645341,28.2738408 217.645341,27.4956677 C217.645341,26.7421986 217.775026,26.0597635 218.0344,25.4483418 C218.293774,24.8369202 218.645776,24.3181459 219.090417,23.8920036 C219.535057,23.4658612 220.059973,23.1354514 220.665178,22.9007643 C221.270384,22.6660772 221.924984,22.5487354 222.628999,22.5487354 C223.308311,22.5487354 223.932034,22.6629893 224.500186,22.8915004 C225.068338,23.1200115 225.556201,23.4504213 225.963788,23.8827396 C226.371375,24.315058 226.689412,24.8400081 226.917908,25.4576057 C227.146404,26.0752034 227.260651,26.7792541 227.260651,27.5697791 Z M235.136389,25.3279109 C235.000526,25.290855 234.867754,25.2661515 234.738067,25.2537995 C234.60838,25.2414476 234.481783,25.2352717 234.358271,25.2352717 C233.950684,25.2352717 233.607945,25.3093823 233.330045,25.4576057 C233.052144,25.6058292 232.829827,25.7849298 232.663087,25.994913 C232.496346,26.2048962 232.375925,26.4334039 232.301818,26.6804429 C232.227711,26.927482 232.190658,27.1436379 232.190658,27.3289172 L232.190658,32.0720433 L229.152294,32.0720433 L229.152294,22.8451808 L232.079498,22.8451808 L232.079498,24.179185 L232.116552,24.179185 C232.351223,23.7098108 232.684699,23.326906 233.116989,23.0304592 C233.549278,22.7340123 234.049492,22.5857911 234.617644,22.5857911 C234.741155,22.5857911 234.861577,22.591967 234.978913,22.6043189 C235.096248,22.6166709 235.191968,22.6351985 235.266075,22.6599024 L235.136389,25.3279109 Z M245.939331,31.201235 C245.939331,32.1029276 245.809646,32.8872648 245.550272,33.5542702 C245.290898,34.2212757 244.926545,34.7740173 244.457202,35.2125116 C243.987859,35.6510059 243.416628,35.9783278 242.743491,36.1944869 C242.070354,36.4106461 241.32621,36.5187241 240.511035,36.5187241 C239.69586,36.5187241 238.859083,36.3952064 238.00068,36.1481673 C237.142276,35.9011283 236.398131,35.542927 235.768223,35.0735528 L237.287405,32.905796 C237.732046,33.3010585 238.222996,33.5944129 238.76027,33.7858682 C239.297545,33.9773235 239.825548,34.0730497 240.344295,34.0730497 C241.233577,34.0730497 241.891265,33.8383661 242.317379,33.3689919 C242.743493,32.8996177 242.956547,32.2758534 242.956547,31.4976804 L242.956547,30.9418453 L242.900967,30.9418453 C242.616891,31.3124039 242.234012,31.6088463 241.752318,31.8311815 C241.270623,32.0535166 240.721006,32.1646825 240.10345,32.1646825 C239.399435,32.1646825 238.775712,32.0380769 238.232262,31.7848619 C237.688812,31.5316468 237.228739,31.1888853 236.85203,30.7565669 C236.47532,30.3242486 236.188161,29.8209141 235.990543,29.2465483 C235.792924,28.6721825 235.694117,28.0638579 235.694117,27.4215564 C235.694117,26.7792549 235.792924,26.1678424 235.990543,25.5873006 C236.188161,25.0067588 236.47532,24.4941605 236.85203,24.0494902 C237.228739,23.6048199 237.688812,23.2497066 238.232262,22.9841396 C238.775712,22.7185726 239.393259,22.5857911 240.084923,22.5857911 C240.665426,22.5857911 241.221219,22.7031329 241.752318,22.93782 C242.283416,23.1725071 242.709524,23.5368842 243.030654,24.0309623 L243.067707,24.0309623 L243.067707,22.8451808 L245.939331,22.8451808 L245.939331,31.201235 Z M243.04918,27.4030286 C243.04918,27.0942297 242.996689,26.7977873 242.891704,26.5136924 C242.786719,26.2295975 242.63542,25.9794742 242.437802,25.763315 C242.240184,25.5471559 242.005516,25.3773191 241.733791,25.2537995 C241.462066,25.13028 241.153292,25.0685212 240.807461,25.0685212 C240.461629,25.0685212 240.155943,25.13028 239.890394,25.2537995 C239.624844,25.3773191 239.399439,25.5440679 239.214172,25.7540511 C239.028905,25.9640343 238.886869,26.2110697 238.78806,26.4951646 C238.689251,26.7792595 238.639848,27.0818778 238.639848,27.4030286 C238.639848,27.7118274 238.689251,28.0082698 238.78806,28.2923647 C238.886869,28.5764596 239.028905,28.8265829 239.214172,29.0427421 C239.399439,29.2589012 239.624844,29.431826 239.890394,29.5615215 C240.155943,29.691217 240.461629,29.7560638 240.807461,29.7560638 C241.153292,29.7560638 241.465154,29.691217 241.743054,29.5615215 C242.020955,29.431826 242.255623,29.2619892 242.447065,29.052006 C242.638508,28.8420228 242.786719,28.5949875 242.891704,28.3108925 C242.996689,28.0267976 243.04918,27.7241793 243.04918,27.4030286 Z M254.704346,26.4025254 C254.704346,25.9207992 254.553047,25.507015 254.250444,25.1611604 C253.947842,24.8153057 253.493944,24.6423809 252.888739,24.6423809 C252.592312,24.6423809 252.320591,24.6887001 252.073568,24.7813397 C251.826545,24.8739794 251.610404,25.000585 251.425137,25.1611604 C251.23987,25.3217357 251.091658,25.5101002 250.980498,25.7262594 C250.869338,25.9424185 250.807583,26.1678383 250.795232,26.4025254 L254.704346,26.4025254 Z M257.501864,27.5697791 L257.501864,27.9403358 C257.501864,28.0638553 257.495689,28.1811971 257.483338,28.2923647 L250.795232,28.2923647 C250.819934,28.5517557 250.897128,28.7864393 251.026815,28.9964225 C251.156502,29.2064057 251.323239,29.3885943 251.527033,29.5429937 C251.730827,29.6973931 251.959319,29.8178228 252.212518,29.9042865 C252.465716,29.9907501 252.728173,30.0339813 252.999898,30.0339813 C253.481593,30.0339813 253.889174,29.944431 254.222655,29.7653277 C254.556135,29.5862244 254.827856,29.3546287 255.037825,29.0705338 L257.149859,30.4045381 C256.717569,31.0344876 256.146338,31.5192945 255.436147,31.8589732 C254.725957,32.1986519 253.901531,32.3684887 252.962845,32.3684887 C252.271182,32.3684887 251.616581,32.2604107 250.999025,32.0442516 C250.381468,31.8280924 249.841114,31.5131223 249.377947,31.0993319 C248.914779,30.6855415 248.550426,30.1760311 248.284877,29.5707854 C248.019327,28.9655397 247.886555,28.2738408 247.886555,27.4956677 C247.886555,26.7421986 248.01624,26.0597635 248.275613,25.4483418 C248.534987,24.8369202 248.886989,24.3181459 249.33163,23.8920036 C249.776271,23.4658612 250.301186,23.1354514 250.906392,22.9007643 C251.511597,22.6660772 252.166198,22.5487354 252.870212,22.5487354 C253.549525,22.5487354 254.173247,22.6629893 254.7414,22.8915004 C255.309552,23.1200115 255.797414,23.4504213 256.205002,23.8827396 C256.612589,24.315058 256.930626,24.8400081 257.159122,25.4576057 C257.387618,26.0752034 257.501864,26.7792541 257.501864,27.5697791 Z M265.451709,32.0720433 L265.451709,27.0324718 C265.451709,26.7730808 265.430095,26.5260455 265.386866,26.2913584 C265.343637,26.0566713 265.272619,25.8497792 265.17381,25.6706759 C265.075001,25.4915725 264.936052,25.3495272 264.756961,25.2445356 C264.57787,25.139544 264.352465,25.087049 264.08074,25.087049 C263.809015,25.087049 263.571259,25.139544 263.367465,25.2445356 C263.163672,25.3495272 262.993846,25.4946605 262.857984,25.6799398 C262.722121,25.8652191 262.620226,26.078287 262.552295,26.3191501 C262.484363,26.5600132 262.450398,26.8101365 262.450398,27.0695275 L262.450398,32.0720433 L259.393508,32.0720433 L259.393508,22.8451808 L262.339239,22.8451808 L262.339239,24.1236015 L262.376292,24.1236015 C262.487452,23.9259703 262.632576,23.7314299 262.811667,23.5399747 C262.990759,23.3485194 263.200725,23.1848585 263.441572,23.048987 C263.682419,22.9131155 263.944877,22.8019496 264.228953,22.7154859 C264.513029,22.6290223 264.815627,22.5857911 265.136756,22.5857911 C265.754313,22.5857911 266.279228,22.696957 266.711518,22.9192921 C267.143808,23.1416273 267.492722,23.4288059 267.758271,23.7808365 C268.023821,24.1328672 268.21526,24.5373876 268.332596,24.9944098 C268.449932,25.4514321 268.508599,25.9084475 268.508599,26.3654697 L268.508599,32.0720433 L265.451709,32.0720433 Z M277.162455,25.8281625 C276.989539,25.6058273 276.754871,25.4267267 276.458444,25.2908552 C276.162016,25.1549837 275.859418,25.087049 275.55064,25.087049 C275.22951,25.087049 274.939263,25.1518958 274.679889,25.2815913 C274.420515,25.4112868 274.198198,25.5842115 274.012931,25.8003707 C273.827664,26.0165299 273.682541,26.2666532 273.577556,26.5507481 C273.472571,26.834843 273.42008,27.1374613 273.42008,27.4586121 C273.42008,27.7797628 273.469484,28.0823811 273.568293,28.366476 C273.667102,28.650571 273.812226,28.9006943 274.003668,29.1168534 C274.195111,29.3330126 274.423603,29.5028494 274.689153,29.6263689 C274.954702,29.7498885 275.254212,29.8116473 275.587693,29.8116473 C275.896471,29.8116473 276.202157,29.7529764 276.50476,29.6356328 C276.807363,29.5182893 277.051294,29.3484525 277.236561,29.1261173 L278.922482,31.1827072 C278.539597,31.5532658 278.045559,31.8435323 277.440354,32.0535155 C276.835148,32.2634987 276.192899,32.3684887 275.513587,32.3684887 C274.78487,32.3684887 274.105568,32.2573228 273.47566,32.0349877 C272.845752,31.8126525 272.299223,31.4884186 271.836055,31.0622762 C271.372887,30.6361339 271.008535,30.1204476 270.742985,29.5152019 C270.477436,28.9099562 270.344663,28.2244331 270.344663,27.4586121 C270.344663,26.705143 270.477436,26.0257957 270.742985,25.4205501 C271.008535,24.8153044 271.372887,24.2996181 271.836055,23.8734757 C272.299223,23.4473334 272.845752,23.1200115 273.47566,22.8915004 C274.105568,22.6629893 274.778694,22.5487354 275.49506,22.5487354 C275.828541,22.5487354 276.158929,22.5796148 276.486234,22.6413746 C276.813539,22.7031344 277.128488,22.7865088 277.431091,22.8915004 C277.733693,22.996492 278.01159,23.1261855 278.264788,23.280585 C278.517986,23.4349844 278.737215,23.6048212 278.922482,23.7901005 L277.162455,25.8281625 Z M285.334619,33.4616311 C285.149352,33.9433572 284.942473,34.3725811 284.713977,34.7493157 C284.485481,35.1260502 284.21376,35.4471962 283.898807,35.7127632 C283.583853,35.9783302 283.213324,36.1790464 282.78721,36.3149179 C282.361096,36.4507893 281.857795,36.5187241 281.277292,36.5187241 C280.993215,36.5187241 280.69988,36.5001964 280.397278,36.4631406 C280.094675,36.4260847 279.832217,36.3766776 279.609897,36.3149179 L279.943376,33.7580764 C280.091589,33.8074843 280.255239,33.8476275 280.434331,33.8785074 C280.613422,33.9093873 280.777072,33.924827 280.925286,33.924827 C281.394629,33.924827 281.73428,33.816749 281.944249,33.6005898 C282.154219,33.3844307 282.333307,33.0787244 282.481521,32.6834619 L282.777947,31.9238206 L278.924412,22.8451808 L282.296255,22.8451808 L284.352708,28.7740884 L284.408288,28.7740884 L286.242422,22.8451808 L289.466052,22.8451808 L285.334619,33.4616311 Z M305.384268,22.9934035 C305.384268,23.7592246 305.242232,24.4046044 304.958156,24.9295624 C304.67408,25.4545204 304.291201,25.8775684 303.809506,26.1987192 C303.327812,26.51987 302.772019,26.7545535 302.142112,26.902777 C301.512204,27.0510004 300.857604,27.125111 300.178291,27.125111 L298.60353,27.125111 L298.60353,32.0720433 L295.43548,32.0720433 L295.43548,18.9543352 L300.252398,18.9543352 C300.968763,18.9543352 301.638802,19.0253578 302.262535,19.1674053 C302.886267,19.3094527 303.429709,19.5379604 303.892876,19.8529352 C304.356044,20.16791 304.720397,20.5816942 304.985946,21.0943003 C305.251495,21.6069063 305.384268,22.2399344 305.384268,22.9934035 Z M302.216218,23.0119313 C302.216218,22.7031325 302.154463,22.4499213 302.030952,22.25229 C301.907441,22.0546588 301.740703,21.9002617 301.530734,21.7890941 C301.320764,21.6779266 301.083009,21.6038159 300.817459,21.5667601 C300.55191,21.5297042 300.277101,21.5111766 299.993025,21.5111766 L298.60353,21.5111766 L298.60353,24.6053253 L299.937445,24.6053253 C300.233873,24.6053253 300.517944,24.5806217 300.789669,24.5312139 C301.061394,24.4818061 301.305325,24.3953437 301.52147,24.2718242 C301.737615,24.1483047 301.907441,23.9846438 302.030952,23.7808365 C302.154463,23.5770293 302.216218,23.3207301 302.216218,23.0119313 Z M313.204426,32.0720433 L313.204426,27.0695275 C313.204426,26.8101365 313.1859,26.5631011 313.148847,26.328414 C313.111793,26.0937269 313.040775,25.8868348 312.935791,25.7077315 C312.830806,25.5286282 312.691858,25.3865829 312.518942,25.2815913 C312.346026,25.1765997 312.123709,25.1241047 311.851984,25.1241047 C311.320885,25.1241047 310.913304,25.3124691 310.629228,25.6892037 C310.345152,26.0659382 310.203116,26.5322175 310.203116,27.0880553 L310.203116,32.0720433 L307.164752,32.0720433 L307.164752,18.064999 L310.203116,18.064999 L310.203116,24.0124345 L310.240169,24.0124345 C310.450138,23.6418759 310.783614,23.3114661 311.240606,23.0211952 C311.697598,22.7309244 312.247215,22.5857911 312.889474,22.5857911 C313.519382,22.5857911 314.047385,22.696957 314.473499,22.9192921 C314.899613,23.1416273 315.24544,23.4288059 315.510989,23.7808365 C315.776538,24.1328672 315.967978,24.5373876 316.085314,24.9944098 C316.20265,25.4514321 316.261317,25.9084475 316.261317,26.3654697 L316.261317,32.0720433 L313.204426,32.0720433 Z M323.766523,33.4616311 C323.581256,33.9433572 323.374377,34.3725811 323.145881,34.7493157 C322.917385,35.1260502 322.645664,35.4471962 322.330711,35.7127632 C322.015757,35.9783302 321.645228,36.1790464 321.219114,36.3149179 C320.793,36.4507893 320.289699,36.5187241 319.709196,36.5187241 C319.42512,36.5187241 319.131784,36.5001964 318.829182,36.4631406 C318.526579,36.4260847 318.264121,36.3766776 318.041801,36.3149179 L318.37528,33.7580764 C318.523493,33.8074843 318.687143,33.8476275 318.866235,33.8785074 C319.045326,33.9093873 319.208976,33.924827 319.35719,33.924827 C319.826533,33.924827 320.166184,33.816749 320.376153,33.6005898 C320.586123,33.3844307 320.765211,33.0787244 320.913425,32.6834619 L321.209851,31.9238206 L317.356316,22.8451808 L320.728159,22.8451808 L322.784612,28.7740884 L322.840192,28.7740884 L324.674326,22.8451808 L327.897956,22.8451808 L323.766523,33.4616311 Z M334.495358,25.5687728 C334.248336,25.3340857 333.958089,25.1364574 333.624608,24.975882 C333.291127,24.8153066 332.939125,24.7350201 332.568591,24.7350201 C332.284515,24.7350201 332.022058,24.7906031 331.78121,24.9017706 C331.540363,25.0129382 331.419942,25.2043906 331.419942,25.4761336 C331.419942,25.7355246 331.552714,25.9208011 331.818264,26.0319687 C332.083813,26.1431362 332.513008,26.2666539 333.105863,26.4025254 C333.451695,26.4766371 333.800609,26.5816271 334.152616,26.7174986 C334.504624,26.8533701 334.82266,27.0324707 335.106737,27.2548059 C335.390813,27.477141 335.619305,27.7488799 335.792221,28.0700307 C335.965137,28.3911814 336.051594,28.7740862 336.051594,29.2187565 C336.051594,29.7992983 335.93426,30.2902811 335.699588,30.6917195 C335.464916,31.093158 335.15923,31.4173919 334.782521,31.6644309 C334.405811,31.91147 333.982791,32.0905706 333.513448,32.2017382 C333.044105,32.3129058 332.574769,32.3684887 332.105426,32.3684887 C331.352007,32.3684887 330.614038,32.248059 329.891496,32.0071959 C329.168955,31.7663328 328.566846,31.4112195 328.085152,30.9418453 L329.7896,29.1446452 C330.061325,29.441092 330.394801,29.6881274 330.790037,29.8857586 C331.185273,30.0833899 331.605205,30.182204 332.049846,30.182204 C332.296869,30.182204 332.5408,30.1235331 332.781647,30.0061896 C333.022494,29.888846 333.142916,29.6819539 333.142916,29.3855071 C333.142916,29.1014121 332.994705,28.8914321 332.698278,28.7555606 C332.40185,28.6196891 331.93869,28.4776438 331.308782,28.3294204 C330.987652,28.2553087 330.666528,28.1564945 330.345398,28.032975 C330.024269,27.9094555 329.737109,27.7427066 329.483911,27.5327234 C329.230713,27.3227402 329.023834,27.0633531 328.86327,26.7545543 C328.702705,26.4457555 328.622424,26.0752024 328.622424,25.6428841 C328.622424,25.0870462 328.739758,24.6145911 328.974429,24.2255046 C329.209101,23.8364181 329.511699,23.5183601 329.882233,23.271321 C330.252767,23.024282 330.663436,22.8420934 331.114253,22.7247499 C331.565069,22.6074063 332.012791,22.5487354 332.457432,22.5487354 C333.149095,22.5487354 333.82531,22.6568134 334.486095,22.8729726 C335.146881,23.0891317 335.705761,23.4133656 336.162753,23.845684 L334.495358,25.5687728 Z M341.111287,19.8992548 C341.111287,20.1339419 341.064971,20.3531858 340.972338,20.556993 C340.879704,20.7608002 340.756195,20.9368129 340.601806,21.0850363 C340.447416,21.2332598 340.262152,21.3506016 340.046007,21.4370652 C339.829863,21.5235289 339.604458,21.5667601 339.369786,21.5667601 C338.875741,21.5667601 338.461984,21.4030992 338.128503,21.0757724 C337.795023,20.7484457 337.628285,20.3562771 337.628285,19.8992548 C337.628285,19.6769197 337.671513,19.4638517 337.757971,19.2600445 C337.844429,19.0562372 337.967939,18.8802246 338.128503,18.7320011 C338.289068,18.5837777 338.474332,18.463348 338.684302,18.3707083 C338.894271,18.2780687 339.122764,18.2317495 339.369786,18.2317495 C339.604458,18.2317495 339.829863,18.2749807 340.046007,18.3614444 C340.262152,18.4479081 340.447416,18.5652499 340.601806,18.7134733 C340.756195,18.8616967 340.879704,19.0377094 340.972338,19.2415166 C341.064971,19.4453238 341.111287,19.6645677 341.111287,19.8992548 Z M337.850604,32.0720433 L337.850604,22.8451808 L340.888968,22.8451808 L340.888968,32.0720433 L337.850604,32.0720433 Z M349.653983,25.8281625 C349.481068,25.6058273 349.246399,25.4267267 348.949972,25.2908552 C348.653545,25.1549837 348.350947,25.087049 348.042169,25.087049 C347.721039,25.087049 347.430792,25.1518958 347.171418,25.2815913 C346.912044,25.4112868 346.689727,25.5842115 346.50446,25.8003707 C346.319193,26.0165299 346.174069,26.2666532 346.069085,26.5507481 C345.9641,26.834843 345.911609,27.1374613 345.911609,27.4586121 C345.911609,27.7797628 345.961012,28.0823811 346.059821,28.366476 C346.158631,28.650571 346.303754,28.9006943 346.495197,29.1168534 C346.686639,29.3330126 346.915132,29.5028494 347.180681,29.6263689 C347.446231,29.7498885 347.745741,29.8116473 348.079222,29.8116473 C348.388,29.8116473 348.693686,29.7529764 348.996289,29.6356328 C349.298892,29.5182893 349.542823,29.3484525 349.72809,29.1261173 L351.414011,31.1827072 C351.031126,31.5532658 350.537088,31.8435323 349.931883,32.0535155 C349.326677,32.2634987 348.684428,32.3684887 348.005115,32.3684887 C347.276398,32.3684887 346.597096,32.2573228 345.967188,32.0349877 C345.337281,31.8126525 344.790751,31.4884186 344.327584,31.0622762 C343.864416,30.6361339 343.500063,30.1204476 343.234514,29.5152019 C342.968964,28.9099562 342.836192,28.2244331 342.836192,27.4586121 C342.836192,26.705143 342.968964,26.0257957 343.234514,25.4205501 C343.500063,24.8153044 343.864416,24.2996181 344.327584,23.8734757 C344.790751,23.4473334 345.337281,23.1200115 345.967188,22.8915004 C346.597096,22.6629893 347.270223,22.5487354 347.986589,22.5487354 C348.320069,22.5487354 348.650457,22.5796148 348.977762,22.6413746 C349.305067,22.7031344 349.620016,22.7865088 349.922619,22.8915004 C350.225222,22.996492 350.503118,23.1261855 350.756317,23.280585 C351.009515,23.4349844 351.228744,23.6048212 351.414011,23.7901005 L349.653983,25.8281625 Z M355.917907,19.8992548 C355.917907,20.1339419 355.871591,20.3531858 355.778957,20.556993 C355.686324,20.7608002 355.562814,20.9368129 355.408425,21.0850363 C355.254036,21.2332598 355.068772,21.3506016 354.852627,21.4370652 C354.636482,21.5235289 354.411077,21.5667601 354.176406,21.5667601 C353.68236,21.5667601 353.268603,21.4030992 352.935123,21.0757724 C352.601642,20.7484457 352.434904,20.3562771 352.434904,19.8992548 C352.434904,19.6769197 352.478133,19.4638517 352.564591,19.2600445 C352.651049,19.0562372 352.774558,18.8802246 352.935123,18.7320011 C353.095688,18.5837777 353.280952,18.463348 353.490921,18.3707083 C353.70089,18.2780687 353.929383,18.2317495 354.176406,18.2317495 C354.411077,18.2317495 354.636482,18.2749807 354.852627,18.3614444 C355.068772,18.4479081 355.254036,18.5652499 355.408425,18.7134733 C355.562814,18.8616967 355.686324,19.0377094 355.778957,19.2415166 C355.871591,19.4453238 355.917907,19.6645677 355.917907,19.8992548 Z M352.657224,32.0720433 L352.657224,22.8451808 L355.695587,22.8451808 L355.695587,32.0720433 L352.657224,32.0720433 Z M363.552799,28.0515028 L363.16374,28.0515028 C362.83026,28.0515028 362.493696,28.0669425 362.15404,28.0978224 C361.814384,28.1287023 361.511786,28.1873732 361.246236,28.2738369 C360.980687,28.3603005 360.761458,28.4869062 360.588542,28.6536575 C360.415626,28.8204089 360.329169,29.0396527 360.329169,29.3113957 C360.329169,29.484323 360.36931,29.6325443 360.449592,29.7560638 C360.529875,29.8795833 360.63177,29.9783974 360.755281,30.0525092 C360.878793,30.1266209 361.020828,30.1791159 361.181393,30.2099958 C361.341958,30.2408757 361.496345,30.2563154 361.644558,30.2563154 C362.262115,30.2563154 362.734539,30.0864786 363.061844,29.7467999 C363.389149,29.4071212 363.552799,28.9470178 363.552799,28.366476 L363.552799,28.0515028 Z M357.97629,24.1050737 C358.51974,23.5862917 359.152726,23.197211 359.875267,22.93782 C360.597809,22.678429 361.335778,22.5487354 362.089197,22.5487354 C362.867318,22.5487354 363.525006,22.6444616 364.062281,22.8359169 C364.599555,23.0273721 365.034926,23.3238146 365.368407,23.725253 C365.701887,24.1266915 365.945818,24.633114 366.100208,25.2445356 C366.254597,25.8559573 366.33179,26.5816236 366.33179,27.4215564 L366.33179,32.0720433 L363.552799,32.0720433 L363.552799,31.090068 L363.497219,31.090068 C363.262548,31.4729785 362.907458,31.769421 362.431939,31.9794041 C361.956421,32.1893873 361.440768,32.2943774 360.884967,32.2943774 C360.514433,32.2943774 360.131554,32.2449703 359.736318,32.1461547 C359.341081,32.0473391 358.979816,31.8867661 358.652511,31.6644309 C358.325206,31.4420958 358.056573,31.1456534 357.846604,30.7750948 C357.636634,30.4045362 357.531651,29.9475208 357.531651,29.4040349 C357.531651,28.7370294 357.713828,28.1997276 358.078186,27.7921131 C358.442545,27.3844987 358.911881,27.0695286 359.486209,26.8471935 C360.060536,26.6248583 360.699698,26.4766371 361.403712,26.4025254 C362.107727,26.3284137 362.793205,26.2913584 363.460166,26.2913584 L363.460166,26.1431357 C363.460166,25.6861134 363.299604,25.3495278 362.978474,25.1333686 C362.657345,24.9172094 362.262114,24.8091315 361.792771,24.8091315 C361.360482,24.8091315 360.943637,24.9017697 360.542225,25.087049 C360.140813,25.2723283 359.798075,25.4946601 359.513998,25.7540511 L357.97629,24.1050737 Z M374.652167,32.0720433 L374.652167,27.0324718 C374.652167,26.7730808 374.630553,26.5260455 374.587324,26.2913584 C374.544095,26.0566713 374.473077,25.8497792 374.374268,25.6706759 C374.275459,25.4915725 374.136511,25.3495272 373.957419,25.2445356 C373.778328,25.139544 373.552923,25.087049 373.281198,25.087049 C373.009473,25.087049 372.771717,25.139544 372.567924,25.2445356 C372.36413,25.3495272 372.194304,25.4946605 372.058442,25.6799398 C371.922579,25.8652191 371.820684,26.078287 371.752753,26.3191501 C371.684822,26.5600132 371.650856,26.8101365 371.650856,27.0695275 L371.650856,32.0720433 L368.593966,32.0720433 L368.593966,22.8451808 L371.539697,22.8451808 L371.539697,24.1236015 L371.57675,24.1236015 C371.68791,23.9259703 371.833034,23.7314299 372.012125,23.5399747 C372.191217,23.3485194 372.401183,23.1848585 372.64203,23.048987 C372.882877,22.9131155 373.145335,22.8019496 373.429411,22.7154859 C373.713487,22.6290223 374.016085,22.5857911 374.337215,22.5857911 C374.954771,22.5857911 375.479687,22.696957 375.911976,22.9192921 C376.344266,23.1416273 376.69318,23.4288059 376.95873,23.7808365 C377.224279,24.1328672 377.415719,24.5373876 377.533054,24.9944098 C377.65039,25.4514321 377.709057,25.9084475 377.709057,26.3654697 L377.709057,32.0720433 L374.652167,32.0720433 Z M385.436583,25.5687728 C385.18956,25.3340857 384.899313,25.1364574 384.565832,24.975882 C384.232351,24.8153066 383.880349,24.7350201 383.509815,24.7350201 C383.225739,24.7350201 382.963282,24.7906031 382.722434,24.9017706 C382.481587,25.0129382 382.361166,25.2043906 382.361166,25.4761336 C382.361166,25.7355246 382.493938,25.9208011 382.759488,26.0319687 C383.025037,26.1431362 383.454233,26.2666539 384.047087,26.4025254 C384.392919,26.4766371 384.741833,26.5816271 385.09384,26.7174986 C385.445848,26.8533701 385.763884,27.0324707 386.047961,27.2548059 C386.332037,27.477141 386.560529,27.7488799 386.733445,28.0700307 C386.906361,28.3911814 386.992818,28.7740862 386.992818,29.2187565 C386.992818,29.7992983 386.875484,30.2902811 386.640812,30.6917195 C386.40614,31.093158 386.100455,31.4173919 385.723745,31.6644309 C385.347035,31.91147 384.924015,32.0905706 384.454672,32.2017382 C383.985329,32.3129058 383.515993,32.3684887 383.04665,32.3684887 C382.293231,32.3684887 381.555262,32.248059 380.83272,32.0071959 C380.110179,31.7663328 379.50807,31.4112195 379.026376,30.9418453 L380.730824,29.1446452 C381.002549,29.441092 381.336025,29.6881274 381.731261,29.8857586 C382.126497,30.0833899 382.546429,30.182204 382.99107,30.182204 C383.238093,30.182204 383.482024,30.1235331 383.722871,30.0061896 C383.963718,29.888846 384.08414,29.6819539 384.08414,29.3855071 C384.08414,29.1014121 383.935929,28.8914321 383.639502,28.7555606 C383.343074,28.6196891 382.879914,28.4776438 382.250006,28.3294204 C381.928876,28.2553087 381.607752,28.1564945 381.286622,28.032975 C380.965493,27.9094555 380.678333,27.7427066 380.425135,27.5327234 C380.171937,27.3227402 379.965058,27.0633531 379.804494,26.7545543 C379.643929,26.4457555 379.563648,26.0752024 379.563648,25.6428841 C379.563648,25.0870462 379.680982,24.6145911 379.915653,24.2255046 C380.150325,23.8364181 380.452923,23.5183601 380.823457,23.271321 C381.193991,23.024282 381.60466,22.8420934 382.055477,22.7247499 C382.506293,22.6074063 382.954015,22.5487354 383.398656,22.5487354 C384.090319,22.5487354 384.766534,22.6568134 385.427319,22.8729726 C386.088105,23.0891317 386.646985,23.4133656 387.103977,23.845684 L385.436583,25.5687728 Z" id="American-College-of"></path>
                <path d="M9.32830314,8.63740582 C9.16156284,8.88753286 8.96008799,9.12376041 8.72387256,9.34609556 C8.48765713,9.56843071 8.2143924,9.76297104 7.90407016,9.9297224 C7.59374793,10.0964738 7.25100911,10.2284833 6.87584343,10.3257549 C6.50067775,10.4230265 6.09078065,10.4716616 5.64613984,10.4716616 C4.90507182,10.4716616 4.21959418,10.3419681 3.58968637,10.0825771 C2.95977855,9.82318605 2.41788069,9.46421281 1.96397653,9.00564656 C1.51007237,8.54708032 1.15575454,8.00283057 0.901012408,7.37288098 C0.646270277,6.74293139 0.518901122,6.05277639 0.518901122,5.30239526 C0.518901122,4.55201414 0.64858608,3.86185913 0.907959886,3.23190955 C1.16733369,2.60195996 1.52628313,2.05771021 1.98481897,1.59914396 C2.4433548,1.14057772 2.98525266,0.781604479 3.6105288,0.522213473 C4.23580494,0.262822466 4.91433517,0.133128908 5.64613984,0.133128908 C6.0074105,0.133128908 6.36172833,0.170184211 6.70910396,0.244295927 C7.05647959,0.318407643 7.38300779,0.422625681 7.68869835,0.556953166 C7.99438891,0.691280652 8.27228524,0.853397599 8.5223957,1.04330887 C8.77250616,1.23322014 8.98092841,1.44860409 9.14766871,1.68946717 L8.31397136,2.30088577 C8.21207451,2.14339837 8.07544214,1.98591334 7.90407016,1.82842594 C7.73269819,1.67093854 7.53122334,1.53198116 7.29963958,1.41154962 C7.06805583,1.29111808 6.81563332,1.19384791 6.54236449,1.1197362 C6.26909566,1.04562448 5.9749887,1.00856918 5.66003479,1.00856918 C5.02086363,1.00856918 4.44886033,1.124367 3.94400774,1.35596611 C3.43915516,1.58756522 3.01073163,1.90021934 2.65872433,2.29393783 C2.30671702,2.68765632 2.03808389,3.14389973 1.85281688,3.66268174 C1.66754988,4.18146376 1.57491777,4.72802946 1.57491777,5.30239526 C1.57491777,5.87676106 1.66986568,6.42332677 1.85976436,6.94210879 C2.04966304,7.4608908 2.32061197,7.91713421 2.67261928,8.3108527 C3.02462659,8.70457119 3.45305011,9.0172253 3.9579027,9.24882442 C4.46275529,9.48042353 5.03012698,9.59622135 5.66003479,9.59622135 C6.22509916,9.59622135 6.76236541,9.48042353 7.27184967,9.24882442 C7.78133394,9.0172253 8.20744165,8.64667228 8.55018561,8.13715423 L9.32830314,8.63740582 Z M20.6083055,5.30239526 C20.6083055,6.05277639 20.4786205,6.74293139 20.2192467,7.37288098 C19.9598729,8.00283057 19.6009235,8.54708032 19.1423877,9.00564656 C18.6838518,9.46421281 18.141954,9.82318605 17.5166778,10.0825771 C16.8914017,10.3419681 16.2128715,10.4716616 15.4810668,10.4716616 C14.7492621,10.4716616 14.0707319,10.3419681 13.4454558,10.0825771 C12.8201796,9.82318605 12.2782818,9.46421281 11.8197459,9.00564656 C11.3612101,8.54708032 11.0022606,8.00283057 10.7428868,7.37288098 C10.483513,6.74293139 10.3538281,6.05277639 10.3538281,5.30239526 C10.3538281,4.55201414 10.483513,3.86185913 10.7428868,3.23190955 C11.0022606,2.60195996 11.3612101,2.05771021 11.8197459,1.59914396 C12.2782818,1.14057772 12.8201796,0.781604479 13.4454558,0.522213473 C14.0707319,0.262822466 14.7492621,0.133128908 15.4810668,0.133128908 C16.2128715,0.133128908 16.8914017,0.262822466 17.5166778,0.522213473 C18.141954,0.781604479 18.6838518,1.14057772 19.1423877,1.59914396 C19.6009235,2.05771021 19.9598729,2.60195996 20.2192467,3.23190955 C20.4786205,3.86185913 20.6083055,4.55201414 20.6083055,5.30239526 Z M19.5522889,5.30239526 C19.5522889,4.72802946 19.4596567,4.18146376 19.2743897,3.66268174 C19.0891227,3.14389973 18.8204896,2.68765632 18.4684823,2.29393783 C18.116475,1.90021934 17.6880515,1.58756522 17.1831989,1.35596611 C16.6783463,1.124367 16.1109746,1.00856918 15.4810668,1.00856918 C14.851159,1.00856918 14.2837873,1.124367 13.7789347,1.35596611 C13.2740821,1.58756522 12.8456586,1.90021934 12.4936513,2.29393783 C12.141644,2.68765632 11.8730108,3.14389973 11.6877438,3.66268174 C11.5024768,4.18146376 11.4098447,4.72802946 11.4098447,5.30239526 C11.4098447,5.87676106 11.5024768,6.42332677 11.6877438,6.94210879 C11.8730108,7.4608908 12.141644,7.91481825 12.4936513,8.30390476 C12.8456586,8.69299127 13.2740821,9.00332943 13.7789347,9.23492854 C14.2837873,9.46652765 14.851159,9.58232547 15.4810668,9.58232547 C16.1109746,9.58232547 16.6783463,9.46652765 17.1831989,9.23492854 C17.6880515,9.00332943 18.116475,8.69299127 18.4684823,8.30390476 C18.8204896,7.91481825 19.0891227,7.4608908 19.2743897,6.94210879 C19.4596567,6.42332677 19.5522889,5.87676106 19.5522889,5.30239526 Z M23.6902839,9.33219968 L28.2756193,9.33219968 L28.2756193,10.2215358 L22.6898471,10.2215358 L22.6898471,0.3832547 L23.6902839,0.3832547 L23.6902839,9.33219968 Z M39.0831932,5.30239526 C39.0831932,6.05277639 38.9535083,6.74293139 38.6941344,7.37288098 C38.4347606,8.00283057 38.0758112,8.54708032 37.6172754,9.00564656 C37.1587395,9.46421281 36.6168417,9.82318605 35.9915655,10.0825771 C35.3662894,10.3419681 34.6877592,10.4716616 33.9559545,10.4716616 C33.2241498,10.4716616 32.5456196,10.3419681 31.9203435,10.0825771 C31.2950673,9.82318605 30.7531695,9.46421281 30.2946336,9.00564656 C29.8360978,8.54708032 29.4771484,8.00283057 29.2177745,7.37288098 C28.9584007,6.74293139 28.8287158,6.05277639 28.8287158,5.30239526 C28.8287158,4.55201414 28.9584007,3.86185913 29.2177745,3.23190955 C29.4771484,2.60195996 29.8360978,2.05771021 30.2946336,1.59914396 C30.7531695,1.14057772 31.2950673,0.781604479 31.9203435,0.522213473 C32.5456196,0.262822466 33.2241498,0.133128908 33.9559545,0.133128908 C34.6877592,0.133128908 35.3662894,0.262822466 35.9915655,0.522213473 C36.6168417,0.781604479 37.1587395,1.14057772 37.6172754,1.59914396 C38.0758112,2.05771021 38.4347606,2.60195996 38.6941344,3.23190955 C38.9535083,3.86185913 39.0831932,4.55201414 39.0831932,5.30239526 Z M38.0271766,5.30239526 C38.0271766,4.72802946 37.9345445,4.18146376 37.7492775,3.66268174 C37.5640104,3.14389973 37.2953773,2.68765632 36.94337,2.29393783 C36.5913627,1.90021934 36.1629392,1.58756522 35.6580866,1.35596611 C35.153234,1.124367 34.5858623,1.00856918 33.9559545,1.00856918 C33.3260467,1.00856918 32.758675,1.124367 32.2538224,1.35596611 C31.7489698,1.58756522 31.3205463,1.90021934 30.968539,2.29393783 C30.6165317,2.68765632 30.3478986,3.14389973 30.1626315,3.66268174 C29.9773645,4.18146376 29.8847324,4.72802946 29.8847324,5.30239526 C29.8847324,5.87676106 29.9773645,6.42332677 30.1626315,6.94210879 C30.3478986,7.4608908 30.6165317,7.91481825 30.968539,8.30390476 C31.3205463,8.69299127 31.7489698,9.00332943 32.2538224,9.23492854 C32.758675,9.46652765 33.3260467,9.58232547 33.9559545,9.58232547 C34.5858623,9.58232547 35.153234,9.46652765 35.6580866,9.23492854 C36.1629392,9.00332943 36.5913627,8.69299127 36.94337,8.30390476 C37.2953773,7.91481825 37.5640104,7.4608908 37.7492775,6.94210879 C37.9345445,6.42332677 38.0271766,5.87676106 38.0271766,5.30239526 Z M42.1651716,10.2215358 L41.1647348,10.2215358 L41.1647348,0.3832547 L44.0548856,0.3832547 C44.5365798,0.3832547 44.9835298,0.429573828 45.3957489,0.522213473 C45.8079679,0.614853118 46.1646016,0.765390283 46.4656605,0.973829485 C46.7667193,1.18226869 47.0006154,1.45323558 47.1673557,1.78673831 C47.334096,2.12024103 47.4174649,2.52784935 47.4174649,3.00957551 C47.4174649,3.37087013 47.3526225,3.69973593 47.2229356,3.9961828 C47.0932487,4.29262966 46.9172476,4.54970082 46.6949272,4.76740399 C46.4726068,4.98510715 46.2086053,5.15880388 45.9029147,5.28849939 C45.5972242,5.41819489 45.2637486,5.50156932 44.9024779,5.53862518 L47.7787338,10.2215358 L46.5559777,10.2215358 L43.8325663,5.62200044 L42.1651716,5.62200044 L42.1651716,10.2215358 Z M42.1651716,4.76045605 L43.9020411,4.76045605 C44.7079526,4.76045605 45.3285877,4.6145508 45.7639652,4.32273591 C46.1993426,4.03092103 46.4170281,3.59320527 46.4170281,3.00957551 C46.4170281,2.68533675 46.3568172,2.4120539 46.2363937,2.18971875 C46.1159701,1.9673836 45.9492323,1.786739 45.7361753,1.64777953 C45.5231182,1.50882007 45.2637483,1.40691799 44.9580577,1.34207023 C44.6523672,1.27722248 44.31426,1.24479909 43.943726,1.24479909 L42.1651716,1.24479909 L42.1651716,4.76045605 Z M49.4156368,10.2215358 L48.3179353,10.2215358 L52.5697918,0.3832547 L53.5424387,0.3832547 L57.7665053,10.2215358 L56.6549088,10.2215358 L55.5711022,7.63690265 L50.4855484,7.63690265 L49.4156368,10.2215358 Z M50.8607122,6.71977475 L55.1959384,6.71977475 L53.0283253,1.49492488 L50.8607122,6.71977475 Z M59.2088789,0.3832547 L62.4741935,0.3832547 C63.0855746,0.3832547 63.6992624,0.485156781 64.3152752,0.688964 C64.9312879,0.89277122 65.4870806,1.20079342 65.9826699,1.61303984 C66.4782591,2.02528626 66.878893,2.53942858 67.1845835,3.15548222 C67.4902741,3.77153586 67.6431171,4.48716639 67.6431171,5.30239526 C67.6431171,6.12688811 67.4902741,6.84483459 67.1845835,7.45625625 C66.878893,8.0676779 66.4782591,8.57950427 65.9826699,8.99175069 C65.4870806,9.40399711 64.9312879,9.71201931 64.3152752,9.91582653 C63.6992624,10.1196337 63.0855746,10.2215358 62.4741935,10.2215358 L59.2088789,10.2215358 L59.2088789,0.3832547 Z M60.2093157,9.33219968 L62.1962944,9.33219968 C62.9373624,9.33219968 63.5834714,9.21640186 64.1346407,8.98480275 C64.6858101,8.75320364 65.1420232,8.44981335 65.5032939,8.07462279 C65.8645645,7.69943222 66.1355135,7.27098029 66.3161488,6.78925414 C66.4967841,6.30752798 66.5871004,5.81191331 66.5871004,5.30239526 C66.5871004,4.79287722 66.4967841,4.29726255 66.3161488,3.81553639 C66.1355135,3.33381024 65.8645645,2.90535831 65.5032939,2.53016774 C65.1420232,2.15497718 64.6858101,1.85158689 64.1346407,1.61998778 C63.5834714,1.38838867 62.9373624,1.27259085 62.1962944,1.27259085 L60.2093157,1.27259085 L60.2093157,9.33219968 Z M79.4511278,5.30239526 C79.4511278,6.05277639 79.3214428,6.74293139 79.062069,7.37288098 C78.8026952,8.00283057 78.4437458,8.54708032 77.9852099,9.00564656 C77.5266741,9.46421281 76.9847762,9.82318605 76.3595001,10.0825771 C75.734224,10.3419681 75.0556937,10.4716616 74.3238891,10.4716616 C73.5920844,10.4716616 72.9135542,10.3419681 72.288278,10.0825771 C71.6630019,9.82318605 71.121104,9.46421281 70.6625682,9.00564656 C70.2040324,8.54708032 69.8450829,8.00283057 69.5857091,7.37288098 C69.3263353,6.74293139 69.1966503,6.05277639 69.1966503,5.30239526 C69.1966503,4.55201414 69.3263353,3.86185913 69.5857091,3.23190955 C69.8450829,2.60195996 70.2040324,2.05771021 70.6625682,1.59914396 C71.121104,1.14057772 71.6630019,0.781604479 72.288278,0.522213473 C72.9135542,0.262822466 73.5920844,0.133128908 74.3238891,0.133128908 C75.0556937,0.133128908 75.734224,0.262822466 76.3595001,0.522213473 C76.9847762,0.781604479 77.5266741,1.14057772 77.9852099,1.59914396 C78.4437458,2.05771021 78.8026952,2.60195996 79.062069,3.23190955 C79.3214428,3.86185913 79.4511278,4.55201414 79.4511278,5.30239526 Z M78.3951111,5.30239526 C78.3951111,4.72802946 78.302479,4.18146376 78.117212,3.66268174 C77.931945,3.14389973 77.6633119,2.68765632 77.3113046,2.29393783 C76.9592973,1.90021934 76.5308737,1.58756522 76.0260212,1.35596611 C75.5211686,1.124367 74.9537969,1.00856918 74.3238891,1.00856918 C73.6939812,1.00856918 73.1266096,1.124367 72.621757,1.35596611 C72.1169044,1.58756522 71.6884809,1.90021934 71.3364735,2.29393783 C70.9844662,2.68765632 70.7158331,3.14389973 70.5305661,3.66268174 C70.3452991,4.18146376 70.252667,4.72802946 70.252667,5.30239526 C70.252667,5.87676106 70.3452991,6.42332677 70.5305661,6.94210879 C70.7158331,7.4608908 70.9844662,7.91481825 71.3364735,8.30390476 C71.6884809,8.69299127 72.1169044,9.00332943 72.621757,9.23492854 C73.1266096,9.46652765 73.6939812,9.58232547 74.3238891,9.58232547 C74.9537969,9.58232547 75.5211686,9.46652765 76.0260212,9.23492854 C76.5308737,9.00332943 76.9592973,8.69299127 77.3113046,8.30390476 C77.6633119,7.91481825 77.931945,7.4608908 78.117212,6.94210879 C78.302479,6.42332677 78.3951111,5.87676106 78.3951111,5.30239526 Z M93.2851002,8.63740582 C93.1183599,8.88753286 92.9168851,9.12376041 92.6806696,9.34609556 C92.4444542,9.56843071 92.1711895,9.76297104 91.8608672,9.9297224 C91.550545,10.0964738 91.2078062,10.2284833 90.8326405,10.3257549 C90.4574748,10.4230265 90.0475777,10.4716616 89.6029369,10.4716616 C88.8618689,10.4716616 88.1763913,10.3419681 87.5464834,10.0825771 C86.9165756,9.82318605 86.3746778,9.46421281 85.9207736,9.00564656 C85.4668695,8.54708032 85.1125516,8.00283057 84.8578095,7.37288098 C84.6030674,6.74293139 84.4756982,6.05277639 84.4756982,5.30239526 C84.4756982,4.55201414 84.6053832,3.86185913 84.864757,3.23190955 C85.1241308,2.60195996 85.4830802,2.05771021 85.941616,1.59914396 C86.4001519,1.14057772 86.9420497,0.781604479 87.5673259,0.522213473 C88.192602,0.262822466 88.8711322,0.133128908 89.6029369,0.133128908 C89.9642076,0.133128908 90.3185254,0.170184211 90.665901,0.244295927 C91.0132767,0.318407643 91.3398049,0.422625681 91.6454954,0.556953166 C91.951186,0.691280652 92.2290823,0.853397599 92.4791928,1.04330887 C92.7293032,1.23322014 92.9377255,1.44860409 93.1044658,1.68946717 L92.2707684,2.30088577 C92.1688716,2.14339837 92.0322392,1.98591334 91.8608672,1.82842594 C91.6894953,1.67093854 91.4880204,1.53198116 91.2564367,1.41154962 C91.0248529,1.29111808 90.7724304,1.19384791 90.4991616,1.1197362 C90.2258927,1.04562448 89.9317858,1.00856918 89.6168319,1.00856918 C88.9776607,1.00856918 88.4056574,1.124367 87.9008048,1.35596611 C87.3959522,1.58756522 86.9675287,1.90021934 86.6155214,2.29393783 C86.2635141,2.68765632 85.994881,3.14389973 85.809614,3.66268174 C85.624347,4.18146376 85.5317148,4.72802946 85.5317148,5.30239526 C85.5317148,5.87676106 85.6266628,6.42332677 85.8165614,6.94210879 C86.0064601,7.4608908 86.2774091,7.91713421 86.6294164,8.3108527 C86.9814237,8.70457119 87.4098472,9.0172253 87.9146998,9.24882442 C88.4195524,9.48042353 88.9869241,9.59622135 89.6168319,9.59622135 C90.1818962,9.59622135 90.7191625,9.48042353 91.2286468,9.24882442 C91.738131,9.0172253 92.1642387,8.64667228 92.5069827,8.13715423 L93.2851002,8.63740582 Z M95.005373,0.3832547 L96.0058098,0.3832547 L96.0058098,4.64928903 L101.369263,4.64928903 L101.369263,0.3832547 L102.3697,0.3832547 L102.3697,10.2215358 L101.369263,10.2215358 L101.369263,5.56641693 L96.0058098,5.56641693 L96.0058098,10.2215358 L95.005373,10.2215358 L95.005373,0.3832547 Z M104.909775,10.2215358 L103.812073,10.2215358 L108.06393,0.3832547 L109.036577,0.3832547 L113.260643,10.2215358 L112.149047,10.2215358 L111.06524,7.63690265 L105.979686,7.63690265 L104.909775,10.2215358 Z M106.35485,6.71977475 L110.690076,6.71977475 L108.522463,1.49492488 L106.35485,6.71977475 Z M114.703017,0.3832547 L117.482008,0.3832547 C117.982229,0.3832547 118.436126,0.436521697 118.843714,0.543057289 C119.251301,0.649592881 119.600987,0.811709828 119.892783,1.02941299 C120.184578,1.24711616 120.409211,1.52039901 120.566688,1.84926975 C120.724165,2.1781405 120.802902,2.56490521 120.802902,3.00957551 C120.802902,3.45424581 120.721849,3.84101052 120.559741,4.16988126 C120.397632,4.498752 120.170683,4.77203486 119.878888,4.98973802 C119.587092,5.20744119 119.23509,5.37187409 118.822871,5.48304167 C118.410652,5.59420924 117.954439,5.6497922 117.454218,5.6497922 L115.703454,5.6497922 L115.703454,10.2215358 L114.703017,10.2215358 L114.703017,0.3832547 Z M115.703454,4.80214368 L117.398638,4.80214368 C118.186023,4.80214368 118.7835,4.64929056 119.191088,4.34357973 C119.598675,4.0378689 119.802466,3.59320527 119.802466,3.00957551 C119.802466,2.39815385 119.591728,1.95117427 119.170245,1.66862335 C118.748763,1.38607243 118.158233,1.24479909 117.398638,1.24479909 L115.703454,1.24479909 L115.703454,4.80214368 Z M125.830175,10.2215358 L124.829738,10.2215358 L124.829738,1.27259085 L121.536633,1.27259085 L121.536633,0.3832547 L129.123279,0.3832547 L129.123279,1.27259085 L125.830175,1.27259085 L125.830175,10.2215358 Z M131.59388,9.33219968 L136.860068,9.33219968 L136.860068,10.2215358 L130.593443,10.2215358 L130.593443,0.3832547 L136.693328,0.3832547 L136.693328,1.27259085 L131.59388,1.27259085 L131.59388,4.66318491 L136.359849,4.66318491 L136.359849,5.53862518 L131.59388,5.53862518 L131.59388,9.33219968 Z M139.816992,10.2215358 L138.816555,10.2215358 L138.816555,0.3832547 L141.706706,0.3832547 C142.1884,0.3832547 142.63535,0.429573828 143.047569,0.522213473 C143.459788,0.614853118 143.816422,0.765390283 144.11748,0.973829485 C144.418539,1.18226869 144.652435,1.45323558 144.819176,1.78673831 C144.985916,2.12024103 145.069285,2.52784935 145.069285,3.00957551 C145.069285,3.37087013 145.004442,3.69973593 144.874756,3.9961828 C144.745069,4.29262966 144.569068,4.54970082 144.346747,4.76740399 C144.124427,4.98510715 143.860425,5.15880388 143.554735,5.28849939 C143.249044,5.41819489 142.915569,5.50156932 142.554298,5.53862518 L145.430554,10.2215358 L144.207798,10.2215358 L141.484386,5.62200044 L139.816992,5.62200044 L139.816992,10.2215358 Z M139.816992,4.76045605 L141.553861,4.76045605 C142.359773,4.76045605 142.980408,4.6145508 143.415785,4.32273591 C143.851163,4.03092103 144.068848,3.59320527 144.068848,3.00957551 C144.068848,2.68533675 144.008637,2.4120539 143.888214,2.18971875 C143.76779,1.9673836 143.601052,1.786739 143.387995,1.64777953 C143.174938,1.50882007 142.915568,1.40691799 142.609878,1.34207023 C142.304187,1.27722248 141.96608,1.24479909 141.595546,1.24479909 L139.816992,1.24479909 L139.816992,4.76045605 Z" id="COLORADO-CHAPTER"></path>
                <path d="M1.74706083,54.6111439 L0.649359319,54.6111439 L4.90121581,44.7728627 L5.87386272,44.7728627 L10.0979293,54.6111439 L8.98633284,54.6111439 L7.90252628,52.0265107 L2.81697243,52.0265107 L1.74706083,54.6111439 Z M3.19213624,51.1093828 L7.52736247,51.1093828 L5.35974936,45.8845329 L3.19213624,51.1093828 Z M11.5449346,44.7728627 L14.8102492,44.7728627 C15.4216303,44.7728627 16.0353181,44.8747648 16.6513309,45.078572 C17.2673436,45.2823793 17.8231363,45.5904015 18.3187256,46.0026479 C18.8143148,46.4148943 19.2149487,46.9290366 19.5206392,47.5450903 C19.8263298,48.1611439 19.9791728,48.8767744 19.9791728,49.6920033 C19.9791728,50.5164961 19.8263298,51.2344426 19.5206392,51.8458643 C19.2149487,52.4572859 18.8143148,52.9691123 18.3187256,53.3813587 C17.8231363,53.7936051 17.2673436,54.1016273 16.6513309,54.3054346 C16.0353181,54.5092418 15.4216303,54.6111439 14.8102492,54.6111439 L11.5449346,54.6111439 L11.5449346,44.7728627 Z M12.5453714,53.7218077 L14.5323501,53.7218077 C15.2734181,53.7218077 15.9195271,53.6060099 16.4706964,53.3744108 C17.0218658,53.1428117 17.4780789,52.8394214 17.8393496,52.4642308 C18.2006202,52.0890403 18.4715692,51.6605883 18.6522045,51.1788622 C18.8328398,50.697136 18.9231561,50.2015214 18.9231561,49.6920033 C18.9231561,49.1824853 18.8328398,48.6868706 18.6522045,48.2051444 C18.4715692,47.7234183 18.2006202,47.2949663 17.8393496,46.9197758 C17.4780789,46.5445852 17.0218658,46.2411949 16.4706964,46.0095958 C15.9195271,45.7779967 15.2734181,45.6621989 14.5323501,45.6621989 L12.5453714,45.6621989 L12.5453714,53.7218077 Z M24.913812,53.3188273 L24.9416019,53.3188273 L28.1374417,44.7728627 L29.2073533,44.7728627 L25.4418203,54.6111439 L24.3858036,54.6111439 L20.6341656,44.7728627 L21.7179721,44.7728627 L24.913812,53.3188273 Z M30.0707705,54.6111439 L28.9730689,54.6111439 L33.2249254,44.7728627 L34.1975723,44.7728627 L38.4216389,54.6111439 L37.3100425,54.6111439 L36.2262359,52.0265107 L31.1406821,52.0265107 L30.0707705,54.6111439 Z M31.5158459,51.1093828 L35.8510721,51.1093828 L33.683459,45.8845329 L31.5158459,51.1093828 Z M46.843912,53.1520768 L46.8717019,53.1520768 L46.8717019,44.7728627 L47.8721388,44.7728627 L47.8721388,54.6111439 L46.6215927,54.6111439 L40.8968709,46.1485546 L40.869081,46.1485546 L40.869081,54.6111439 L39.8686442,54.6111439 L39.8686442,44.7728627 L41.1191902,44.7728627 L46.843912,53.1520768 Z M58.767714,53.0270139 C58.6009737,53.2771409 58.3994989,53.5133685 58.1632834,53.7357036 C57.927068,53.9580387 57.6538033,54.1525791 57.343481,54.3193304 C57.0331588,54.4860818 56.69042,54.6180913 56.3152543,54.7153629 C55.9400886,54.8126346 55.5301915,54.8612697 55.0855507,54.8612697 C54.3444827,54.8612697 53.6590051,54.7315761 53.0290973,54.4721851 C52.3991894,54.2127941 51.8572916,53.8538208 51.4033874,53.3952546 C50.9494833,52.9366884 50.5951654,52.3924386 50.3404233,51.762489 C50.0856812,51.1325394 49.958312,50.4423844 49.958312,49.6920033 C49.958312,48.9416222 50.087997,48.2514672 50.3473708,47.6215176 C50.6067446,46.991568 50.965694,46.4473182 51.4242298,45.988752 C51.8827657,45.5301858 52.4246635,45.1712125 53.0499397,44.9118215 C53.6752158,44.6524305 54.3537461,44.5227369 55.0855507,44.5227369 C55.4468214,44.5227369 55.8011392,44.5597923 56.1485148,44.633904 C56.4958905,44.7080157 56.8224187,44.8122337 57.1281092,44.9465612 C57.4337998,45.0808887 57.7116961,45.2430056 57.9618066,45.4329169 C58.211917,45.6228282 58.4203393,45.8382121 58.5870796,46.0790752 L57.7533822,46.6904938 C57.6514854,46.5330064 57.514853,46.3755214 57.343481,46.218034 C57.1721091,46.0605466 56.9706342,45.9215892 56.7390505,45.8011577 C56.5074667,45.6807261 56.2550442,45.583456 55.9817754,45.5093442 C55.7085065,45.4352325 55.4143996,45.3981772 55.0994457,45.3981772 C54.4602745,45.3981772 53.8882712,45.513975 53.3834186,45.7455742 C52.878566,45.9771733 52.4501425,46.2898274 52.0981352,46.6835459 C51.7461279,47.0772644 51.4774948,47.5335078 51.2922278,48.0522898 C51.1069608,48.5710718 51.0143287,49.1176375 51.0143287,49.6920033 C51.0143287,50.2663691 51.1092766,50.8129348 51.2991752,51.3317168 C51.4890739,51.8504988 51.7600229,52.3067422 52.1120302,52.7004607 C52.4640375,53.0941792 52.892461,53.4068333 53.3973136,53.6384325 C53.9021662,53.8700316 54.4695379,53.9858294 55.0994457,53.9858294 C55.66451,53.9858294 56.2017763,53.8700316 56.7112606,53.6384325 C57.2207448,53.4068333 57.6468525,53.0362803 57.9895965,52.5267623 L58.767714,53.0270139 Z M61.4930552,54.6111439 L60.4926184,54.6111439 L60.4926184,44.7728627 L61.4930552,44.7728627 L61.4930552,54.6111439 Z M71.0825046,53.1520768 L71.1102945,53.1520768 L71.1102945,44.7728627 L72.1107314,44.7728627 L72.1107314,54.6111439 L70.8601853,54.6111439 L65.1354635,46.1485546 L65.1076736,46.1485546 L65.1076736,54.6111439 L64.1072368,54.6111439 L64.1072368,44.7728627 L65.3577828,44.7728627 L71.0825046,53.1520768 Z M82.1865042,46.5376392 C81.8437603,46.1763445 81.436179,45.8961138 80.9637481,45.6969386 C80.4913172,45.4977633 79.9494194,45.3981772 79.3380383,45.3981772 C78.7081305,45.3981772 78.1407588,45.513975 77.6359062,45.7455742 C77.1310536,45.9771733 76.7026301,46.2898274 76.3506228,46.6835459 C75.9986155,47.0772644 75.7276665,47.5335078 75.5377678,48.0522898 C75.3478692,48.5710718 75.2529212,49.1176375 75.2529212,49.6920033 C75.2529212,50.2663691 75.3478692,50.8129348 75.5377678,51.3317168 C75.7276665,51.8504988 75.9986155,52.3044263 76.3506228,52.6935128 C76.7026301,53.0825993 77.1310536,53.3929375 77.6359062,53.6245366 C78.1407588,53.8561357 78.7081305,53.9719335 79.3380383,53.9719335 C79.8938393,53.9719335 80.4033159,53.9117186 80.8664834,53.7912871 C81.3296509,53.6708556 81.704811,53.5180024 81.9919748,53.3327232 L81.9919748,50.3451095 L79.6993071,50.3451095 L79.6993071,49.4696693 L82.9924117,49.4696693 L82.9924117,53.9024541 C82.4551374,54.2266929 81.8761866,54.4675524 81.2555422,54.6250397 C80.6348977,54.7825271 79.9911045,54.8612697 79.3241433,54.8612697 C78.5830753,54.8612697 77.8975977,54.7315761 77.2676898,54.4721851 C76.637782,54.2127941 76.0958842,53.8538208 75.64198,53.3952546 C75.1880758,52.9366884 74.833758,52.3924386 74.5790159,51.762489 C74.3242738,51.1325394 74.1969046,50.4423844 74.1969046,49.6920033 C74.1969046,48.9416222 74.3265896,48.2514672 74.5859634,47.6215176 C74.8453372,46.991568 75.2042866,46.4473182 75.6628224,45.988752 C76.1213583,45.5301858 76.6632561,45.1712125 77.2885323,44.9118215 C77.9138084,44.6524305 78.5923386,44.5227369 79.3241433,44.5227369 C80.1115281,44.5227369 80.7970057,44.6385348 81.3805968,44.8701339 C81.9641878,45.101733 82.4644013,45.4259669 82.881252,45.8428453 L82.1865042,46.5376392 Z M90.027119,53.7218077 L95.2933073,53.7218077 L95.2933073,54.6111439 L89.0266822,54.6111439 L89.0266822,44.7728627 L95.1265678,44.7728627 L95.1265678,45.6621989 L90.027119,45.6621989 L90.027119,49.0527929 L94.7930889,49.0527929 L94.7930889,49.9282332 L90.027119,49.9282332 L90.027119,53.7218077 Z M102.11766,52.9158468 L102.131555,52.9158468 L105.42466,44.7728627 L106.953105,44.7728627 L106.953105,54.6111439 L105.952668,54.6111439 L105.952668,46.0651793 L105.924878,46.0651793 L102.36777,54.6111439 L101.839761,54.6111439 L98.2826527,46.0651793 L98.2548628,46.0651793 L98.2548628,54.6111439 L97.2544259,54.6111439 L97.2544259,44.7728627 L98.7828711,44.7728627 L102.11766,52.9158468 Z M110.567724,53.7218077 L115.833912,53.7218077 L115.833912,54.6111439 L109.567287,54.6111439 L109.567287,44.7728627 L115.667172,44.7728627 L115.667172,45.6621989 L110.567724,45.6621989 L110.567724,49.0527929 L115.333693,49.0527929 L115.333693,49.9282332 L110.567724,49.9282332 L110.567724,53.7218077 Z M118.795467,54.6111439 L117.79503,54.6111439 L117.79503,44.7728627 L120.685181,44.7728627 C121.166875,44.7728627 121.613825,44.8191819 122.026044,44.9118215 C122.438264,45.0044612 122.794897,45.1549983 123.095956,45.3634375 C123.397015,45.5718767 123.630911,45.8428436 123.797651,46.1763463 C123.964392,46.5098491 124.047761,46.9174574 124.047761,47.3991836 C124.047761,47.7604782 123.982918,48.089344 123.853231,48.3857908 C123.723544,48.6822377 123.547543,48.9393089 123.325223,49.157012 C123.102902,49.3747152 122.838901,49.5484119 122.53321,49.6781074 C122.22752,49.8078029 121.894044,49.8911774 121.532774,49.9282332 L124.409029,54.6111439 L123.186273,54.6111439 L120.462862,50.0116085 L118.795467,50.0116085 L118.795467,54.6111439 Z M118.795467,49.1500641 L120.532337,49.1500641 C121.338248,49.1500641 121.958883,49.0041588 122.394261,48.712344 C122.829638,48.4205291 123.047324,47.9828133 123.047324,47.3991836 C123.047324,47.0749448 122.987113,46.8016619 122.866689,46.5793268 C122.746266,46.3569916 122.579528,46.176347 122.366471,46.0373876 C122.153414,45.8984281 121.894044,45.796526 121.588353,45.7316783 C121.282663,45.6668305 120.944556,45.6344071 120.574022,45.6344071 L118.795467,45.6344071 L118.795467,49.1500641 Z M133.58163,46.5376392 C133.238886,46.1763445 132.831305,45.8961138 132.358874,45.6969386 C131.886443,45.4977633 131.344545,45.3981772 130.733164,45.3981772 C130.103256,45.3981772 129.535885,45.513975 129.031032,45.7455742 C128.52618,45.9771733 128.097756,46.2898274 127.745749,46.6835459 C127.393741,47.0772644 127.122792,47.5335078 126.932894,48.0522898 C126.742995,48.5710718 126.648047,49.1176375 126.648047,49.6920033 C126.648047,50.2663691 126.742995,50.8129348 126.932894,51.3317168 C127.122792,51.8504988 127.393741,52.3044263 127.745749,52.6935128 C128.097756,53.0825993 128.52618,53.3929375 129.031032,53.6245366 C129.535885,53.8561357 130.103256,53.9719335 130.733164,53.9719335 C131.288965,53.9719335 131.798442,53.9117186 132.261609,53.7912871 C132.724777,53.6708556 133.099937,53.5180024 133.387101,53.3327232 L133.387101,50.3451095 L131.094433,50.3451095 L131.094433,49.4696693 L134.387538,49.4696693 L134.387538,53.9024541 C133.850263,54.2266929 133.271313,54.4675524 132.650668,54.6250397 C132.030024,54.7825271 131.38623,54.8612697 130.719269,54.8612697 C129.978201,54.8612697 129.292724,54.7315761 128.662816,54.4721851 C128.032908,54.2127941 127.49101,53.8538208 127.037106,53.3952546 C126.583202,52.9366884 126.228884,52.3924386 125.974142,51.762489 C125.7194,51.1325394 125.592031,50.4423844 125.592031,49.6920033 C125.592031,48.9416222 125.721715,48.2514672 125.981089,47.6215176 C126.240463,46.991568 126.599413,46.4473182 127.057948,45.988752 C127.516484,45.5301858 128.058382,45.1712125 128.683658,44.9118215 C129.308934,44.6524305 129.987465,44.5227369 130.719269,44.5227369 C131.506654,44.5227369 132.192132,44.6385348 132.775723,44.8701339 C133.359314,45.101733 133.859527,45.4259669 134.276378,45.8428453 L133.58163,46.5376392 Z M137.946576,53.7218077 L143.212764,53.7218077 L143.212764,54.6111439 L136.946139,54.6111439 L136.946139,44.7728627 L143.046025,44.7728627 L143.046025,45.6621989 L137.946576,45.6621989 L137.946576,49.0527929 L142.712546,49.0527929 L142.712546,49.9282332 L137.946576,49.9282332 L137.946576,53.7218077 Z M152.149151,53.1520768 L152.176941,53.1520768 L152.176941,44.7728627 L153.177378,44.7728627 L153.177378,54.6111439 L151.926832,54.6111439 L146.20211,46.1485546 L146.17432,46.1485546 L146.17432,54.6111439 L145.173883,54.6111439 L145.173883,44.7728627 L146.424429,44.7728627 L152.149151,53.1520768 Z M164.072953,53.0270139 C163.906213,53.2771409 163.704738,53.5133685 163.468522,53.7357036 C163.232307,53.9580387 162.959042,54.1525791 162.64872,54.3193304 C162.338398,54.4860818 161.995659,54.6180913 161.620493,54.7153629 C161.245327,54.8126346 160.83543,54.8612697 160.39079,54.8612697 C159.649722,54.8612697 158.964244,54.7315761 158.334336,54.4721851 C157.704428,54.2127941 157.16253,53.8538208 156.708626,53.3952546 C156.254722,52.9366884 155.900404,52.3924386 155.645662,51.762489 C155.39092,51.1325394 155.263551,50.4423844 155.263551,49.6920033 C155.263551,48.9416222 155.393236,48.2514672 155.65261,47.6215176 C155.911983,46.991568 156.270933,46.4473182 156.729469,45.988752 C157.188005,45.5301858 157.729902,45.1712125 158.355179,44.9118215 C158.980455,44.6524305 159.658985,44.5227369 160.39079,44.5227369 C160.75206,44.5227369 161.106378,44.5597923 161.453754,44.633904 C161.801129,44.7080157 162.127658,44.8122337 162.433348,44.9465612 C162.739039,45.0808887 163.016935,45.2430056 163.267045,45.4329169 C163.517156,45.6228282 163.725578,45.8382121 163.892318,46.0790752 L163.058621,46.6904938 C162.956724,46.5330064 162.820092,46.3755214 162.64872,46.218034 C162.477348,46.0605466 162.275873,45.9215892 162.044289,45.8011577 C161.812706,45.6807261 161.560283,45.583456 161.287014,45.5093442 C161.013745,45.4352325 160.719638,45.3981772 160.404685,45.3981772 C159.765513,45.3981772 159.19351,45.513975 158.688657,45.7455742 C158.183805,45.9771733 157.755381,46.2898274 157.403374,46.6835459 C157.051367,47.0772644 156.782734,47.5335078 156.597467,48.0522898 C156.4122,48.5710718 156.319568,49.1176375 156.319568,49.6920033 C156.319568,50.2663691 156.414515,50.8129348 156.604414,51.3317168 C156.794313,51.8504988 157.065262,52.3067422 157.417269,52.7004607 C157.769276,53.0941792 158.1977,53.4068333 158.702552,53.6384325 C159.207405,53.8700316 159.774777,53.9858294 160.404685,53.9858294 C160.969749,53.9858294 161.507015,53.8700316 162.016499,53.6384325 C162.525984,53.4068333 162.952091,53.0362803 163.294835,52.5267623 L164.072953,53.0270139 Z M169.007592,54.6111439 L168.007155,54.6111439 L168.007155,50.3729013 L164.324992,44.7728627 L165.575538,44.7728627 L168.535164,49.5391487 L171.522579,44.7728627 L172.689755,44.7728627 L169.007592,50.3729013 L169.007592,54.6111439 Z M185.421395,53.0270139 C185.254654,53.2771409 185.05318,53.5133685 184.816964,53.7357036 C184.580749,53.9580387 184.307484,54.1525791 183.997162,54.3193304 C183.686839,54.4860818 183.344101,54.6180913 182.968935,54.7153629 C182.593769,54.8126346 182.183872,54.8612697 181.739231,54.8612697 C180.998163,54.8612697 180.312686,54.7315761 179.682778,54.4721851 C179.05287,54.2127941 178.510972,53.8538208 178.057068,53.3952546 C177.603164,52.9366884 177.248846,52.3924386 176.994104,51.762489 C176.739362,51.1325394 176.611993,50.4423844 176.611993,49.6920033 C176.611993,48.9416222 176.741678,48.2514672 177.001051,47.6215176 C177.260425,46.991568 177.619375,46.4473182 178.07791,45.988752 C178.536446,45.5301858 179.078344,45.1712125 179.70362,44.9118215 C180.328896,44.6524305 181.007427,44.5227369 181.739231,44.5227369 C182.100502,44.5227369 182.45482,44.5597923 182.802195,44.633904 C183.149571,44.7080157 183.476099,44.8122337 183.78179,44.9465612 C184.08748,45.0808887 184.365377,45.2430056 184.615487,45.4329169 C184.865598,45.6228282 185.07402,45.8382121 185.24076,46.0790752 L184.407063,46.6904938 C184.305166,46.5330064 184.168534,46.3755214 183.997162,46.218034 C183.82579,46.0605466 183.624315,45.9215892 183.392731,45.8011577 C183.161147,45.6807261 182.908725,45.583456 182.635456,45.5093442 C182.362187,45.4352325 182.06808,45.3981772 181.753126,45.3981772 C181.113955,45.3981772 180.541952,45.513975 180.037099,45.7455742 C179.532247,45.9771733 179.103823,46.2898274 178.751816,46.6835459 C178.399809,47.0772644 178.131175,47.5335078 177.945908,48.0522898 C177.760641,48.5710718 177.668009,49.1176375 177.668009,49.6920033 C177.668009,50.2663691 177.762957,50.8129348 177.952856,51.3317168 C178.142755,51.8504988 178.413703,52.3067422 178.765711,52.7004607 C179.117718,53.0941792 179.546142,53.4068333 180.050994,53.6384325 C180.555847,53.8700316 181.123218,53.9858294 181.753126,53.9858294 C182.318191,53.9858294 182.855457,53.8700316 183.364941,53.6384325 C183.874425,53.4068333 184.300533,53.0362803 184.643277,52.5267623 L185.421395,53.0270139 Z M186.910085,54.6111439 L185.812383,54.6111439 L190.06424,44.7728627 L191.036887,44.7728627 L195.260953,54.6111439 L194.149357,54.6111439 L193.06555,52.0265107 L187.979996,52.0265107 L186.910085,54.6111439 Z M188.35516,51.1093828 L192.690386,51.1093828 L190.522773,45.8845329 L188.35516,51.1093828 Z M197.708395,54.6111439 L196.707959,54.6111439 L196.707959,44.7728627 L199.598109,44.7728627 C200.079804,44.7728627 200.526754,44.8191819 200.938973,44.9118215 C201.351192,45.0044612 201.707825,45.1549983 202.008884,45.3634375 C202.309943,45.5718767 202.543839,45.8428436 202.710579,46.1763463 C202.87732,46.5098491 202.960689,46.9174574 202.960689,47.3991836 C202.960689,47.7604782 202.895846,48.089344 202.766159,48.3857908 C202.636472,48.6822377 202.460471,48.9393089 202.238151,49.157012 C202.015831,49.3747152 201.751829,49.5484119 201.446138,49.6781074 C201.140448,49.8078029 200.806972,49.8911774 200.445702,49.9282332 L203.321958,54.6111439 L202.099201,54.6111439 L199.37579,50.0116085 L197.708395,50.0116085 L197.708395,54.6111439 Z M197.708395,49.1500641 L199.445265,49.1500641 C200.251176,49.1500641 200.871811,49.0041588 201.307189,48.712344 C201.742566,48.4205291 201.960252,47.9828133 201.960252,47.3991836 C201.960252,47.0749448 201.900041,46.8016619 201.779617,46.5793268 C201.659194,46.3569916 201.492456,46.176347 201.279399,46.0373876 C201.066342,45.8984281 200.806972,45.796526 200.501281,45.7316783 C200.195591,45.6668305 199.857484,45.6344071 199.48695,45.6344071 L197.708395,45.6344071 L197.708395,49.1500641 Z M206.033404,53.7218077 L211.299592,53.7218077 L211.299592,54.6111439 L205.032967,54.6111439 L205.032967,44.7728627 L211.132853,44.7728627 L211.132853,45.6621989 L206.033404,45.6621989 L206.033404,49.0527929 L210.799374,49.0527929 L210.799374,49.9282332 L206.033404,49.9282332 L206.033404,53.7218077 Z" id="ADVANCING-EMERGENCY-CARE"></path>
            </g>
        </g>
    </g>
</svg>