<?xml version="1.0" encoding="UTF-8"?>
<svg width="1356px" height="350px" viewBox="0 0 1356 350" version="1.1" xmlns="http://www.w3.org/2000/svg" xmlns:xlink="http://www.w3.org/1999/xlink">
    <!-- Generator: Sketch 41.2 (35397) - http://www.bohemiancoding.com/sketch -->
    <title>logo__dark-bg</title>
    <desc>Created with Sketch.</desc>
    <defs>
        <path d="M174.614,350 C191.321,350 231.527,345.19649 259.642,328.49652 C296.933,306.3459 323.073,269.7892 323.073,269.7892 L308.36,224.6438 L283.167,196.2702 L254.55,214.375 C254.55,214.375 260.791,183.3064 259.642,165.7745 C258.493,148.2425 248.861,128.2719 248.861,128.2719 L321.142,77.2283 C321.142,77.2283 296.867,45.4676 259.642,23.5394 C233.194,7.9596 196.244,0 174.614,0 C78.461,0 0.514,78.3502 0.514,175 C0.514,271.6498 78.461,350 174.614,350 Z" id="path-1"></path>
        <path d="M88.642,176.7826 C137.137,176.7826 176.449,137.2669 176.449,88.5217 C176.449,39.7766 137.137,0.2609 88.642,0.2609 C40.148,0.2609 0.835,39.7766 0.835,88.5217 C0.835,137.2669 40.148,176.7826 88.642,176.7826 Z" id="path-3"></path>
        <path d="M0.759,127.9392 L33.104,79.6656 L43.264,92.1932 L107.13,21.3877 L115.249,30.2477 L149.832031,0.388671875 L218.685547,59.8779297 L247.298828,43.3701172 L271.981,69.694 L287.629,115.0995 C287.629,115.0995 247.492,192.153147 144.194,196.779297 C40.896,201.405447 0.759,127.9392 0.759,127.9392 Z" id="path-5"></path>
        <path d="M80.3803711,0.0556640625 L71.873,29.1371 L69.277,37.0014 L69.277,60.3328 L21.544,86.9662 L0.033,151.49151 C0.033,151.49151 26.5060625,153.734163 65.5390625,128.592773 C104.571063,103.451373 121.506348,74.3110352 121.506348,74.3110352 L108.027,28.8815 L80.3803711,0.0556640625 Z" id="path-7"></path>
        <polygon id="path-9" points="23.25 0.0745 0.636 83.0063 12.173 91.3996 3.066 110.8969 2.309 148.3311 45.107 81.2289 92.1757812 60.2841797"></polygon>
    </defs>
    <g id="Page-1" stroke="none" stroke-width="1" fill="none" fill-rule="evenodd">
        <g id="logo__dark-bg">
            <g id="Group-72">
                <mask id="mask-2" fill="white">
                    <use xlink:href="#path-1"></use>
                </mask>
                <g id="Clip-71"></g>
                <polygon id="Fill-70" fill="#BF2C34" mask="url(#mask-2)" points="-4.486 -5 328.073 -5 328.073 355 -4.486 355"></polygon>
            </g>
            <g id="Group-75" transform="translate(89.000000, 88.000000)">
                <mask id="mask-4" fill="white">
                    <use xlink:href="#path-3"></use>
                </mask>
                <g id="Clip-74"></g>
                <polygon id="Fill-73" fill="#F6D047" mask="url(#mask-4)" points="-4.165 -4.7391 181.449 -4.7391 181.449 181.7826 -4.165 181.7826"></polygon>
            </g>
            <g id="Group-78" transform="translate(36.000000, 153.000000)">
                <mask id="mask-6" fill="white">
                    <use xlink:href="#path-5"></use>
                </mask>
                <g id="Clip-77"></g>
                <polygon id="Fill-76" fill="#0F2679" mask="url(#mask-6)" points="-4.241 -6.471 292.629 -6.471 292.629 201.82373 -4.241 201.82373"></polygon>
            </g>
            <g id="Group-81" transform="translate(203.000000, 196.000000)">
                <mask id="mask-8" fill="white">
                    <use xlink:href="#path-7"></use>
                </mask>
                <g id="Clip-80"></g>
                <polygon id="Fill-79" fill="#FFFFFF" mask="url(#mask-8)" points="-4.967 -4.4817 125.91 -4.4817 125.91 156.50438 -4.967 156.50438"></polygon>
            </g>
            <g id="Group-84" transform="translate(163.000000, 153.000000)">
                <mask id="mask-10" fill="white">
                    <use xlink:href="#path-9"></use>
                </mask>
                <g id="Clip-83"></g>
                <polygon id="Fill-82" fill="#FFFFFF" mask="url(#mask-10)" points="-4.364 -4.9255 98.165 -4.9255 98.165 153.3311 -4.364 153.3311"></polygon>
            </g>
            <g id="Group-88" transform="translate(352.000000, 80.000000)" fill="#FFFFFF">
                <path d="M27.544,83.4321289 L24.904,76.7601289 L11.752,76.7601289 L9.256,83.4321289 L0.328,83.4321289 L14.584,49.4481289 L22.552,49.4481289 L36.664,83.4321289 L27.544,83.4321289 Z M18.424,58.5201289 L14.104,70.1841289 L22.648,70.1841289 L18.424,58.5201289 Z M69.597,83.4321289 L69.597,70.3761289 C69.597,69.7041255 69.5490005,69.056132 69.453,68.4321289 C69.3569995,67.8081258 69.1810013,67.2721311 68.925,66.8241289 C68.6689987,66.3761267 68.3250022,66.0161303 67.893,65.7441289 C67.4609978,65.4721275 66.8930035,65.3361289 66.189,65.3361289 C65.5169966,65.3361289 64.9330025,65.4801275 64.437,65.7681289 C63.9409975,66.0561303 63.5250017,66.4401265 63.189,66.9201289 C62.8529983,67.4001313 62.6050008,67.9521258 62.445,68.5761289 C62.2849992,69.200132 62.205,69.8481255 62.205,70.5201289 L62.205,83.4321289 L54.333,83.4321289 L54.333,69.8001289 C54.333,68.424122 54.0610027,67.3361329 53.517,66.5361289 C52.9729973,65.7361249 52.1090059,65.3361289 50.925,65.3361289 C49.6769938,65.3361289 48.7090034,65.8321239 48.021,66.8241289 C47.3329966,67.8161339 46.989,69.0321217 46.989,70.4721289 L46.989,83.4321289 L39.069,83.4321289 L39.069,59.5281289 L46.701,59.5281289 L46.701,62.8401289 L46.797,62.8401289 C47.0850014,62.3281263 47.4449978,61.8321313 47.877,61.3521289 C48.3090022,60.8721265 48.828997,60.4481307 49.437,60.0801289 C50.045003,59.7121271 50.7249962,59.41613 51.477,59.1921289 C52.2290038,58.9681278 53.0529955,58.8561289 53.949,58.8561289 C55.6770086,58.8561289 57.140994,59.2081254 58.341,59.9121289 C59.541006,60.6161324 60.4769966,61.6241223 61.149,62.9361289 C61.949004,61.6881227 62.9729938,60.6961326 64.221,59.9601289 C65.4690062,59.2241252 66.988991,58.8561289 68.781,58.8561289 C70.4130082,58.8561289 71.7809945,59.1521259 72.885,59.7441289 C73.9890055,60.3361319 74.8769966,61.1041242 75.549,62.0481289 C76.2210034,62.9921336 76.7089985,64.0481231 77.013,65.2161289 C77.3170015,66.3841347 77.469,67.5281233 77.469,68.6481289 L77.469,83.4321289 L69.597,83.4321289 Z M99.89,68.7441289 C99.89,67.4961227 99.4980039,66.4241334 98.714,65.5281289 C97.9299961,64.6321244 96.7540078,64.1841289 95.186,64.1841289 C94.4179962,64.1841289 93.7140032,64.3041277 93.074,64.5441289 C92.4339968,64.7841301 91.8740024,65.1121268 91.394,65.5281289 C90.9139976,65.944131 90.5300014,66.4321261 90.242,66.9921289 C89.9539986,67.5521317 89.7940002,68.1361259 89.762,68.7441289 L99.89,68.7441289 Z M107.138,71.7681289 L107.138,72.7281289 C107.138,73.0481305 107.122,73.3521275 107.09,73.6401289 L89.762,73.6401289 C89.8260003,74.3121323 90.0259983,74.9201262 90.362,75.4641289 C90.6980017,76.0081316 91.1299974,76.4801269 91.658,76.8801289 C92.1860026,77.2801309 92.7779967,77.5921278 93.434,77.8161289 C94.0900033,78.04013 94.7699965,78.1521289 95.474,78.1521289 C96.7220062,78.1521289 97.7779957,77.9201312 98.642,77.4561289 C99.5060043,76.9921266 100.209997,76.3921326 100.754,75.6561289 L106.226,79.1121289 C105.105994,80.7441371 103.626009,82.0001245 101.786,82.8801289 C99.9459908,83.7601333 97.8100122,84.2001289 95.378,84.2001289 C93.585991,84.2001289 91.890008,83.9201317 90.29,83.3601289 C88.689992,82.8001261 87.290006,81.9841343 86.09,80.9121289 C84.889994,79.8401235 83.9460034,78.5201367 83.258,76.9521289 C82.5699966,75.3841211 82.226,73.592139 82.226,71.5761289 C82.226,69.6241191 82.5619966,67.8561368 83.234,66.2721289 C83.9060034,64.688121 84.8179942,63.3441344 85.97,62.2401289 C87.1220058,61.1361234 88.4819922,60.2801319 90.05,59.6721289 C91.6180078,59.0641259 93.3139909,58.7601289 95.138,58.7601289 C96.8980088,58.7601289 98.5139926,59.0561259 99.986,59.6481289 C101.458007,60.2401319 102.721995,61.0961233 103.778,62.2161289 C104.834005,63.3361345 105.657997,64.6961209 106.25,66.2961289 C106.842003,67.8961369 107.138,69.7201187 107.138,71.7681289 Z M127.543,65.9601289 C127.190998,65.8641284 126.847002,65.8001291 126.511,65.7681289 C126.174998,65.7361287 125.847002,65.7201289 125.527,65.7201289 C124.470995,65.7201289 123.583004,65.912127 122.863,66.2961289 C122.142996,66.6801308 121.567002,67.1441262 121.135,67.6881289 C120.702998,68.2321316 120.391001,68.8241257 120.199,69.4641289 C120.006999,70.1041321 119.911,70.6641265 119.911,71.1441289 L119.911,83.4321289 L112.039,83.4321289 L112.039,59.5281289 L119.623,59.5281289 L119.623,62.9841289 L119.719,62.9841289 C120.327003,61.7681228 121.190994,60.7761327 122.311,60.0081289 C123.431006,59.2401251 124.726993,58.8561289 126.199,58.8561289 C126.519002,58.8561289 126.830998,58.8721287 127.135,58.9041289 C127.439002,58.9361291 127.686999,58.9841286 127.879,59.0481289 L127.543,65.9601289 Z M139.596,51.8961289 C139.596,52.5041319 139.476001,53.0721263 139.236,53.6001289 C138.995999,54.1281315 138.676002,54.584127 138.276,54.9681289 C137.875998,55.3521308 137.396003,55.6561278 136.836,55.8801289 C136.275997,56.10413 135.692003,56.2161289 135.084,56.2161289 C133.803994,56.2161289 132.732004,55.7921331 131.868,54.9441289 C131.003996,54.0961247 130.572,53.0801348 130.572,51.8961289 C130.572,51.320126 130.683999,50.7681315 130.908,50.2401289 C131.132001,49.7121263 131.451998,49.2561308 131.868,48.8721289 C132.284002,48.488127 132.763997,48.1761301 133.308,47.9361289 C133.852003,47.6961277 134.443997,47.5761289 135.084,47.5761289 C135.692003,47.5761289 136.275997,47.6881278 136.836,47.9121289 C137.396003,48.13613 137.875998,48.440127 138.276,48.8241289 C138.676002,49.2081308 138.995999,49.6641263 139.236,50.1921289 C139.476001,50.7201315 139.596,51.2881259 139.596,51.8961289 Z M131.148,83.4321289 L131.148,59.5281289 L139.02,59.5281289 L139.02,83.4321289 L131.148,83.4321289 Z M161.729,67.2561289 C161.280998,66.680126 160.673004,66.2161307 159.905,65.8641289 C159.136996,65.5121271 158.353004,65.3361289 157.553,65.3361289 C156.720996,65.3361289 155.969003,65.5041272 155.297,65.8401289 C154.624997,66.1761306 154.049002,66.6241261 153.569,67.1841289 C153.088998,67.7441317 152.713001,68.3921252 152.441,69.1281289 C152.168999,69.8641326 152.033,70.6481247 152.033,71.4801289 C152.033,72.3121331 152.160999,73.0961252 152.417,73.8321289 C152.673001,74.5681326 153.048998,75.2161261 153.545,75.7761289 C154.041002,76.3361317 154.632997,76.7761273 155.321,77.0961289 C156.009003,77.4161305 156.784996,77.5761289 157.649,77.5761289 C158.449004,77.5761289 159.240996,77.4241304 160.025,77.1201289 C160.809004,76.8161274 161.440998,76.3761318 161.921,75.8001289 L166.289,81.1281289 C165.296995,82.0881337 164.017008,82.8401262 162.449,83.3841289 C160.880992,83.9281316 159.217009,84.2001289 157.457,84.2001289 C155.568991,84.2001289 153.809008,83.9121318 152.177,83.3361289 C150.544992,82.760126 149.129006,81.9201344 147.929,80.8161289 C146.728994,79.7121234 145.785003,78.3761367 145.097,76.8081289 C144.408997,75.2401211 144.065,73.4641388 144.065,71.4801289 C144.065,69.5281191 144.408997,67.7681367 145.097,66.2001289 C145.785003,64.6321211 146.728994,63.2961344 147.929,62.1921289 C149.129006,61.0881234 150.544992,60.2401319 152.177,59.6481289 C153.809008,59.0561259 155.552991,58.7601289 157.409,58.7601289 C158.273004,58.7601289 159.128996,58.8401281 159.977,59.0001289 C160.825004,59.1601297 161.640996,59.3761275 162.425,59.6481289 C163.209004,59.9201303 163.928997,60.2561269 164.585,60.6561289 C165.241003,61.0561309 165.808998,61.4961265 166.289,61.9761289 L161.729,67.2561289 Z M183.526,73.0161289 L182.518,73.0161289 C181.653996,73.0161289 180.782004,73.0561285 179.902,73.1361289 C179.021996,73.2161293 178.238003,73.3681278 177.55,73.5921289 C176.861997,73.81613 176.294002,74.1441267 175.846,74.5761289 C175.397998,75.0081311 175.174,75.5761254 175.174,76.2801289 C175.174,76.7281311 175.277999,77.1121273 175.486,77.4321289 C175.694001,77.7521305 175.957998,78.0081279 176.278,78.2001289 C176.598002,78.3921299 176.965998,78.5281285 177.382,78.6081289 C177.798002,78.6881293 178.197998,78.7281289 178.582,78.7281289 C180.182008,78.7281289 181.405996,78.2881333 182.254,77.4081289 C183.102004,76.5281245 183.526,75.3361364 183.526,73.8321289 L183.526,73.0161289 Z M169.078,62.7921289 C170.486007,61.4481222 172.125991,60.4401323 173.998,59.7681289 C175.870009,59.0961255 177.78199,58.7601289 179.734,58.7601289 C181.75001,58.7601289 183.453993,59.0081264 184.846,59.5041289 C186.238007,60.0001314 187.365996,60.7681237 188.23,61.8081289 C189.094004,62.8481341 189.725998,64.160121 190.126,65.7441289 C190.526002,67.3281368 190.726,69.208118 190.726,71.3841289 L190.726,83.4321289 L183.526,83.4321289 L183.526,80.8881289 L183.382,80.8881289 C182.773997,81.8801339 181.854006,82.6481262 180.622,83.1921289 C179.389994,83.7361316 178.054007,84.0081289 176.614,84.0081289 C175.653995,84.0081289 174.662005,83.8801302 173.638,83.6241289 C172.613995,83.3681276 171.678004,82.9521318 170.83,82.3761289 C169.981996,81.800126 169.286003,81.0321337 168.742,80.0721289 C168.197997,79.1121241 167.926,77.9281359 167.926,76.5201289 C167.926,74.7921203 168.397995,73.4001342 169.342,72.3441289 C170.286005,71.2881236 171.501993,70.4721318 172.99,69.8961289 C174.478007,69.320126 176.133991,68.9361299 177.958,68.7441289 C179.782009,68.5521279 181.557991,68.4561289 183.286,68.4561289 L183.286,68.0721289 C183.286,66.888123 182.870004,66.0161317 182.038,65.4561289 C181.205996,64.8961261 180.182006,64.6161289 178.966,64.6161289 C177.845994,64.6161289 176.766005,64.8561265 175.726,65.3361289 C174.685995,65.8161313 173.798004,66.3921255 173.062,67.0641289 L169.078,62.7921289 Z M212.283,83.4321289 L212.283,70.3761289 C212.283,69.7041255 212.227001,69.0641319 212.115,68.4561289 C212.002999,67.8481259 211.819001,67.3121312 211.563,66.8481289 C211.306999,66.3841266 210.947002,66.0161303 210.483,65.7441289 C210.018998,65.4721275 209.435004,65.3361289 208.731,65.3361289 C208.026996,65.3361289 207.411003,65.4721275 206.883,65.7441289 C206.354997,66.0161303 205.915002,66.3921265 205.563,66.8721289 C205.210998,67.3521313 204.947001,67.9041258 204.771,68.5281289 C204.594999,69.152132 204.507,69.8001255 204.507,70.4721289 L204.507,83.4321289 L196.587,83.4321289 L196.587,59.5281289 L204.219,59.5281289 L204.219,62.8401289 L204.315,62.8401289 C204.603001,62.3281263 204.978998,61.8241314 205.443,61.3281289 C205.907002,60.8321264 206.450997,60.4081307 207.075,60.0561289 C207.699003,59.7041271 208.378996,59.41613 209.115,59.1921289 C209.851004,58.9681278 210.634996,58.8561289 211.467,58.8561289 C213.067008,58.8561289 214.426994,59.144126 215.547,59.7201289 C216.667006,60.2961318 217.570997,61.0401243 218.259,61.9521289 C218.947003,62.8641335 219.442998,63.912123 219.747,65.0961289 C220.051002,66.2801348 220.203,67.464123 220.203,68.6481289 L220.203,83.4321289 L212.283,83.4321289 Z M268.501,78.7281289 C266.996992,80.4561375 265.141011,81.8241239 262.933,82.8321289 C260.724989,83.8401339 258.181014,84.3441289 255.301,84.3441289 C252.676987,84.3441289 250.253011,83.9121332 248.029,83.0481289 C245.804989,82.1841246 243.877008,80.9601368 242.245,79.3761289 C240.612992,77.792121 239.333005,75.8961399 238.405,73.6881289 C237.476995,71.4801179 237.013,69.0481422 237.013,66.3921289 C237.013,63.6721153 237.484995,61.2081399 238.429,59.0001289 C239.373005,56.7921179 240.676992,54.9121367 242.341,53.3601289 C244.005008,51.8081211 245.956989,50.6161331 248.197,49.7841289 C250.437011,48.9521247 252.852987,48.5361289 255.445,48.5361289 C257.845012,48.5361289 260.204988,48.9601247 262.525,49.8081289 C264.845012,50.6561331 266.724993,51.8961207 268.165,53.5281289 L262.597,59.0961289 C261.828996,58.0401236 260.821006,57.2561315 259.573,56.7441289 C258.324994,56.2321263 257.045007,55.9761289 255.733,55.9761289 C254.292993,55.9761289 252.973006,56.2401263 251.773,56.7681289 C250.572994,57.2961315 249.541004,58.0241243 248.677,58.9521289 C247.812996,59.8801335 247.141002,60.9761226 246.661,62.2401289 C246.180998,63.5041352 245.941,64.8881214 245.941,66.3921289 C245.941,67.9281366 246.180998,69.3361225 246.661,70.6161289 C247.141002,71.8961353 247.804996,72.9921243 248.653,73.9041289 C249.501004,74.8161335 250.516994,75.5281263 251.701,76.0401289 C252.885006,76.5521315 254.180993,76.8081289 255.589,76.8081289 C257.221008,76.8081289 258.644994,76.4881321 259.861,75.8481289 C261.077006,75.2081257 262.052996,74.376134 262.789,73.3521289 L268.501,78.7281289 Z M296.346,71.3841289 C296.346,73.3361387 295.994004,75.104121 295.29,76.6881289 C294.585996,78.2721368 293.626006,79.6161234 292.41,80.7201289 C291.193994,81.8241344 289.786008,82.6801259 288.186,83.2881289 C286.585992,83.8961319 284.874009,84.2001289 283.05,84.2001289 C281.257991,84.2001289 279.554008,83.8961319 277.938,83.2881289 C276.321992,82.6801259 274.914006,81.8241344 273.714,80.7201289 C272.513994,79.6161234 271.562004,78.2721368 270.858,76.6881289 C270.153996,75.104121 269.802,73.3361387 269.802,71.3841289 C269.802,69.4321191 270.153996,67.6721367 270.858,66.1041289 C271.562004,64.5361211 272.513994,63.2081343 273.714,62.1201289 C274.914006,61.0321235 276.321992,60.2001318 277.938,59.6241289 C279.554008,59.048126 281.257991,58.7601289 283.05,58.7601289 C284.874009,58.7601289 286.585992,59.048126 288.186,59.6241289 C289.786008,60.2001318 291.193994,61.0321235 292.41,62.1201289 C293.626006,63.2081343 294.585996,64.5361211 295.29,66.1041289 C295.994004,67.6721367 296.346,69.4321191 296.346,71.3841289 Z M288.762,71.3841289 C288.762,70.6161251 288.634001,69.8641326 288.378,69.1281289 C288.121999,68.3921252 287.754002,67.7441317 287.274,67.1841289 C286.793998,66.6241261 286.202004,66.1681307 285.498,65.8161289 C284.793996,65.4641271 283.978005,65.2881289 283.05,65.2881289 C282.121995,65.2881289 281.306004,65.4641271 280.602,65.8161289 C279.897996,66.1681307 279.314002,66.6241261 278.85,67.1841289 C278.385998,67.7441317 278.034001,68.3921252 277.794,69.1281289 C277.553999,69.8641326 277.434,70.6161251 277.434,71.3841289 C277.434,72.1521327 277.553999,72.9041252 277.794,73.6401289 C278.034001,74.3761326 278.393998,75.0401259 278.874,75.6321289 C279.354002,76.2241319 279.945996,76.6961271 280.65,77.0481289 C281.354004,77.4001307 282.169995,77.5761289 283.098,77.5761289 C284.026005,77.5761289 284.841996,77.4001307 285.546,77.0481289 C286.250004,76.6961271 286.841998,76.2241319 287.322,75.6321289 C287.802002,75.0401259 288.161999,74.3761326 288.402,73.6401289 C288.642001,72.9041252 288.762,72.1521327 288.762,71.3841289 Z M301.439,83.4321289 L301.439,47.1441289 L309.407,47.1441289 L309.407,83.4321289 L301.439,83.4321289 Z M315.748,83.4321289 L315.748,47.1441289 L323.716,47.1441289 L323.716,83.4321289 L315.748,83.4321289 Z M346.425,68.7441289 C346.425,67.4961227 346.033004,66.4241334 345.249,65.5281289 C344.464996,64.6321244 343.289008,64.1841289 341.721,64.1841289 C340.952996,64.1841289 340.249003,64.3041277 339.609,64.5441289 C338.968997,64.7841301 338.409002,65.1121268 337.929,65.5281289 C337.448998,65.944131 337.065001,66.4321261 336.777,66.9921289 C336.488999,67.5521317 336.329,68.1361259 336.297,68.7441289 L346.425,68.7441289 Z M353.673,71.7681289 L353.673,72.7281289 C353.673,73.0481305 353.657,73.3521275 353.625,73.6401289 L336.297,73.6401289 C336.361,74.3121323 336.560998,74.9201262 336.897,75.4641289 C337.233002,76.0081316 337.664997,76.4801269 338.193,76.8801289 C338.721003,77.2801309 339.312997,77.5921278 339.969,77.8161289 C340.625003,78.04013 341.304996,78.1521289 342.009,78.1521289 C343.257006,78.1521289 344.312996,77.9201312 345.177,77.4561289 C346.041004,76.9921266 346.744997,76.3921326 347.289,75.6561289 L352.761,79.1121289 C351.640994,80.7441371 350.161009,82.0001245 348.321,82.8801289 C346.480991,83.7601333 344.345012,84.2001289 341.913,84.2001289 C340.120991,84.2001289 338.425008,83.9201317 336.825,83.3601289 C335.224992,82.8001261 333.825006,81.9841343 332.625,80.9121289 C331.424994,79.8401235 330.481003,78.5201367 329.793,76.9521289 C329.104997,75.3841211 328.761,73.592139 328.761,71.5761289 C328.761,69.6241191 329.096997,67.8561368 329.769,66.2721289 C330.441003,64.688121 331.352994,63.3441344 332.505,62.2401289 C333.657006,61.1361234 335.016992,60.2801319 336.585,59.6721289 C338.153008,59.0641259 339.848991,58.7601289 341.673,58.7601289 C343.433009,58.7601289 345.048993,59.0561259 346.521,59.6481289 C347.993007,60.2401319 349.256995,61.0961233 350.313,62.2161289 C351.369005,63.3361345 352.192997,64.6961209 352.785,66.2961289 C353.377003,67.8961369 353.673,69.7201187 353.673,71.7681289 Z M383.918,81.1761289 C383.918,83.5121406 383.582003,85.5441203 382.91,87.2721289 C382.237997,89.0001375 381.294006,90.4321232 380.078,91.5681289 C378.861994,92.7041346 377.382009,93.5521261 375.638,94.1121289 C373.893991,94.6721317 371.966011,94.9521289 369.854,94.9521289 C367.741989,94.9521289 365.574011,94.6321321 363.35,93.9921289 C361.125989,93.3521257 359.198008,92.424135 357.566,91.2081289 L361.502,85.5921289 C362.654006,86.616134 363.925993,87.3761264 365.318,87.8721289 C366.710007,88.3681314 368.077993,88.6161289 369.422,88.6161289 C371.726012,88.6161289 373.429994,88.008135 374.534,86.7921289 C375.638006,85.5761228 376.19,83.960139 376.19,81.9441289 L376.19,80.5041289 L376.046,80.5041289 C375.309996,81.4641337 374.318006,82.232126 373.07,82.8081289 C371.821994,83.3841318 370.398008,83.6721289 368.798,83.6721289 C366.973991,83.6721289 365.358007,83.3441322 363.95,82.6881289 C362.541993,82.0321256 361.350005,81.1441345 360.374,80.0241289 C359.397995,78.9041233 358.654003,77.6001363 358.142,76.1121289 C357.629997,74.6241215 357.374,73.0481372 357.374,71.3841289 C357.374,69.7201206 357.629997,68.1361364 358.142,66.6321289 C358.654003,65.1281214 359.397995,63.8001347 360.374,62.6481289 C361.350005,61.4961231 362.541993,60.5761323 363.95,59.8881289 C365.358007,59.2001255 366.957991,58.8561289 368.75,58.8561289 C370.254008,58.8561289 371.693993,59.1601259 373.07,59.7681289 C374.446007,60.3761319 375.549996,61.3201225 376.382,62.6001289 L376.478,62.6001289 L376.478,59.5281289 L383.918,59.5281289 L383.918,81.1761289 Z M376.43,71.3361289 C376.43,70.5361249 376.294001,69.7681326 376.022,69.0321289 C375.749999,68.2961252 375.358003,67.6481317 374.846,67.0881289 C374.333997,66.5281261 373.726004,66.0881305 373.022,65.7681289 C372.317996,65.4481273 371.518004,65.2881289 370.622,65.2881289 C369.725996,65.2881289 368.934003,65.4481273 368.246,65.7681289 C367.557997,66.0881305 366.974002,66.5201262 366.494,67.0641289 C366.013998,67.6081316 365.646001,68.2481252 365.39,68.9841289 C365.133999,69.7201326 365.006,70.5041247 365.006,71.3361289 C365.006,72.1361329 365.133999,72.9041252 365.39,73.6401289 C365.646001,74.3761326 366.013998,75.0241261 366.494,75.5841289 C366.974002,76.1441317 367.557997,76.5921272 368.246,76.9281289 C368.934003,77.2641306 369.725996,77.4321289 370.622,77.4321289 C371.518004,77.4321289 372.325996,77.2641306 373.046,76.9281289 C373.766004,76.5921272 374.373998,76.1521316 374.87,75.6081289 C375.366002,75.0641262 375.749999,74.4241326 376.022,73.6881289 C376.294001,72.9521252 376.43,72.1681331 376.43,71.3361289 Z M406.627,68.7441289 C406.627,67.4961227 406.235004,66.4241334 405.451,65.5281289 C404.666996,64.6321244 403.491008,64.1841289 401.923,64.1841289 C401.154996,64.1841289 400.451003,64.3041277 399.811,64.5441289 C399.170997,64.7841301 398.611002,65.1121268 398.131,65.5281289 C397.650998,65.944131 397.267001,66.4321261 396.979,66.9921289 C396.690999,67.5521317 396.531,68.1361259 396.499,68.7441289 L406.627,68.7441289 Z M413.875,71.7681289 L413.875,72.7281289 C413.875,73.0481305 413.859,73.3521275 413.827,73.6401289 L396.499,73.6401289 C396.563,74.3121323 396.762998,74.9201262 397.099,75.4641289 C397.435002,76.0081316 397.866997,76.4801269 398.395,76.8801289 C398.923003,77.2801309 399.514997,77.5921278 400.171,77.8161289 C400.827003,78.04013 401.506996,78.1521289 402.211,78.1521289 C403.459006,78.1521289 404.514996,77.9201312 405.379,77.4561289 C406.243004,76.9921266 406.946997,76.3921326 407.491,75.6561289 L412.963,79.1121289 C411.842994,80.7441371 410.363009,82.0001245 408.523,82.8801289 C406.682991,83.7601333 404.547012,84.2001289 402.115,84.2001289 C400.322991,84.2001289 398.627008,83.9201317 397.027,83.3601289 C395.426992,82.8001261 394.027006,81.9841343 392.827,80.9121289 C391.626994,79.8401235 390.683003,78.5201367 389.995,76.9521289 C389.306997,75.3841211 388.963,73.592139 388.963,71.5761289 C388.963,69.6241191 389.298997,67.8561368 389.971,66.2721289 C390.643003,64.688121 391.554994,63.3441344 392.707,62.2401289 C393.859006,61.1361234 395.218992,60.2801319 396.787,59.6721289 C398.355008,59.0641259 400.050991,58.7601289 401.875,58.7601289 C403.635009,58.7601289 405.250993,59.0561259 406.723,59.6481289 C408.195007,60.2401319 409.458995,61.0961233 410.515,62.2161289 C411.571005,63.3361345 412.394997,64.6961209 412.987,66.2961289 C413.579003,67.8961369 413.875,69.7201187 413.875,71.7681289 Z M456.125,71.3841289 C456.125,73.3361387 455.773004,75.104121 455.069,76.6881289 C454.364996,78.2721368 453.405006,79.6161234 452.189,80.7201289 C450.972994,81.8241344 449.565008,82.6801259 447.965,83.2881289 C446.364992,83.8961319 444.653009,84.2001289 442.829,84.2001289 C441.036991,84.2001289 439.333008,83.8961319 437.717,83.2881289 C436.100992,82.6801259 434.693006,81.8241344 433.493,80.7201289 C432.292994,79.6161234 431.341004,78.2721368 430.637,76.6881289 C429.932996,75.104121 429.581,73.3361387 429.581,71.3841289 C429.581,69.4321191 429.932996,67.6721367 430.637,66.1041289 C431.341004,64.5361211 432.292994,63.2081343 433.493,62.1201289 C434.693006,61.0321235 436.100992,60.2001318 437.717,59.6241289 C439.333008,59.048126 441.036991,58.7601289 442.829,58.7601289 C444.653009,58.7601289 446.364992,59.048126 447.965,59.6241289 C449.565008,60.2001318 450.972994,61.0321235 452.189,62.1201289 C453.405006,63.2081343 454.364996,64.5361211 455.069,66.1041289 C455.773004,67.6721367 456.125,69.4321191 456.125,71.3841289 Z M448.541,71.3841289 C448.541,70.6161251 448.413001,69.8641326 448.157,69.1281289 C447.900999,68.3921252 447.533002,67.7441317 447.053,67.1841289 C446.572998,66.6241261 445.981004,66.1681307 445.277,65.8161289 C444.572996,65.4641271 443.757005,65.2881289 442.829,65.2881289 C441.900995,65.2881289 441.085004,65.4641271 440.381,65.8161289 C439.676996,66.1681307 439.093002,66.6241261 438.629,67.1841289 C438.164998,67.7441317 437.813001,68.3921252 437.573,69.1281289 C437.332999,69.8641326 437.213,70.6161251 437.213,71.3841289 C437.213,72.1521327 437.332999,72.9041252 437.573,73.6401289 C437.813001,74.3761326 438.172998,75.0401259 438.653,75.6321289 C439.133002,76.2241319 439.724996,76.6961271 440.429,77.0481289 C441.133004,77.4001307 441.948995,77.5761289 442.877,77.5761289 C443.805005,77.5761289 444.620996,77.4001307 445.325,77.0481289 C446.029004,76.6961271 446.620998,76.2241319 447.101,75.6321289 C447.581002,75.0401259 447.940999,74.3761326 448.181,73.6401289 C448.421001,72.9041252 448.541,72.1521327 448.541,71.3841289 Z M475.954,52.9521289 C475.665999,52.8561284 475.330002,52.7761292 474.946,52.7121289 C474.561998,52.6481286 474.178002,52.6161289 473.794,52.6161289 C473.057996,52.6161289 472.466002,52.7441276 472.018,53.0001289 C471.569998,53.2561302 471.218001,53.6001267 470.962,54.0321289 C470.705999,54.4641311 470.53,54.9521262 470.434,55.4961289 C470.338,56.0401316 470.29,56.5841262 470.29,57.1281289 L470.29,59.5281289 L475.618,59.5281289 L475.618,65.4321289 L470.29,65.4321289 L470.29,83.4321289 L462.418,83.4321289 L462.418,65.4321289 L458.05,65.4321289 L458.05,59.5281289 L462.418,59.5281289 L462.418,57.2241289 C462.418,55.7521215 462.577998,54.3521355 462.898,53.0241289 C463.218002,51.6961223 463.769996,50.5281339 464.554,49.5201289 C465.338004,48.5121239 466.393993,47.7121319 467.722,47.1201289 C469.050007,46.5281259 470.70599,46.2321289 472.69,46.2321289 C473.362003,46.2321289 474.025997,46.2721285 474.682,46.3521289 C475.338003,46.4321293 475.937997,46.5521281 476.482,46.7121289 L475.954,52.9521289 Z M492.188,83.4321289 L492.188,49.4481289 L515.036,49.4481289 L515.036,56.4081289 L500.108,56.4081289 L500.108,62.7921289 L514.22,62.7921289 L514.22,69.3681289 L500.108,69.3681289 L500.108,76.4241289 L515.9,76.4241289 L515.9,83.4321289 L492.188,83.4321289 Z M551.425,83.4321289 L551.425,70.3761289 C551.425,69.7041255 551.377,69.056132 551.281,68.4321289 C551.185,67.8081258 551.009001,67.2721311 550.753,66.8241289 C550.496999,66.3761267 550.153002,66.0161303 549.721,65.7441289 C549.288998,65.4721275 548.721004,65.3361289 548.017,65.3361289 C547.344997,65.3361289 546.761002,65.4801275 546.265,65.7681289 C545.768998,66.0561303 545.353002,66.4401265 545.017,66.9201289 C544.680998,67.4001313 544.433001,67.9521258 544.273,68.5761289 C544.112999,69.200132 544.033,69.8481255 544.033,70.5201289 L544.033,83.4321289 L536.161,83.4321289 L536.161,69.8001289 C536.161,68.424122 535.889003,67.3361329 535.345,66.5361289 C534.800997,65.7361249 533.937006,65.3361289 532.753,65.3361289 C531.504994,65.3361289 530.537003,65.8321239 529.849,66.8241289 C529.160997,67.8161339 528.817,69.0321217 528.817,70.4721289 L528.817,83.4321289 L520.897,83.4321289 L520.897,59.5281289 L528.529,59.5281289 L528.529,62.8401289 L528.625,62.8401289 C528.913001,62.3281263 529.272998,61.8321313 529.705,61.3521289 C530.137002,60.8721265 530.656997,60.4481307 531.265,60.0801289 C531.873003,59.7121271 532.552996,59.41613 533.305,59.1921289 C534.057004,58.9681278 534.880996,58.8561289 535.777,58.8561289 C537.505009,58.8561289 538.968994,59.2081254 540.169,59.9121289 C541.369006,60.6161324 542.304997,61.6241223 542.977,62.9361289 C543.777004,61.6881227 544.800994,60.6961326 546.049,59.9601289 C547.297006,59.2241252 548.816991,58.8561289 550.609,58.8561289 C552.241008,58.8561289 553.608994,59.1521259 554.713,59.7441289 C555.817006,60.3361319 556.704997,61.1041242 557.377,62.0481289 C558.049003,62.9921336 558.536998,64.0481231 558.841,65.2161289 C559.145002,66.3841347 559.297,67.5281233 559.297,68.6481289 L559.297,83.4321289 L551.425,83.4321289 Z M581.718,68.7441289 C581.718,67.4961227 581.326004,66.4241334 580.542,65.5281289 C579.757996,64.6321244 578.582008,64.1841289 577.014,64.1841289 C576.245996,64.1841289 575.542003,64.3041277 574.902,64.5441289 C574.261997,64.7841301 573.702002,65.1121268 573.222,65.5281289 C572.741998,65.944131 572.358001,66.4321261 572.07,66.9921289 C571.781999,67.5521317 571.622,68.1361259 571.59,68.7441289 L581.718,68.7441289 Z M588.966,71.7681289 L588.966,72.7281289 C588.966,73.0481305 588.95,73.3521275 588.918,73.6401289 L571.59,73.6401289 C571.654,74.3121323 571.853998,74.9201262 572.19,75.4641289 C572.526002,76.0081316 572.957997,76.4801269 573.486,76.8801289 C574.014003,77.2801309 574.605997,77.5921278 575.262,77.8161289 C575.918003,78.04013 576.597996,78.1521289 577.302,78.1521289 C578.550006,78.1521289 579.605996,77.9201312 580.47,77.4561289 C581.334004,76.9921266 582.037997,76.3921326 582.582,75.6561289 L588.054,79.1121289 C586.933994,80.7441371 585.454009,82.0001245 583.614,82.8801289 C581.773991,83.7601333 579.638012,84.2001289 577.206,84.2001289 C575.413991,84.2001289 573.718008,83.9201317 572.118,83.3601289 C570.517992,82.8001261 569.118006,81.9841343 567.918,80.9121289 C566.717994,79.8401235 565.774003,78.5201367 565.086,76.9521289 C564.397997,75.3841211 564.054,73.592139 564.054,71.5761289 C564.054,69.6241191 564.389997,67.8561368 565.062,66.2721289 C565.734003,64.688121 566.645994,63.3441344 567.798,62.2401289 C568.950006,61.1361234 570.309992,60.2801319 571.878,59.6721289 C573.446008,59.0641259 575.141991,58.7601289 576.966,58.7601289 C578.726009,58.7601289 580.341993,59.0561259 581.814,59.6481289 C583.286007,60.2401319 584.549995,61.0961233 585.606,62.2161289 C586.662005,63.3361345 587.485997,64.6961209 588.078,66.2961289 C588.670003,67.8961369 588.966,69.7201187 588.966,71.7681289 Z M609.371,65.9601289 C609.018998,65.8641284 608.675002,65.8001291 608.339,65.7681289 C608.002998,65.7361287 607.675002,65.7201289 607.355,65.7201289 C606.298995,65.7201289 605.411004,65.912127 604.691,66.2961289 C603.970996,66.6801308 603.395002,67.1441262 602.963,67.6881289 C602.530998,68.2321316 602.219001,68.8241257 602.027,69.4641289 C601.834999,70.1041321 601.739,70.6641265 601.739,71.1441289 L601.739,83.4321289 L593.867,83.4321289 L593.867,59.5281289 L601.451,59.5281289 L601.451,62.9841289 L601.547,62.9841289 C602.155003,61.7681228 603.018994,60.7761327 604.139,60.0081289 C605.259006,59.2401251 606.554993,58.8561289 608.027,58.8561289 C608.347002,58.8561289 608.658998,58.8721287 608.963,58.9041289 C609.267002,58.9361291 609.514999,58.9841286 609.707,59.0481289 L609.371,65.9601289 Z M637.36,81.1761289 C637.36,83.5121406 637.024003,85.5441203 636.352,87.2721289 C635.679997,89.0001375 634.736006,90.4321232 633.52,91.5681289 C632.303994,92.7041346 630.824009,93.5521261 629.08,94.1121289 C627.335991,94.6721317 625.408011,94.9521289 623.296,94.9521289 C621.183989,94.9521289 619.016011,94.6321321 616.792,93.9921289 C614.567989,93.3521257 612.640008,92.424135 611.008,91.2081289 L614.944,85.5921289 C616.096006,86.616134 617.367993,87.3761264 618.76,87.8721289 C620.152007,88.3681314 621.519993,88.6161289 622.864,88.6161289 C625.168012,88.6161289 626.871994,88.008135 627.976,86.7921289 C629.080006,85.5761228 629.632,83.960139 629.632,81.9441289 L629.632,80.5041289 L629.488,80.5041289 C628.751996,81.4641337 627.760006,82.232126 626.512,82.8081289 C625.263994,83.3841318 623.840008,83.6721289 622.24,83.6721289 C620.415991,83.6721289 618.800007,83.3441322 617.392,82.6881289 C615.983993,82.0321256 614.792005,81.1441345 613.816,80.0241289 C612.839995,78.9041233 612.096003,77.6001363 611.584,76.1121289 C611.071997,74.6241215 610.816,73.0481372 610.816,71.3841289 C610.816,69.7201206 611.071997,68.1361364 611.584,66.6321289 C612.096003,65.1281214 612.839995,63.8001347 613.816,62.6481289 C614.792005,61.4961231 615.983993,60.5761323 617.392,59.8881289 C618.800007,59.2001255 620.399991,58.8561289 622.192,58.8561289 C623.696008,58.8561289 625.135993,59.1601259 626.512,59.7681289 C627.888007,60.3761319 628.991996,61.3201225 629.824,62.6001289 L629.92,62.6001289 L629.92,59.5281289 L637.36,59.5281289 L637.36,81.1761289 Z M629.872,71.3361289 C629.872,70.5361249 629.736001,69.7681326 629.464,69.0321289 C629.191999,68.2961252 628.800003,67.6481317 628.288,67.0881289 C627.775997,66.5281261 627.168004,66.0881305 626.464,65.7681289 C625.759996,65.4481273 624.960004,65.2881289 624.064,65.2881289 C623.167996,65.2881289 622.376003,65.4481273 621.688,65.7681289 C620.999997,66.0881305 620.416002,66.5201262 619.936,67.0641289 C619.455998,67.6081316 619.088001,68.2481252 618.832,68.9841289 C618.575999,69.7201326 618.448,70.5041247 618.448,71.3361289 C618.448,72.1361329 618.575999,72.9041252 618.832,73.6401289 C619.088001,74.3761326 619.455998,75.0241261 619.936,75.5841289 C620.416002,76.1441317 620.999997,76.5921272 621.688,76.9281289 C622.376003,77.2641306 623.167996,77.4321289 624.064,77.4321289 C624.960004,77.4321289 625.767996,77.2641306 626.488,76.9281289 C627.208004,76.5921272 627.815998,76.1521316 628.312,75.6081289 C628.808002,75.0641262 629.191999,74.4241326 629.464,73.6881289 C629.736001,72.9521252 629.872,72.1681331 629.872,71.3361289 Z M660.069,68.7441289 C660.069,67.4961227 659.677004,66.4241334 658.893,65.5281289 C658.108996,64.6321244 656.933008,64.1841289 655.365,64.1841289 C654.596996,64.1841289 653.893003,64.3041277 653.253,64.5441289 C652.612997,64.7841301 652.053002,65.1121268 651.573,65.5281289 C651.092998,65.944131 650.709001,66.4321261 650.421,66.9921289 C650.132999,67.5521317 649.973,68.1361259 649.941,68.7441289 L660.069,68.7441289 Z M667.317,71.7681289 L667.317,72.7281289 C667.317,73.0481305 667.301,73.3521275 667.269,73.6401289 L649.941,73.6401289 C650.005,74.3121323 650.204998,74.9201262 650.541,75.4641289 C650.877002,76.0081316 651.308997,76.4801269 651.837,76.8801289 C652.365003,77.2801309 652.956997,77.5921278 653.613,77.8161289 C654.269003,78.04013 654.948996,78.1521289 655.653,78.1521289 C656.901006,78.1521289 657.956996,77.9201312 658.821,77.4561289 C659.685004,76.9921266 660.388997,76.3921326 660.933,75.6561289 L666.405,79.1121289 C665.284994,80.7441371 663.805009,82.0001245 661.965,82.8801289 C660.124991,83.7601333 657.989012,84.2001289 655.557,84.2001289 C653.764991,84.2001289 652.069008,83.9201317 650.469,83.3601289 C648.868992,82.8001261 647.469006,81.9841343 646.269,80.9121289 C645.068994,79.8401235 644.125003,78.5201367 643.437,76.9521289 C642.748997,75.3841211 642.405,73.592139 642.405,71.5761289 C642.405,69.6241191 642.740997,67.8561368 643.413,66.2721289 C644.085003,64.688121 644.996994,63.3441344 646.149,62.2401289 C647.301006,61.1361234 648.660992,60.2801319 650.229,59.6721289 C651.797008,59.0641259 653.492991,58.7601289 655.317,58.7601289 C657.077009,58.7601289 658.692993,59.0561259 660.165,59.6481289 C661.637007,60.2401319 662.900995,61.0961233 663.957,62.2161289 C665.013005,63.3361345 665.836997,64.6961209 666.429,66.2961289 C667.021003,67.8961369 667.317,69.7201187 667.317,71.7681289 Z M687.914,83.4321289 L687.914,70.3761289 C687.914,69.7041255 687.858001,69.0641319 687.746,68.4561289 C687.633999,67.8481259 687.450001,67.3121312 687.194,66.8481289 C686.937999,66.3841266 686.578002,66.0161303 686.114,65.7441289 C685.649998,65.4721275 685.066004,65.3361289 684.362,65.3361289 C683.657996,65.3361289 683.042003,65.4721275 682.514,65.7441289 C681.985997,66.0161303 681.546002,66.3921265 681.194,66.8721289 C680.841998,67.3521313 680.578001,67.9041258 680.402,68.5281289 C680.225999,69.152132 680.138,69.8001255 680.138,70.4721289 L680.138,83.4321289 L672.218,83.4321289 L672.218,59.5281289 L679.85,59.5281289 L679.85,62.8401289 L679.946,62.8401289 C680.234001,62.3281263 680.609998,61.8241314 681.074,61.3281289 C681.538002,60.8321264 682.081997,60.4081307 682.706,60.0561289 C683.330003,59.7041271 684.009996,59.41613 684.746,59.1921289 C685.482004,58.9681278 686.265996,58.8561289 687.098,58.8561289 C688.698008,58.8561289 690.057994,59.144126 691.178,59.7201289 C692.298006,60.2961318 693.201997,61.0401243 693.89,61.9521289 C694.578003,62.8641335 695.073998,63.912123 695.378,65.0961289 C695.682002,66.2801348 695.834,67.464123 695.834,68.6481289 L695.834,83.4321289 L687.914,83.4321289 Z M718.255,67.2561289 C717.806998,66.680126 717.199004,66.2161307 716.431,65.8641289 C715.662996,65.5121271 714.879004,65.3361289 714.079,65.3361289 C713.246996,65.3361289 712.495003,65.5041272 711.823,65.8401289 C711.150997,66.1761306 710.575002,66.6241261 710.095,67.1841289 C709.614998,67.7441317 709.239001,68.3921252 708.967,69.1281289 C708.694999,69.8641326 708.559,70.6481247 708.559,71.4801289 C708.559,72.3121331 708.686999,73.0961252 708.943,73.8321289 C709.199001,74.5681326 709.574998,75.2161261 710.071,75.7761289 C710.567002,76.3361317 711.158997,76.7761273 711.847,77.0961289 C712.535003,77.4161305 713.310996,77.5761289 714.175,77.5761289 C714.975004,77.5761289 715.766996,77.4241304 716.551,77.1201289 C717.335004,76.8161274 717.966998,76.3761318 718.447,75.8001289 L722.815,81.1281289 C721.822995,82.0881337 720.543008,82.8401262 718.975,83.3841289 C717.406992,83.9281316 715.743009,84.2001289 713.983,84.2001289 C712.094991,84.2001289 710.335008,83.9121318 708.703,83.3361289 C707.070992,82.760126 705.655006,81.9201344 704.455,80.8161289 C703.254994,79.7121234 702.311003,78.3761367 701.623,76.8081289 C700.934997,75.2401211 700.591,73.4641388 700.591,71.4801289 C700.591,69.5281191 700.934997,67.7681367 701.623,66.2001289 C702.311003,64.6321211 703.254994,63.2961344 704.455,62.1921289 C705.655006,61.0881234 707.070992,60.2401319 708.703,59.6481289 C710.335008,59.0561259 712.078991,58.7601289 713.935,58.7601289 C714.799004,58.7601289 715.654996,58.8401281 716.503,59.0001289 C717.351004,59.1601297 718.166996,59.3761275 718.951,59.6481289 C719.735004,59.9201303 720.454997,60.2561269 721.111,60.6561289 C721.767003,61.0561309 722.334998,61.4961265 722.815,61.9761289 L718.255,67.2561289 Z M739.428,87.0321289 C738.947998,88.2801351 738.412003,89.392124 737.82,90.3681289 C737.227997,91.3441338 736.524004,92.1761255 735.708,92.8641289 C734.891996,93.5521323 733.932006,94.0721271 732.828,94.4241289 C731.723994,94.7761307 730.420008,94.9521289 728.916,94.9521289 C728.179996,94.9521289 727.420004,94.9041294 726.636,94.8081289 C725.851996,94.7121284 725.172003,94.5841297 724.596,94.4241289 L725.46,87.8001289 C725.844002,87.9281295 726.267998,88.0321285 726.732,88.1121289 C727.196002,88.1921293 727.619998,88.2321289 728.004,88.2321289 C729.220006,88.2321289 730.099997,87.9521317 730.644,87.3921289 C731.188003,86.8321261 731.651998,86.040134 732.036,85.0161289 L732.804,83.0481289 L722.82,59.5281289 L731.556,59.5281289 L736.884,74.8881289 L737.028,74.8881289 L741.78,59.5281289 L750.132,59.5281289 L739.428,87.0321289 Z M791.374,59.9121289 C791.374,61.8961388 791.006004,63.5681221 790.27,64.9281289 C789.533996,66.2881357 788.542006,67.3841247 787.294,68.2161289 C786.045994,69.0481331 784.606008,69.656127 782.974,70.0401289 C781.341992,70.4241308 779.646009,70.6161289 777.886,70.6161289 L773.806,70.6161289 L773.806,83.4321289 L765.598,83.4321289 L765.598,49.4481289 L778.078,49.4481289 C779.934009,49.4481289 781.669992,49.6321271 783.286,50.0001289 C784.902008,50.3681307 786.309994,50.9601248 787.51,51.7761289 C788.710006,52.592133 789.653997,53.6641223 790.342,54.9921289 C791.030003,56.3201355 791.374,57.9601191 791.374,59.9121289 Z M783.166,59.9601289 C783.166,59.1601249 783.006002,58.5041315 782.686,57.9921289 C782.365998,57.4801263 781.934003,57.0801303 781.39,56.7921289 C780.845997,56.5041275 780.230003,56.3121294 779.542,56.2161289 C778.853997,56.1201284 778.142004,56.0721289 777.406,56.0721289 L773.806,56.0721289 L773.806,64.0881289 L777.262,64.0881289 C778.030004,64.0881289 778.765996,64.0241295 779.47,63.8961289 C780.174004,63.7681283 780.805997,63.5441305 781.366,63.2241289 C781.926003,62.9041273 782.365998,62.4801315 782.686,61.9521289 C783.006002,61.4241263 783.166,60.7601329 783.166,59.9601289 Z M811.635,83.4321289 L811.635,70.4721289 C811.635,69.8001255 811.587,69.1601319 811.491,68.5521289 C811.395,67.9441259 811.211001,67.4081312 810.939,66.9441289 C810.666999,66.4801266 810.307002,66.1121303 809.859,65.8401289 C809.410998,65.5681275 808.835004,65.4321289 808.131,65.4321289 C806.754993,65.4321289 805.699004,65.920124 804.963,66.8961289 C804.226996,67.8721338 803.859,69.0801217 803.859,70.5201289 L803.859,83.4321289 L795.987,83.4321289 L795.987,47.1441289 L803.859,47.1441289 L803.859,62.5521289 L803.955,62.5521289 C804.499003,61.5921241 805.362994,60.7361327 806.547,59.9841289 C807.731006,59.2321251 809.154992,58.8561289 810.819,58.8561289 C812.451008,58.8561289 813.818994,59.144126 814.923,59.7201289 C816.027006,60.2961318 816.922997,61.0401243 817.611,61.9521289 C818.299003,62.8641335 818.794998,63.912123 819.099,65.0961289 C819.403002,66.2801348 819.555,67.464123 819.555,68.6481289 L819.555,83.4321289 L811.635,83.4321289 Z M839,87.0321289 C838.519998,88.2801351 837.984003,89.392124 837.392,90.3681289 C836.799997,91.3441338 836.096004,92.1761255 835.28,92.8641289 C834.463996,93.5521323 833.504006,94.0721271 832.4,94.4241289 C831.295994,94.7761307 829.992008,94.9521289 828.488,94.9521289 C827.751996,94.9521289 826.992004,94.9041294 826.208,94.8081289 C825.423996,94.7121284 824.744003,94.5841297 824.168,94.4241289 L825.032,87.8001289 C825.416002,87.9281295 825.839998,88.0321285 826.304,88.1121289 C826.768002,88.1921293 827.191998,88.2321289 827.576,88.2321289 C828.792006,88.2321289 829.671997,87.9521317 830.216,87.3921289 C830.760003,86.8321261 831.223998,86.040134 831.608,85.0161289 L832.376,83.0481289 L822.392,59.5281289 L831.128,59.5281289 L836.456,74.8881289 L836.6,74.8881289 L841.352,59.5281289 L849.704,59.5281289 L839,87.0321289 Z M866.797,66.5841289 C866.156997,65.9761259 865.405004,65.464131 864.541,65.0481289 C863.676996,64.6321268 862.765005,64.4241289 861.805,64.4241289 C861.068996,64.4241289 860.389003,64.5681275 859.765,64.8561289 C859.140997,65.1441303 858.829,65.6401254 858.829,66.3441289 C858.829,67.0161323 859.172997,67.4961275 859.861,67.7841289 C860.549003,68.0721303 861.660992,68.3921271 863.197,68.7441289 C864.093004,68.9361299 864.996995,69.2081271 865.909,69.5601289 C866.821005,69.9121307 867.644996,70.376126 868.381,70.9521289 C869.117004,71.5281318 869.708998,72.2321247 870.157,73.0641289 C870.605002,73.8961331 870.829,74.8881231 870.829,76.0401289 C870.829,77.5441364 870.525003,78.8161237 869.917,79.8561289 C869.308997,80.8961341 868.517005,81.7361257 867.541,82.3761289 C866.564995,83.0161321 865.469006,83.4801275 864.253,83.7681289 C863.036994,84.0561303 861.821006,84.2001289 860.605,84.2001289 C858.65299,84.2001289 856.741009,83.888132 854.869,83.2641289 C852.996991,82.6401258 851.437006,81.720135 850.189,80.5041289 L854.605,75.8481289 C855.309004,76.6161327 856.172995,77.2561263 857.197,77.7681289 C858.221005,78.2801315 859.308994,78.5361289 860.461,78.5361289 C861.101003,78.5361289 861.732997,78.3841304 862.357,78.0801289 C862.981003,77.7761274 863.293,77.2401327 863.293,76.4721289 C863.293,75.7361252 862.909004,75.1921307 862.141,74.8401289 C861.372996,74.4881271 860.173008,74.1201308 858.541,73.7361289 C857.708996,73.5441279 856.877004,73.2881305 856.045,72.9681289 C855.212996,72.6481273 854.469003,72.2161316 853.813,71.6721289 C853.156997,71.1281262 852.621002,70.4561329 852.205,69.6561289 C851.788998,68.8561249 851.581,67.8961345 851.581,66.7761289 C851.581,65.3361217 851.884997,64.1121339 852.493,63.1041289 C853.101003,62.0961239 853.884995,61.2721321 854.845,60.6321289 C855.805005,59.9921257 856.868994,59.5201304 858.037,59.2161289 C859.205006,58.9121274 860.364994,58.7601289 861.517,58.7601289 C863.309009,58.7601289 865.060991,59.0401261 866.773,59.6001289 C868.485009,60.1601317 869.932994,61.0001233 871.117,62.1201289 L866.797,66.5841289 Z M883.938,51.8961289 C883.938,52.5041319 883.818001,53.0721263 883.578,53.6001289 C883.337999,54.1281315 883.018002,54.584127 882.618,54.9681289 C882.217998,55.3521308 881.738003,55.6561278 881.178,55.8801289 C880.617997,56.10413 880.034003,56.2161289 879.426,56.2161289 C878.145994,56.2161289 877.074004,55.7921331 876.21,54.9441289 C875.345996,54.0961247 874.914,53.0801348 874.914,51.8961289 C874.914,51.320126 875.025999,50.7681315 875.25,50.2401289 C875.474001,49.7121263 875.793998,49.2561308 876.21,48.8721289 C876.626002,48.488127 877.105997,48.1761301 877.65,47.9361289 C878.194003,47.6961277 878.785997,47.5761289 879.426,47.5761289 C880.034003,47.5761289 880.617997,47.6881278 881.178,47.9121289 C881.738003,48.13613 882.217998,48.440127 882.618,48.8241289 C883.018002,49.2081308 883.337999,49.6641263 883.578,50.1921289 C883.818001,50.7201315 883.938,51.2881259 883.938,51.8961289 Z M875.49,83.4321289 L875.49,59.5281289 L883.362,59.5281289 L883.362,83.4321289 L875.49,83.4321289 Z M906.071,67.2561289 C905.622998,66.680126 905.015004,66.2161307 904.247,65.8641289 C903.478996,65.5121271 902.695004,65.3361289 901.895,65.3361289 C901.062996,65.3361289 900.311003,65.5041272 899.639,65.8401289 C898.966997,66.1761306 898.391002,66.6241261 897.911,67.1841289 C897.430998,67.7441317 897.055001,68.3921252 896.783,69.1281289 C896.510999,69.8641326 896.375,70.6481247 896.375,71.4801289 C896.375,72.3121331 896.502999,73.0961252 896.759,73.8321289 C897.015001,74.5681326 897.390998,75.2161261 897.887,75.7761289 C898.383002,76.3361317 898.974997,76.7761273 899.663,77.0961289 C900.351003,77.4161305 901.126996,77.5761289 901.991,77.5761289 C902.791004,77.5761289 903.582996,77.4241304 904.367,77.1201289 C905.151004,76.8161274 905.782998,76.3761318 906.263,75.8001289 L910.631,81.1281289 C909.638995,82.0881337 908.359008,82.8401262 906.791,83.3841289 C905.222992,83.9281316 903.559009,84.2001289 901.799,84.2001289 C899.910991,84.2001289 898.151008,83.9121318 896.519,83.3361289 C894.886992,82.760126 893.471006,81.9201344 892.271,80.8161289 C891.070994,79.7121234 890.127003,78.3761367 889.439,76.8081289 C888.750997,75.2401211 888.407,73.4641388 888.407,71.4801289 C888.407,69.5281191 888.750997,67.7681367 889.439,66.2001289 C890.127003,64.6321211 891.070994,63.2961344 892.271,62.1921289 C893.471006,61.0881234 894.886992,60.2401319 896.519,59.6481289 C898.151008,59.0561259 899.894991,58.7601289 901.751,58.7601289 C902.615004,58.7601289 903.470996,58.8401281 904.319,59.0001289 C905.167004,59.1601297 905.982996,59.3761275 906.767,59.6481289 C907.551004,59.9201303 908.270997,60.2561269 908.927,60.6561289 C909.583003,61.0561309 910.150998,61.4961265 910.631,61.9761289 L906.071,67.2561289 Z M922.3,51.8961289 C922.3,52.5041319 922.180001,53.0721263 921.94,53.6001289 C921.699999,54.1281315 921.380002,54.584127 920.98,54.9681289 C920.579998,55.3521308 920.100003,55.6561278 919.54,55.8801289 C918.979997,56.10413 918.396003,56.2161289 917.788,56.2161289 C916.507994,56.2161289 915.436004,55.7921331 914.572,54.9441289 C913.707996,54.0961247 913.276,53.0801348 913.276,51.8961289 C913.276,51.320126 913.387999,50.7681315 913.612,50.2401289 C913.836001,49.7121263 914.155998,49.2561308 914.572,48.8721289 C914.988002,48.488127 915.467997,48.1761301 916.012,47.9361289 C916.556003,47.6961277 917.147997,47.5761289 917.788,47.5761289 C918.396003,47.5761289 918.979997,47.6881278 919.54,47.9121289 C920.100003,48.13613 920.579998,48.440127 920.98,48.8241289 C921.380002,49.2081308 921.699999,49.6641263 921.94,50.1921289 C922.180001,50.7201315 922.3,51.2881259 922.3,51.8961289 Z M913.852,83.4321289 L913.852,59.5281289 L921.724,59.5281289 L921.724,83.4321289 L913.852,83.4321289 Z M942.081,73.0161289 L941.073,73.0161289 C940.208996,73.0161289 939.337004,73.0561285 938.457,73.1361289 C937.576996,73.2161293 936.793003,73.3681278 936.105,73.5921289 C935.416997,73.81613 934.849002,74.1441267 934.401,74.5761289 C933.952998,75.0081311 933.729,75.5761254 933.729,76.2801289 C933.729,76.7281311 933.832999,77.1121273 934.041,77.4321289 C934.249001,77.7521305 934.512998,78.0081279 934.833,78.2001289 C935.153002,78.3921299 935.520998,78.5281285 935.937,78.6081289 C936.353002,78.6881293 936.752998,78.7281289 937.137,78.7281289 C938.737008,78.7281289 939.960996,78.2881333 940.809,77.4081289 C941.657004,76.5281245 942.081,75.3361364 942.081,73.8321289 L942.081,73.0161289 Z M927.633,62.7921289 C929.041007,61.4481222 930.680991,60.4401323 932.553,59.7681289 C934.425009,59.0961255 936.33699,58.7601289 938.289,58.7601289 C940.30501,58.7601289 942.008993,59.0081264 943.401,59.5041289 C944.793007,60.0001314 945.920996,60.7681237 946.785,61.8081289 C947.649004,62.8481341 948.280998,64.160121 948.681,65.7441289 C949.081002,67.3281368 949.281,69.208118 949.281,71.3841289 L949.281,83.4321289 L942.081,83.4321289 L942.081,80.8881289 L941.937,80.8881289 C941.328997,81.8801339 940.409006,82.6481262 939.177,83.1921289 C937.944994,83.7361316 936.609007,84.0081289 935.169,84.0081289 C934.208995,84.0081289 933.217005,83.8801302 932.193,83.6241289 C931.168995,83.3681276 930.233004,82.9521318 929.385,82.3761289 C928.536996,81.800126 927.841003,81.0321337 927.297,80.0721289 C926.752997,79.1121241 926.481,77.9281359 926.481,76.5201289 C926.481,74.7921203 926.952995,73.4001342 927.897,72.3441289 C928.841005,71.2881236 930.056993,70.4721318 931.545,69.8961289 C933.033007,69.320126 934.688991,68.9361299 936.513,68.7441289 C938.337009,68.5521279 940.112991,68.4561289 941.841,68.4561289 L941.841,68.0721289 C941.841,66.888123 941.425004,66.0161317 940.593,65.4561289 C939.760996,64.8961261 938.737006,64.6161289 937.521,64.6161289 C936.400994,64.6161289 935.321005,64.8561265 934.281,65.3361289 C933.240995,65.8161313 932.353004,66.3921255 931.617,67.0641289 L927.633,62.7921289 Z M970.838,83.4321289 L970.838,70.3761289 C970.838,69.7041255 970.782001,69.0641319 970.67,68.4561289 C970.557999,67.8481259 970.374001,67.3121312 970.118,66.8481289 C969.861999,66.3841266 969.502002,66.0161303 969.038,65.7441289 C968.573998,65.4721275 967.990004,65.3361289 967.286,65.3361289 C966.581996,65.3361289 965.966003,65.4721275 965.438,65.7441289 C964.909997,66.0161303 964.470002,66.3921265 964.118,66.8721289 C963.765998,67.3521313 963.502001,67.9041258 963.326,68.5281289 C963.149999,69.152132 963.062,69.8001255 963.062,70.4721289 L963.062,83.4321289 L955.142,83.4321289 L955.142,59.5281289 L962.774,59.5281289 L962.774,62.8401289 L962.87,62.8401289 C963.158001,62.3281263 963.533998,61.8241314 963.998,61.3281289 C964.462002,60.8321264 965.005997,60.4081307 965.63,60.0561289 C966.254003,59.7041271 966.933996,59.41613 967.67,59.1921289 C968.406004,58.9681278 969.189996,58.8561289 970.022,58.8561289 C971.622008,58.8561289 972.981994,59.144126 974.102,59.7201289 C975.222006,60.2961318 976.125997,61.0401243 976.814,61.9521289 C977.502003,62.8641335 977.997998,63.912123 978.302,65.0961289 C978.606002,66.2801348 978.758,67.464123 978.758,68.6481289 L978.758,83.4321289 L970.838,83.4321289 Z M998.779,66.5841289 C998.138997,65.9761259 997.387004,65.464131 996.523,65.0481289 C995.658996,64.6321268 994.747005,64.4241289 993.787,64.4241289 C993.050996,64.4241289 992.371003,64.5681275 991.747,64.8561289 C991.122997,65.1441303 990.811,65.6401254 990.811,66.3441289 C990.811,67.0161323 991.154997,67.4961275 991.843,67.7841289 C992.531003,68.0721303 993.642992,68.3921271 995.179,68.7441289 C996.075004,68.9361299 996.978995,69.2081271 997.891,69.5601289 C998.803005,69.9121307 999.626996,70.376126 1000.363,70.9521289 C1001.099,71.5281318 1001.691,72.2321247 1002.139,73.0641289 C1002.587,73.8961331 1002.811,74.8881231 1002.811,76.0401289 C1002.811,77.5441364 1002.507,78.8161237 1001.899,79.8561289 C1001.291,80.8961341 1000.499,81.7361257 999.523,82.3761289 C998.546995,83.0161321 997.451006,83.4801275 996.235,83.7681289 C995.018994,84.0561303 993.803006,84.2001289 992.587,84.2001289 C990.63499,84.2001289 988.723009,83.888132 986.851,83.2641289 C984.978991,82.6401258 983.419006,81.720135 982.171,80.5041289 L986.587,75.8481289 C987.291004,76.6161327 988.154995,77.2561263 989.179,77.7681289 C990.203005,78.2801315 991.290994,78.5361289 992.443,78.5361289 C993.083003,78.5361289 993.714997,78.3841304 994.339,78.0801289 C994.963003,77.7761274 995.275,77.2401327 995.275,76.4721289 C995.275,75.7361252 994.891004,75.1921307 994.123,74.8401289 C993.354996,74.4881271 992.155008,74.1201308 990.523,73.7361289 C989.690996,73.5441279 988.859004,73.2881305 988.027,72.9681289 C987.194996,72.6481273 986.451003,72.2161316 985.795,71.6721289 C985.138997,71.1281262 984.603002,70.4561329 984.187,69.6561289 C983.770998,68.8561249 983.563,67.8961345 983.563,66.7761289 C983.563,65.3361217 983.866997,64.1121339 984.475,63.1041289 C985.083003,62.0961239 985.866995,61.2721321 986.827,60.6321289 C987.787005,59.9921257 988.850994,59.5201304 990.019,59.2161289 C991.187006,58.9121274 992.346994,58.7601289 993.499,58.7601289 C995.291009,58.7601289 997.042991,59.0401261 998.755,59.6001289 C1000.46701,60.1601317 1001.91499,61.0001233 1003.099,62.1201289 L998.779,66.5841289 Z" id="American-College-of-Emergency-Physicians"></path>
                <path d="M24.3320001,22.7200967 C23.8999979,23.3680999 23.3780032,23.9800938 22.7660001,24.5560967 C22.153997,25.1320996 21.4460041,25.6360945 20.6420001,26.0680967 C19.8379961,26.5000988 18.950005,26.8420954 17.9780001,27.0940967 C17.0059952,27.3460979 15.9440059,27.4720967 14.7920001,27.4720967 C12.8719905,27.4720967 11.0960083,27.1361 9.4640001,26.4640967 C7.83199194,25.7920933 6.42800598,24.8621026 5.2520001,23.6740967 C4.07599422,22.4860907 3.1580034,21.0761048 2.4980001,19.4440967 C1.8379968,17.8120885 1.5080001,16.0241064 1.5080001,14.0800967 C1.5080001,12.136087 1.84399674,10.3481048 2.5160001,8.71609668 C3.18800346,7.08408852 4.11799416,5.67410262 5.3060001,4.48609668 C6.49400604,3.29809074 7.897992,2.36810004 9.5180001,1.69609668 C11.1380082,1.02409332 12.8959906,0.68809668 14.7920001,0.68809668 C15.7280048,0.68809668 16.6459956,0.78409572 17.5460001,0.97609668 C18.4460046,1.16809764 19.2919961,1.43809494 20.0840001,1.78609668 C20.8760041,2.13409842 21.5959969,2.55409422 22.2440001,3.04609668 C22.8920033,3.53809914 23.4319979,4.09609356 23.8640001,4.72009668 L21.7040001,6.30409668 C21.4399988,5.89609464 21.0860023,5.48809872 20.6420001,5.08009668 C20.1979979,4.67209464 19.6760031,4.31209824 19.0760001,4.00009668 C18.4759971,3.68809512 17.8220036,3.43609764 17.1140001,3.24409668 C16.4059966,3.05209572 15.6440042,2.95609668 14.8280001,2.95609668 C13.1719918,2.95609668 11.6900066,3.25609368 10.3820001,3.85609668 C9.07399356,4.45609968 7.96400466,5.26609158 7.0520001,6.28609668 C6.13999554,7.30610178 5.4440025,8.48808996 4.9640001,9.83209668 C4.4839977,11.1761034 4.2440001,12.5920892 4.2440001,14.0800967 C4.2440001,15.5681041 4.48999764,16.98409 4.9820001,18.3280967 C5.47400256,19.6721034 6.17599554,20.8540916 7.0880001,21.8740967 C8.00000466,22.8941018 9.10999356,23.7040937 10.4180001,24.3040967 C11.7260066,24.9040997 13.1959919,25.2040967 14.8280001,25.2040967 C16.2920074,25.2040967 17.6839935,24.9040997 19.0040001,24.3040967 C20.3240067,23.7040937 21.4279957,22.7441033 22.3160001,21.4240967 L24.3320001,22.7200967 Z M53.5570001,14.0800967 C53.5570001,16.0241064 53.2210035,17.8120885 52.5490001,19.4440967 C51.8769967,21.0761048 50.947006,22.4860907 49.7590001,23.6740967 C48.5709942,24.8621026 47.1670082,25.7920933 45.5470001,26.4640967 C43.926992,27.1361 42.1690096,27.4720967 40.2730001,27.4720967 C38.3769906,27.4720967 36.6190082,27.1361 34.9990001,26.4640967 C33.378992,25.7920933 31.975006,24.8621026 30.7870001,23.6740967 C29.5989942,22.4860907 28.6690035,21.0761048 27.9970001,19.4440967 C27.3249967,17.8120885 26.9890001,16.0241064 26.9890001,14.0800967 C26.9890001,12.136087 27.3249967,10.3481048 27.9970001,8.71609668 C28.6690035,7.08408852 29.5989942,5.67410262 30.7870001,4.48609668 C31.975006,3.29809074 33.378992,2.36810004 34.9990001,1.69609668 C36.6190082,1.02409332 38.3769906,0.68809668 40.2730001,0.68809668 C42.1690096,0.68809668 43.926992,1.02409332 45.5470001,1.69609668 C47.1670082,2.36810004 48.5709942,3.29809074 49.7590001,4.48609668 C50.947006,5.67410262 51.8769967,7.08408852 52.5490001,8.71609668 C53.2210035,10.3481048 53.5570001,12.136087 53.5570001,14.0800967 Z M50.8210001,14.0800967 C50.8210001,12.5920892 50.5810025,11.1761034 50.1010001,9.83209668 C49.6209977,8.48808996 48.9250047,7.30610178 48.0130001,6.28609668 C47.1009955,5.26609158 45.9910066,4.45609968 44.6830001,3.85609668 C43.3749936,3.25609368 41.9050083,2.95609668 40.2730001,2.95609668 C38.6409919,2.95609668 37.1710066,3.25609368 35.8630001,3.85609668 C34.5549936,4.45609968 33.4450047,5.26609158 32.5330001,6.28609668 C31.6209955,7.30610178 30.9250025,8.48808996 30.4450001,9.83209668 C29.9649977,11.1761034 29.7250001,12.5920892 29.7250001,14.0800967 C29.7250001,15.5681041 29.9649977,16.98409 30.4450001,18.3280967 C30.9250025,19.6721034 31.6209955,20.8480916 32.5330001,21.8560967 C33.4450047,22.8641017 34.5549936,23.6680937 35.8630001,24.2680967 C37.1710066,24.8680997 38.6409919,25.1680967 40.2730001,25.1680967 C41.9050083,25.1680967 43.3749936,24.8680997 44.6830001,24.2680967 C45.9910066,23.6680937 47.1009955,22.8641017 48.0130001,21.8560967 C48.9250047,20.8480916 49.6209977,19.6721034 50.1010001,18.3280967 C50.5810025,16.98409 50.8210001,15.5681041 50.8210001,14.0800967 Z M61.5420001,24.5200967 L73.4220001,24.5200967 L73.4220001,26.8240967 L58.9500001,26.8240967 L58.9500001,1.33609668 L61.5420001,1.33609668 L61.5420001,24.5200967 Z M101.423,14.0800967 C101.423,16.0241064 101.087003,17.8120885 100.415,19.4440967 C99.7429967,21.0761048 98.813006,22.4860907 97.6250001,23.6740967 C96.4369942,24.8621026 95.0330082,25.7920933 93.4130001,26.4640967 C91.792992,27.1361 90.0350096,27.4720967 88.1390001,27.4720967 C86.2429906,27.4720967 84.4850082,27.1361 82.8650001,26.4640967 C81.244992,25.7920933 79.841006,24.8621026 78.6530001,23.6740967 C77.4649942,22.4860907 76.5350035,21.0761048 75.8630001,19.4440967 C75.1909967,17.8120885 74.8550001,16.0241064 74.8550001,14.0800967 C74.8550001,12.136087 75.1909967,10.3481048 75.8630001,8.71609668 C76.5350035,7.08408852 77.4649942,5.67410262 78.6530001,4.48609668 C79.841006,3.29809074 81.244992,2.36810004 82.8650001,1.69609668 C84.4850082,1.02409332 86.2429906,0.68809668 88.1390001,0.68809668 C90.0350096,0.68809668 91.792992,1.02409332 93.4130001,1.69609668 C95.0330082,2.36810004 96.4369942,3.29809074 97.6250001,4.48609668 C98.813006,5.67410262 99.7429967,7.08408852 100.415,8.71609668 C101.087003,10.3481048 101.423,12.136087 101.423,14.0800967 Z M98.6870001,14.0800967 C98.6870001,12.5920892 98.4470025,11.1761034 97.9670001,9.83209668 C97.4869977,8.48808996 96.7910047,7.30610178 95.8790001,6.28609668 C94.9669955,5.26609158 93.8570066,4.45609968 92.5490001,3.85609668 C91.2409936,3.25609368 89.7710083,2.95609668 88.1390001,2.95609668 C86.5069919,2.95609668 85.0370066,3.25609368 83.7290001,3.85609668 C82.4209936,4.45609968 81.3110047,5.26609158 80.3990001,6.28609668 C79.4869955,7.30610178 78.7910025,8.48808996 78.3110001,9.83209668 C77.8309977,11.1761034 77.5910001,12.5920892 77.5910001,14.0800967 C77.5910001,15.5681041 77.8309977,16.98409 78.3110001,18.3280967 C78.7910025,19.6721034 79.4869955,20.8480916 80.3990001,21.8560967 C81.3110047,22.8641017 82.4209936,23.6680937 83.7290001,24.2680967 C85.0370066,24.8680997 86.5069919,25.1680967 88.1390001,25.1680967 C89.7710083,25.1680967 91.2409936,24.8680997 92.5490001,24.2680967 C93.8570066,23.6680937 94.9669955,22.8641017 95.8790001,21.8560967 C96.7910047,20.8480916 97.4869977,19.6721034 97.9670001,18.3280967 C98.4470025,16.98409 98.6870001,15.5681041 98.6870001,14.0800967 Z M109.408,26.8240967 L106.816,26.8240967 L106.816,1.33609668 L114.304,1.33609668 C115.552006,1.33609668 116.709995,1.45609548 117.778,1.69609668 C118.846005,1.93609788 119.769996,2.32609398 120.55,2.86609668 C121.330004,3.40609938 121.935998,4.10809236 122.368,4.97209668 C122.800002,5.836101 123.016,6.89209044 123.016,8.14009668 C123.016,9.07610136 122.848002,9.92809284 122.512,10.6960967 C122.175998,11.4641005 121.720003,12.1300939 121.144,12.6940967 C120.567997,13.2580995 119.884004,13.708095 119.092,14.0440967 C118.299996,14.3800984 117.436005,14.5960962 116.5,14.6920967 L123.952,26.8240967 L120.784,26.8240967 L113.728,14.9080967 L109.408,14.9080967 L109.408,26.8240967 Z M109.408,12.6760967 L113.908,12.6760967 C115.996011,12.6760967 117.603994,12.2981005 118.732,11.5420967 C119.860006,10.7860929 120.424,9.65210424 120.424,8.14009668 C120.424,7.30009248 120.268002,6.59209956 119.956,6.01609668 C119.643999,5.4400938 119.212003,4.97209848 118.66,4.61209668 C118.107997,4.25209488 117.436004,3.98809752 116.644,3.82009668 C115.851996,3.65209584 114.976005,3.56809668 114.016,3.56809668 L109.408,3.56809668 L109.408,12.6760967 Z M128.193,26.8240967 L125.349,26.8240967 L136.365,1.33609668 L138.885,1.33609668 L149.829,26.8240967 L146.949,26.8240967 L144.141,20.1280967 L130.965,20.1280967 L128.193,26.8240967 Z M131.937,17.7520967 L143.169,17.7520967 L137.553,4.21609668 L131.937,17.7520967 Z M153.566,1.33609668 L162.026,1.33609668 C163.610008,1.33609668 165.199992,1.60009404 166.796,2.12809668 C168.392008,2.65609932 169.831994,3.45409134 171.116,4.52209668 C172.400007,5.59010202 173.437996,6.9220887 174.23,8.51809668 C175.022004,10.1141047 175.418,11.9680861 175.418,14.0800967 C175.418,16.2161074 175.022004,18.0760888 174.23,19.6600967 C173.437996,21.2441046 172.400007,22.5700913 171.116,23.6380967 C169.831994,24.706102 168.392008,25.504094 166.796,26.0320967 C165.199992,26.5600993 163.610008,26.8240967 162.026,26.8240967 L153.566,26.8240967 L153.566,1.33609668 Z M156.158,24.5200967 L161.306,24.5200967 C163.22601,24.5200967 164.899993,24.2200997 166.328,23.6200967 C167.756007,23.0200937 168.937995,22.2341015 169.874,21.2620967 C170.810005,20.2900918 171.511998,19.1801029 171.98,17.9320967 C172.448002,16.6840904 172.682,15.4001033 172.682,14.0800967 C172.682,12.7600901 172.448002,11.4761029 171.98,10.2280967 C171.511998,8.98009044 170.810005,7.87010154 169.874,6.89809668 C168.937995,5.92609182 167.756007,5.14009968 166.328,4.54009668 C164.899993,3.94009368 163.22601,3.64009668 161.306,3.64009668 L156.158,3.64009668 L156.158,24.5200967 Z M206.011,14.0800967 C206.011,16.0241064 205.675003,17.8120885 205.003,19.4440967 C204.330997,21.0761048 203.401006,22.4860907 202.213,23.6740967 C201.024994,24.8621026 199.621008,25.7920933 198.001,26.4640967 C196.380992,27.1361 194.62301,27.4720967 192.727,27.4720967 C190.830991,27.4720967 189.073008,27.1361 187.453,26.4640967 C185.832992,25.7920933 184.429006,24.8621026 183.241,23.6740967 C182.052994,22.4860907 181.123003,21.0761048 180.451,19.4440967 C179.778997,17.8120885 179.443,16.0241064 179.443,14.0800967 C179.443,12.136087 179.778997,10.3481048 180.451,8.71609668 C181.123003,7.08408852 182.052994,5.67410262 183.241,4.48609668 C184.429006,3.29809074 185.832992,2.36810004 187.453,1.69609668 C189.073008,1.02409332 190.830991,0.68809668 192.727,0.68809668 C194.62301,0.68809668 196.380992,1.02409332 198.001,1.69609668 C199.621008,2.36810004 201.024994,3.29809074 202.213,4.48609668 C203.401006,5.67410262 204.330997,7.08408852 205.003,8.71609668 C205.675003,10.3481048 206.011,12.136087 206.011,14.0800967 Z M203.275,14.0800967 C203.275,12.5920892 203.035002,11.1761034 202.555,9.83209668 C202.074998,8.48808996 201.379005,7.30610178 200.467,6.28609668 C199.554996,5.26609158 198.445007,4.45609968 197.137,3.85609668 C195.828994,3.25609368 194.359008,2.95609668 192.727,2.95609668 C191.094992,2.95609668 189.625007,3.25609368 188.317,3.85609668 C187.008994,4.45609968 185.899005,5.26609158 184.987,6.28609668 C184.074996,7.30610178 183.379002,8.48808996 182.899,9.83209668 C182.418998,11.1761034 182.179,12.5920892 182.179,14.0800967 C182.179,15.5681041 182.418998,16.98409 182.899,18.3280967 C183.379002,19.6721034 184.074996,20.8480916 184.987,21.8560967 C185.899005,22.8641017 187.008994,23.6680937 188.317,24.2680967 C189.625007,24.8680997 191.094992,25.1680967 192.727,25.1680967 C194.359008,25.1680967 195.828994,24.8680997 197.137,24.2680967 C198.445007,23.6680937 199.554996,22.8641017 200.467,21.8560967 C201.379005,20.8480916 202.074998,19.6721034 202.555,18.3280967 C203.035002,16.98409 203.275,15.5681041 203.275,14.0800967 Z M241.853,22.7200967 C241.420998,23.3680999 240.899003,23.9800938 240.287,24.5560967 C239.674997,25.1320996 238.967004,25.6360945 238.163,26.0680967 C237.358996,26.5000988 236.471005,26.8420954 235.499,27.0940967 C234.526995,27.3460979 233.465006,27.4720967 232.313,27.4720967 C230.39299,27.4720967 228.617008,27.1361 226.985,26.4640967 C225.352992,25.7920933 223.949006,24.8621026 222.773,23.6740967 C221.596994,22.4860907 220.679003,21.0761048 220.019,19.4440967 C219.358997,17.8120885 219.029,16.0241064 219.029,14.0800967 C219.029,12.136087 219.364997,10.3481048 220.037,8.71609668 C220.709003,7.08408852 221.638994,5.67410262 222.827,4.48609668 C224.015006,3.29809074 225.418992,2.36810004 227.039,1.69609668 C228.659008,1.02409332 230.416991,0.68809668 232.313,0.68809668 C233.249005,0.68809668 234.166996,0.78409572 235.067,0.97609668 C235.967005,1.16809764 236.812996,1.43809494 237.605,1.78609668 C238.397004,2.13409842 239.116997,2.55409422 239.765,3.04609668 C240.413003,3.53809914 240.952998,4.09609356 241.385,4.72009668 L239.225,6.30409668 C238.960999,5.89609464 238.607002,5.48809872 238.163,5.08009668 C237.718998,4.67209464 237.197003,4.31209824 236.597,4.00009668 C235.996997,3.68809512 235.343004,3.43609764 234.635,3.24409668 C233.926997,3.05209572 233.165004,2.95609668 232.349,2.95609668 C230.692992,2.95609668 229.211007,3.25609368 227.903,3.85609668 C226.594994,4.45609968 225.485005,5.26609158 224.573,6.28609668 C223.660996,7.30610178 222.965002,8.48808996 222.485,9.83209668 C222.004998,11.1761034 221.765,12.5920892 221.765,14.0800967 C221.765,15.5681041 222.010998,16.98409 222.503,18.3280967 C222.995003,19.6721034 223.696996,20.8540916 224.609,21.8740967 C225.521005,22.8941018 226.630994,23.7040937 227.939,24.3040967 C229.247007,24.9040997 230.716992,25.2040967 232.349,25.2040967 C233.813007,25.2040967 235.204993,24.9040997 236.525,24.3040967 C237.845007,23.7040937 238.948996,22.7441033 239.837,21.4240967 L241.853,22.7200967 Z M246.31,1.33609668 L248.902,1.33609668 L248.902,12.3880967 L262.798,12.3880967 L262.798,1.33609668 L265.39,1.33609668 L265.39,26.8240967 L262.798,26.8240967 L262.798,14.7640967 L248.902,14.7640967 L248.902,26.8240967 L246.31,26.8240967 L246.31,1.33609668 Z M271.971,26.8240967 L269.127,26.8240967 L280.143,1.33609668 L282.663,1.33609668 L293.607,26.8240967 L290.727,26.8240967 L287.919,20.1280967 L274.743,20.1280967 L271.971,26.8240967 Z M275.715,17.7520967 L286.947,17.7520967 L281.331,4.21609668 L275.715,17.7520967 Z M297.344,1.33609668 L304.544,1.33609668 C305.840007,1.33609668 307.015995,1.4740953 308.072,1.75009668 C309.128005,2.02609806 310.033996,2.44609386 310.79,3.01009668 C311.546004,3.5740995 312.127998,4.28209242 312.536,5.13409668 C312.944002,5.98610094 313.148,6.98809092 313.148,8.14009668 C313.148,9.29210244 312.938002,10.2940924 312.518,11.1460967 C312.097998,11.9981009 311.510004,12.7060939 310.754,13.2700967 C309.997996,13.8340995 309.086005,14.2600952 308.018,14.5480967 C306.949995,14.8360981 305.768007,14.9800967 304.472,14.9800967 L299.936,14.9800967 L299.936,26.8240967 L297.344,26.8240967 L297.344,1.33609668 Z M299.936,12.7840967 L304.328,12.7840967 C306.36801,12.7840967 307.915995,12.3881006 308.972,11.5960967 C310.028005,10.8040927 310.556,9.65210424 310.556,8.14009668 C310.556,6.55608876 310.010006,5.39810034 308.918,4.66609668 C307.825995,3.93409302 306.29601,3.56809668 304.328,3.56809668 L299.936,3.56809668 L299.936,12.7840967 Z M326.173,26.8240967 L323.581,26.8240967 L323.581,3.64009668 L315.049,3.64009668 L315.049,1.33609668 L334.705,1.33609668 L334.705,3.64009668 L326.173,3.64009668 L326.173,26.8240967 Z M341.106,24.5200967 L354.75,24.5200967 L354.75,26.8240967 L338.514,26.8240967 L338.514,1.33609668 L354.318,1.33609668 L354.318,3.64009668 L341.106,3.64009668 L341.106,12.4240967 L353.454,12.4240967 L353.454,14.6920967 L341.106,14.6920967 L341.106,24.5200967 Z M362.411,26.8240967 L359.819,26.8240967 L359.819,1.33609668 L367.307,1.33609668 C368.555006,1.33609668 369.712995,1.45609548 370.781,1.69609668 C371.849005,1.93609788 372.772996,2.32609398 373.553,2.86609668 C374.333004,3.40609938 374.938998,4.10809236 375.371,4.97209668 C375.803002,5.836101 376.019,6.89209044 376.019,8.14009668 C376.019,9.07610136 375.851002,9.92809284 375.515,10.6960967 C375.178998,11.4641005 374.723003,12.1300939 374.147,12.6940967 C373.570997,13.2580995 372.887004,13.708095 372.095,14.0440967 C371.302996,14.3800984 370.439005,14.5960962 369.503,14.6920967 L376.955,26.8240967 L373.787,26.8240967 L366.731,14.9080967 L362.411,14.9080967 L362.411,26.8240967 Z M362.411,12.6760967 L366.911,12.6760967 C368.999011,12.6760967 370.606994,12.2981005 371.735,11.5420967 C372.863006,10.7860929 373.427,9.65210424 373.427,8.14009668 C373.427,7.30009248 373.271002,6.59209956 372.959,6.01609668 C372.646999,5.4400938 372.215003,4.97209848 371.663,4.61209668 C371.110997,4.25209488 370.439004,3.98809752 369.647,3.82009668 C368.854996,3.65209584 367.979005,3.56809668 367.019,3.56809668 L362.411,3.56809668 L362.411,12.6760967 Z" id="COLORADO-CHAPTER"></path>
                <path d="M4.6900001,141.824097 L1.8460001,141.824097 L12.8620001,116.336097 L15.3820001,116.336097 L26.3260001,141.824097 L23.4460001,141.824097 L20.6380001,135.128097 L7.4620001,135.128097 L4.6900001,141.824097 Z M8.4340001,132.752097 L19.6660001,132.752097 L14.0500001,119.216097 L8.4340001,132.752097 Z M30.0750001,116.336097 L38.5350001,116.336097 C40.119008,116.336097 41.7089921,116.600094 43.3050001,117.128097 C44.9010081,117.656099 46.3409937,118.454091 47.6250001,119.522097 C48.9090065,120.590102 49.9469961,121.922089 50.7390001,123.518097 C51.5310041,125.114105 51.9270001,126.968086 51.9270001,129.080097 C51.9270001,131.216107 51.5310041,133.076089 50.7390001,134.660097 C49.9469961,136.244105 48.9090065,137.570091 47.6250001,138.638097 C46.3409937,139.706102 44.9010081,140.504094 43.3050001,141.032097 C41.7089921,141.560099 40.119008,141.824097 38.5350001,141.824097 L30.0750001,141.824097 L30.0750001,116.336097 Z M32.6670001,139.520097 L37.8150001,139.520097 C39.7350097,139.520097 41.408993,139.2201 42.8370001,138.620097 C44.2650072,138.020094 45.4469954,137.234102 46.3830001,136.262097 C47.3190048,135.290092 48.0209978,134.180103 48.4890001,132.932097 C48.9570024,131.68409 49.1910001,130.400103 49.1910001,129.080097 C49.1910001,127.76009 48.9570024,126.476103 48.4890001,125.228097 C48.0209978,123.98009 47.3190048,122.870102 46.3830001,121.898097 C45.4469954,120.926092 44.2650072,120.1401 42.8370001,119.540097 C41.408993,118.940094 39.7350097,118.640097 37.8150001,118.640097 L32.6670001,118.640097 L32.6670001,139.520097 Z M64.7120001,138.476097 L64.7840001,138.476097 L73.0640001,116.336097 L75.8360001,116.336097 L66.0800001,141.824097 L63.3440001,141.824097 L53.6240001,116.336097 L56.4320001,116.336097 L64.7120001,138.476097 Z M78.0730001,141.824097 L75.2290001,141.824097 L86.2450001,116.336097 L88.7650001,116.336097 L99.7090001,141.824097 L96.8290001,141.824097 L94.0210001,135.128097 L80.8450001,135.128097 L78.0730001,141.824097 Z M81.8170001,132.752097 L93.0490001,132.752097 L87.4330001,119.216097 L81.8170001,132.752097 Z M121.53,138.044097 L121.602,138.044097 L121.602,116.336097 L124.194,116.336097 L124.194,141.824097 L120.954,141.824097 L106.122,119.900097 L106.05,119.900097 L106.05,141.824097 L103.458,141.824097 L103.458,116.336097 L106.698,116.336097 L121.53,138.044097 Z M152.423,137.720097 C151.990998,138.3681 151.469003,138.980094 150.857,139.556097 C150.244997,140.1321 149.537004,140.636095 148.733,141.068097 C147.928996,141.500099 147.041005,141.842095 146.069,142.094097 C145.096995,142.346098 144.035006,142.472097 142.883,142.472097 C140.96299,142.472097 139.187008,142.1361 137.555,141.464097 C135.922992,140.792093 134.519006,139.862103 133.343,138.674097 C132.166994,137.486091 131.249003,136.076105 130.589,134.444097 C129.928997,132.812089 129.599,131.024106 129.599,129.080097 C129.599,127.136087 129.934997,125.348105 130.607,123.716097 C131.279003,122.084089 132.208994,120.674103 133.397,119.486097 C134.585006,118.298091 135.988992,117.3681 137.609,116.696097 C139.229008,116.024093 140.986991,115.688097 142.883,115.688097 C143.819005,115.688097 144.736996,115.784096 145.637,115.976097 C146.537005,116.168098 147.382996,116.438095 148.175,116.786097 C148.967004,117.134098 149.686997,117.554094 150.335,118.046097 C150.983003,118.538099 151.522998,119.096094 151.955,119.720097 L149.795,121.304097 C149.530999,120.896095 149.177002,120.488099 148.733,120.080097 C148.288998,119.672095 147.767003,119.312098 147.167,119.000097 C146.566997,118.688095 145.913004,118.436098 145.205,118.244097 C144.496997,118.052096 143.735004,117.956097 142.919,117.956097 C141.262992,117.956097 139.781007,118.256094 138.473,118.856097 C137.164994,119.4561 136.055005,120.266092 135.143,121.286097 C134.230996,122.306102 133.535002,123.48809 133.055,124.832097 C132.574998,126.176103 132.335,127.592089 132.335,129.080097 C132.335,130.568104 132.580998,131.98409 133.073,133.328097 C133.565003,134.672103 134.266996,135.854092 135.179,136.874097 C136.091005,137.894102 137.200994,138.704094 138.509,139.304097 C139.817007,139.9041 141.286992,140.204097 142.919,140.204097 C144.383007,140.204097 145.774993,139.9041 147.095,139.304097 C148.415007,138.704094 149.518996,137.744103 150.407,136.424097 L152.423,137.720097 Z M159.484,141.824097 L156.892,141.824097 L156.892,116.336097 L159.484,116.336097 L159.484,141.824097 Z M184.329,138.044097 L184.401,138.044097 L184.401,116.336097 L186.993,116.336097 L186.993,141.824097 L183.753,141.824097 L168.921,119.900097 L168.849,119.900097 L168.849,141.824097 L166.257,141.824097 L166.257,116.336097 L169.497,116.336097 L184.329,138.044097 Z M213.098,120.908097 C212.209996,119.972092 211.154006,119.246099 209.93,118.730097 C208.705994,118.214094 207.302008,117.956097 205.718,117.956097 C204.085992,117.956097 202.616007,118.256094 201.308,118.856097 C199.999994,119.4561 198.890005,120.266092 197.978,121.286097 C197.065996,122.306102 196.364003,123.48809 195.872,124.832097 C195.379998,126.176103 195.134,127.592089 195.134,129.080097 C195.134,130.568104 195.379998,131.98409 195.872,133.328097 C196.364003,134.672103 197.065996,135.848092 197.978,136.856097 C198.890005,137.864102 199.999994,138.668094 201.308,139.268097 C202.616007,139.8681 204.085992,140.168097 205.718,140.168097 C207.158007,140.168097 208.477994,140.012098 209.678,139.700097 C210.878006,139.388095 211.849996,138.992099 212.594,138.512097 L212.594,130.772097 L206.654,130.772097 L206.654,128.504097 L215.186,128.504097 L215.186,139.988097 C213.793993,140.828101 212.294008,141.452095 210.686,141.860097 C209.077992,142.268099 207.410009,142.472097 205.682,142.472097 C203.76199,142.472097 201.986008,142.1361 200.354,141.464097 C198.721992,140.792093 197.318006,139.862103 196.142,138.674097 C194.965994,137.486091 194.048003,136.076105 193.388,134.444097 C192.727997,132.812089 192.398,131.024106 192.398,129.080097 C192.398,127.136087 192.733997,125.348105 193.406,123.716097 C194.078003,122.084089 195.007994,120.674103 196.196,119.486097 C197.384006,118.298091 198.787992,117.3681 200.408,116.696097 C202.028008,116.024093 203.785991,115.688097 205.682,115.688097 C207.72201,115.688097 209.497993,115.988094 211.01,116.588097 C212.522008,117.1881 213.817995,118.028091 214.898,119.108097 L213.098,120.908097 Z M233.412,139.520097 L247.056,139.520097 L247.056,141.824097 L230.82,141.824097 L230.82,116.336097 L246.624,116.336097 L246.624,118.640097 L233.412,118.640097 L233.412,127.424097 L245.76,127.424097 L245.76,129.692097 L233.412,129.692097 L233.412,139.520097 Z M264.737,137.432097 L264.773,137.432097 L273.305,116.336097 L277.265,116.336097 L277.265,141.824097 L274.673,141.824097 L274.673,119.684097 L274.601,119.684097 L265.385,141.824097 L264.017,141.824097 L254.801,119.684097 L254.729,119.684097 L254.729,141.824097 L252.137,141.824097 L252.137,116.336097 L256.097,116.336097 L264.737,137.432097 Z M286.63,139.520097 L300.274,139.520097 L300.274,141.824097 L284.038,141.824097 L284.038,116.336097 L299.842,116.336097 L299.842,118.640097 L286.63,118.640097 L286.63,127.424097 L298.978,127.424097 L298.978,129.692097 L286.63,129.692097 L286.63,139.520097 Z M307.947,141.824097 L305.355,141.824097 L305.355,116.336097 L312.843,116.336097 C314.091006,116.336097 315.248995,116.456095 316.317,116.696097 C317.385005,116.936098 318.308996,117.326094 319.089,117.866097 C319.869004,118.406099 320.474998,119.108092 320.907,119.972097 C321.339002,120.836101 321.555,121.89209 321.555,123.140097 C321.555,124.076101 321.387002,124.928093 321.051,125.696097 C320.714998,126.464101 320.259003,127.130094 319.683,127.694097 C319.106997,128.258099 318.423004,128.708095 317.631,129.044097 C316.838996,129.380098 315.975005,129.596096 315.039,129.692097 L322.491,141.824097 L319.323,141.824097 L312.267,129.908097 L307.947,129.908097 L307.947,141.824097 Z M307.947,127.676097 L312.447,127.676097 C314.535011,127.676097 316.142994,127.2981 317.271,126.542097 C318.399006,125.786093 318.963,124.652104 318.963,123.140097 C318.963,122.300092 318.807002,121.5921 318.495,121.016097 C318.182999,120.440094 317.751003,119.972098 317.199,119.612097 C316.646997,119.252095 315.975004,118.988098 315.183,118.820097 C314.390996,118.652096 313.515005,118.568097 312.555,118.568097 L307.947,118.568097 L307.947,127.676097 Z M346.256,120.908097 C345.367996,119.972092 344.312006,119.246099 343.088,118.730097 C341.863994,118.214094 340.460008,117.956097 338.876,117.956097 C337.243992,117.956097 335.774007,118.256094 334.466,118.856097 C333.157994,119.4561 332.048005,120.266092 331.136,121.286097 C330.223996,122.306102 329.522003,123.48809 329.03,124.832097 C328.537998,126.176103 328.292,127.592089 328.292,129.080097 C328.292,130.568104 328.537998,131.98409 329.03,133.328097 C329.522003,134.672103 330.223996,135.848092 331.136,136.856097 C332.048005,137.864102 333.157994,138.668094 334.466,139.268097 C335.774007,139.8681 337.243992,140.168097 338.876,140.168097 C340.316007,140.168097 341.635994,140.012098 342.836,139.700097 C344.036006,139.388095 345.007996,138.992099 345.752,138.512097 L345.752,130.772097 L339.812,130.772097 L339.812,128.504097 L348.344,128.504097 L348.344,139.988097 C346.951993,140.828101 345.452008,141.452095 343.844,141.860097 C342.235992,142.268099 340.568009,142.472097 338.84,142.472097 C336.91999,142.472097 335.144008,142.1361 333.512,141.464097 C331.879992,140.792093 330.476006,139.862103 329.3,138.674097 C328.123994,137.486091 327.206003,136.076105 326.546,134.444097 C325.885997,132.812089 325.556,131.024106 325.556,129.080097 C325.556,127.136087 325.891997,125.348105 326.564,123.716097 C327.236003,122.084089 328.165994,120.674103 329.354,119.486097 C330.542006,118.298091 331.945992,117.3681 333.566,116.696097 C335.186008,116.024093 336.943991,115.688097 338.84,115.688097 C340.88001,115.688097 342.655993,115.988094 344.168,116.588097 C345.680008,117.1881 346.975995,118.028091 348.056,119.108097 L346.256,120.908097 Z M357.565,139.520097 L371.209,139.520097 L371.209,141.824097 L354.973,141.824097 L354.973,116.336097 L370.777,116.336097 L370.777,118.640097 L357.565,118.640097 L357.565,127.424097 L369.913,127.424097 L369.913,129.692097 L357.565,129.692097 L357.565,139.520097 Z M394.362,138.044097 L394.434,138.044097 L394.434,116.336097 L397.026,116.336097 L397.026,141.824097 L393.786,141.824097 L378.954,119.900097 L378.882,119.900097 L378.882,141.824097 L376.29,141.824097 L376.29,116.336097 L379.53,116.336097 L394.362,138.044097 Z M425.255,137.720097 C424.822998,138.3681 424.301003,138.980094 423.689,139.556097 C423.076997,140.1321 422.369004,140.636095 421.565,141.068097 C420.760996,141.500099 419.873005,141.842095 418.901,142.094097 C417.928995,142.346098 416.867006,142.472097 415.715,142.472097 C413.79499,142.472097 412.019008,142.1361 410.387,141.464097 C408.754992,140.792093 407.351006,139.862103 406.175,138.674097 C404.998994,137.486091 404.081003,136.076105 403.421,134.444097 C402.760997,132.812089 402.431,131.024106 402.431,129.080097 C402.431,127.136087 402.766997,125.348105 403.439,123.716097 C404.111003,122.084089 405.040994,120.674103 406.229,119.486097 C407.417006,118.298091 408.820992,117.3681 410.441,116.696097 C412.061008,116.024093 413.818991,115.688097 415.715,115.688097 C416.651005,115.688097 417.568996,115.784096 418.469,115.976097 C419.369005,116.168098 420.214996,116.438095 421.007,116.786097 C421.799004,117.134098 422.518997,117.554094 423.167,118.046097 C423.815003,118.538099 424.354998,119.096094 424.787,119.720097 L422.627,121.304097 C422.362999,120.896095 422.009002,120.488099 421.565,120.080097 C421.120998,119.672095 420.599003,119.312098 419.999,119.000097 C419.398997,118.688095 418.745004,118.436098 418.037,118.244097 C417.328997,118.052096 416.567004,117.956097 415.751,117.956097 C414.094992,117.956097 412.613007,118.256094 411.305,118.856097 C409.996994,119.4561 408.887005,120.266092 407.975,121.286097 C407.062996,122.306102 406.367002,123.48809 405.887,124.832097 C405.406998,126.176103 405.167,127.592089 405.167,129.080097 C405.167,130.568104 405.412998,131.98409 405.905,133.328097 C406.397003,134.672103 407.098996,135.854092 408.011,136.874097 C408.923005,137.894102 410.032994,138.704094 411.341,139.304097 C412.649007,139.9041 414.118992,140.204097 415.751,140.204097 C417.215007,140.204097 418.606993,139.9041 419.927,139.304097 C421.247007,138.704094 422.350996,137.744103 423.239,136.424097 L425.255,137.720097 Z M438.04,141.824097 L435.448,141.824097 L435.448,130.844097 L425.908,116.336097 L429.148,116.336097 L436.816,128.684097 L444.556,116.336097 L447.58,116.336097 L438.04,130.844097 L438.04,141.824097 Z M480.566,137.720097 C480.133998,138.3681 479.612003,138.980094 479,139.556097 C478.387997,140.1321 477.680004,140.636095 476.876,141.068097 C476.071996,141.500099 475.184005,141.842095 474.212,142.094097 C473.239995,142.346098 472.178006,142.472097 471.026,142.472097 C469.10599,142.472097 467.330008,142.1361 465.698,141.464097 C464.065992,140.792093 462.662006,139.862103 461.486,138.674097 C460.309994,137.486091 459.392003,136.076105 458.732,134.444097 C458.071997,132.812089 457.742,131.024106 457.742,129.080097 C457.742,127.136087 458.077997,125.348105 458.75,123.716097 C459.422003,122.084089 460.351994,120.674103 461.54,119.486097 C462.728006,118.298091 464.131992,117.3681 465.752,116.696097 C467.372008,116.024093 469.129991,115.688097 471.026,115.688097 C471.962005,115.688097 472.879996,115.784096 473.78,115.976097 C474.680005,116.168098 475.525996,116.438095 476.318,116.786097 C477.110004,117.134098 477.829997,117.554094 478.478,118.046097 C479.126003,118.538099 479.665998,119.096094 480.098,119.720097 L477.938,121.304097 C477.673999,120.896095 477.320002,120.488099 476.876,120.080097 C476.431998,119.672095 475.910003,119.312098 475.31,119.000097 C474.709997,118.688095 474.056004,118.436098 473.348,118.244097 C472.639997,118.052096 471.878004,117.956097 471.062,117.956097 C469.405992,117.956097 467.924007,118.256094 466.616,118.856097 C465.307994,119.4561 464.198005,120.266092 463.286,121.286097 C462.373996,122.306102 461.678002,123.48809 461.198,124.832097 C460.717998,126.176103 460.478,127.592089 460.478,129.080097 C460.478,130.568104 460.723998,131.98409 461.216,133.328097 C461.708003,134.672103 462.409996,135.854092 463.322,136.874097 C464.234005,137.894102 465.343994,138.704094 466.652,139.304097 C467.960007,139.9041 469.429992,140.204097 471.062,140.204097 C472.526007,140.204097 473.917993,139.9041 475.238,139.304097 C476.558007,138.704094 477.661996,137.744103 478.55,136.424097 L480.566,137.720097 Z M484.423,141.824097 L481.579,141.824097 L492.595,116.336097 L495.115,116.336097 L506.059,141.824097 L503.179,141.824097 L500.371,135.128097 L487.195,135.128097 L484.423,141.824097 Z M488.167,132.752097 L499.399,132.752097 L493.783,119.216097 L488.167,132.752097 Z M512.4,141.824097 L509.808,141.824097 L509.808,116.336097 L517.296,116.336097 C518.544006,116.336097 519.701995,116.456095 520.77,116.696097 C521.838005,116.936098 522.761996,117.326094 523.542,117.866097 C524.322004,118.406099 524.927998,119.108092 525.36,119.972097 C525.792002,120.836101 526.008,121.89209 526.008,123.140097 C526.008,124.076101 525.840002,124.928093 525.504,125.696097 C525.167998,126.464101 524.712003,127.130094 524.136,127.694097 C523.559997,128.258099 522.876004,128.708095 522.084,129.044097 C521.291996,129.380098 520.428005,129.596096 519.492,129.692097 L526.944,141.824097 L523.776,141.824097 L516.72,129.908097 L512.4,129.908097 L512.4,141.824097 Z M512.4,127.676097 L516.9,127.676097 C518.988011,127.676097 520.595994,127.2981 521.724,126.542097 C522.852006,125.786093 523.416,124.652104 523.416,123.140097 C523.416,122.300092 523.260002,121.5921 522.948,121.016097 C522.635999,120.440094 522.204003,119.972098 521.652,119.612097 C521.099997,119.252095 520.428004,118.988098 519.636,118.820097 C518.843996,118.652096 517.968005,118.568097 517.008,118.568097 L512.4,118.568097 L512.4,127.676097 Z M533.969,139.520097 L547.613,139.520097 L547.613,141.824097 L531.377,141.824097 L531.377,116.336097 L547.181,116.336097 L547.181,118.640097 L533.969,118.640097 L533.969,127.424097 L546.317,127.424097 L546.317,129.692097 L533.969,129.692097 L533.969,139.520097 Z" id="ADVANCING-EMERGENCY-CARE"></path>
            </g>
        </g>
    </g>
</svg>