<svg width="550" height="143" viewBox="0 0 550 143" fill="none" xmlns="http://www.w3.org/2000/svg">
<path fill-rule="evenodd" clip-rule="evenodd" d="M137.066 97.9793C124.299 129.539 90.9593 147.628 57.5416 141.125C24.1239 134.622 0 105.351 0 71.3062C0 37.2616 24.1239 7.99064 57.5416 1.48754C90.9593 -5.01557 124.299 13.0729 137.066 44.633L71.1283 71.3062L137.066 97.9793Z" fill="#BF2C34"/>
<path d="M71.1283 106.87C90.7699 106.87 106.692 90.9477 106.692 71.3062C106.692 51.6646 90.7699 35.742 71.1283 35.742C51.4868 35.742 35.5641 51.6646 35.5641 71.3062C35.5641 90.9477 51.4868 106.87 71.1283 106.87Z" fill="#F6D047"/>
<mask id="mask0" mask-type="alpha" maskUnits="userSpaceOnUse" x="0" y="0" width="138" height="143">
<path d="M137.066 97.9793C124.299 129.539 90.9593 147.628 57.5416 141.125C24.1239 134.622 0 105.351 0 71.3062C0 37.2616 24.1239 7.99064 57.5416 1.48754C90.9593 -5.01557 124.299 13.0729 137.066 44.633L71.1283 71.3062L137.066 97.9793Z" fill="white"/>
</mask>
<g mask="url(#mask0)">
<path fill-rule="evenodd" clip-rule="evenodd" d="M61.763 83.398L81.0098 105.826L93.8925 107.07L110.839 130.741L24.3361 119.551L17.2486 110.345L28.4781 98.1735L36.8687 107.07L61.763 83.398Z" fill="white"/>
<path fill-rule="evenodd" clip-rule="evenodd" d="M127.272 143.528C119.087 132.864 93.9832 99.8918 93.9832 99.8918C93.3823 99.1005 92.4342 98.5887 91.3936 98.4908C90.347 98.3975 89.3146 98.7165 88.5503 99.3769L81.9723 105.07L66.5364 78.581C65.9105 77.512 64.712 76.8379 63.3965 76.8216C62.1048 76.7679 60.8603 77.4479 60.206 78.501L37 106.896C34.6037 104.297 31.441 96 29.5 96C28.951 96 28.5933 96.2586 27.2066 97.5C23.6908 100.647 17.3387 108.469 15.5 110.472L8.09362 119.664C7.45003 120.701 18.6899 146.561 19.3335 147.596C19.9842 148.629 21.18 149.267 22.4707 149.267H124.662C126.735 149.267 128.354 147.768 128.354 145.918C128.354 144.981 127.814 144.234 127.272 143.528ZM83.493 112.93L90.4608 106.896L104.315 125.055C104.315 125.055 93.0519 113.942 90.4608 113.942C87.8696 113.942 82.7218 121.463 82.7218 121.463C82.7218 121.463 81.285 120.575 80.3151 118.852C79.3451 117.129 80.9853 115.283 80.9853 115.283C80.9853 115.283 82.8139 113.515 83.493 112.93ZM63.244 87.0542L72.2312 102.472C72.2312 102.472 66.68 108.256 64.6664 108.256C62.6527 108.256 64.234 101.703 59.3501 102.472C54.4661 103.24 42.9472 108.976 42.9472 108.976L63.244 87.0542ZM28.559 100.815L32.7163 110.472C32.7163 110.472 29.7299 107.907 27.2066 107.767C24.6833 107.627 19.5599 113.907 19.993 111.68C20.4262 109.454 28.559 100.815 28.559 100.815Z" fill="#0F2679"/>
</g>
<path fill-rule="evenodd" clip-rule="evenodd" d="M173.452 75.816L172.433 73.2406H167.357L166.393 75.816H162.947L168.45 62.6983H171.525L176.972 75.816H173.452ZM169.932 66.2L168.265 70.7023H171.562L169.932 66.2ZM189.683 75.816V70.7764C189.683 70.517 189.665 70.2669 189.628 70.026C189.591 69.7852 189.523 69.5783 189.424 69.4053C189.325 69.2324 189.192 69.0935 189.026 68.9885C188.859 68.8835 188.64 68.831 188.368 68.831C188.108 68.831 187.883 68.8866 187.692 68.9977C187.5 69.1089 187.34 69.2571 187.21 69.4424C187.08 69.6277 186.984 69.8408 186.923 70.0816C186.861 70.3225 186.83 70.5726 186.83 70.832V75.816H183.792V70.5541C183.792 70.0229 183.687 69.603 183.477 69.2942C183.267 68.9854 182.933 68.831 182.476 68.831C181.995 68.831 181.621 69.0224 181.355 69.4053C181.09 69.7883 180.957 70.2576 180.957 70.8135V75.816H177.9V66.5891H180.846V67.8675H180.883C180.994 67.6699 181.133 67.4785 181.3 67.2932C181.467 67.1079 181.667 66.9442 181.902 66.8022C182.137 66.6601 182.399 66.5459 182.689 66.4594C182.98 66.373 183.298 66.3297 183.644 66.3297C184.31 66.3297 184.876 66.4656 185.339 66.7373C185.802 67.0091 186.163 67.3982 186.423 67.9046C186.731 67.4229 187.127 67.04 187.608 66.7559C188.09 66.4718 188.677 66.3297 189.368 66.3297C189.998 66.3297 190.526 66.444 190.952 66.6725C191.378 66.901 191.721 67.1974 191.98 67.5618C192.24 67.9262 192.428 68.3338 192.546 68.7847C192.663 69.2355 192.722 69.6771 192.722 70.1094V75.816H189.683ZM201.375 70.1465C201.375 69.6647 201.224 69.251 200.922 68.9051C200.619 68.5592 200.165 68.3863 199.56 68.3863C199.263 68.3863 198.992 68.4326 198.745 68.5253C198.498 68.6179 198.281 68.7445 198.096 68.9051C197.911 69.0657 197.763 69.254 197.652 69.4702C197.54 69.6864 197.479 69.9118 197.466 70.1465H201.375ZM204.173 71.3137V71.6843C204.173 71.8078 204.167 71.9251 204.154 72.0363H197.466C197.491 72.2957 197.568 72.5304 197.698 72.7404C197.828 72.9503 197.994 73.1325 198.198 73.2869C198.402 73.4413 198.63 73.5618 198.884 73.6482C199.137 73.7347 199.399 73.7779 199.671 73.7779C200.153 73.7779 200.56 73.6884 200.894 73.5093C201.227 73.3302 201.499 73.0986 201.709 72.8145L203.821 74.1485C203.389 74.7784 202.817 75.2632 202.107 75.6029C201.397 75.9426 200.573 76.1124 199.634 76.1124C198.942 76.1124 198.288 76.0043 197.67 75.7882C197.053 75.572 196.512 75.2571 196.049 74.8433C195.586 74.4295 195.221 73.92 194.956 73.3147C194.69 72.7095 194.558 72.0178 194.558 71.2396C194.558 70.4861 194.687 69.8037 194.947 69.1923C195.206 68.5809 195.558 68.0621 196.003 67.6359C196.447 67.2098 196.972 66.8794 197.577 66.6447C198.183 66.41 198.837 66.2927 199.541 66.2927C200.221 66.2927 200.844 66.4069 201.412 66.6354C201.981 66.864 202.468 67.1944 202.876 67.6267C203.284 68.059 203.602 68.5839 203.83 69.2015C204.059 69.8191 204.173 70.5232 204.173 71.3137ZM212.049 69.0718C211.913 69.0348 211.78 69.0101 211.65 68.9977C211.521 68.9854 211.394 68.9792 211.271 68.9792C210.863 68.9792 210.52 69.0533 210.242 69.2015C209.964 69.3498 209.742 69.5289 209.575 69.7389C209.409 69.9488 209.288 70.1773 209.214 70.4244C209.14 70.6714 209.103 70.8876 209.103 71.0729V75.816H206.065V66.5891H208.992V67.9231H209.029C209.264 67.4538 209.597 67.0708 210.029 66.7744C210.462 66.478 210.962 66.3297 211.53 66.3297C211.653 66.3297 211.774 66.3359 211.891 66.3483C212.009 66.3606 212.104 66.3791 212.178 66.4038L212.049 69.0718ZM216.701 63.6432C216.701 63.8779 216.654 64.0971 216.562 64.3009C216.469 64.5047 216.346 64.6808 216.191 64.829C216.037 64.9772 215.852 65.0945 215.636 65.181C215.419 65.2675 215.194 65.3107 214.959 65.3107C214.465 65.3107 214.051 65.147 213.718 64.8197C213.385 64.4924 213.218 64.1002 213.218 63.6432C213.218 63.4209 213.261 63.2078 213.347 63.004C213.434 62.8002 213.557 62.6242 213.718 62.4759C213.879 62.3277 214.064 62.2073 214.274 62.1146C214.484 62.022 214.712 61.9757 214.959 61.9757C215.194 61.9757 215.419 62.0189 215.636 62.1054C215.852 62.1918 216.037 62.3092 216.191 62.4574C216.346 62.6056 216.469 62.7816 216.562 62.9855C216.654 63.1893 216.701 63.4085 216.701 63.6432ZM213.44 75.816V66.5891H216.478V75.816H213.44ZM225.243 69.5721C225.071 69.3498 224.836 69.1707 224.539 69.0348C224.243 68.8989 223.94 68.831 223.632 68.831C223.311 68.831 223.02 68.8958 222.761 69.0255C222.502 69.1552 222.279 69.3282 222.094 69.5443C221.909 69.7605 221.764 70.0106 221.659 70.2947C221.554 70.5788 221.501 70.8814 221.501 71.2026C221.501 71.5237 221.551 71.8263 221.649 72.1104C221.748 72.3945 221.893 72.6446 222.085 72.8608C222.276 73.077 222.505 73.2468 222.77 73.3703C223.036 73.4938 223.335 73.5556 223.669 73.5556C223.977 73.5556 224.283 73.4969 224.586 73.3796C224.888 73.2622 225.132 73.0924 225.318 72.8701L227.004 74.9266C226.621 75.2972 226.127 75.5875 225.521 75.7975C224.916 76.0074 224.274 76.1124 223.595 76.1124C222.866 76.1124 222.187 76.0013 221.557 75.7789C220.927 75.5566 220.38 75.2324 219.917 74.8062C219.454 74.3801 219.09 73.8644 218.824 73.2591C218.558 72.6539 218.426 71.9684 218.426 71.2026C218.426 70.4491 218.558 69.7697 218.824 69.1645C219.09 68.5592 219.454 68.0436 219.917 67.6174C220.38 67.1913 220.927 66.864 221.557 66.6354C222.187 66.4069 222.86 66.2927 223.576 66.2927C223.91 66.2927 224.24 66.3236 224.567 66.3853C224.895 66.4471 225.21 66.5304 225.512 66.6354C225.815 66.7404 226.093 66.8701 226.346 67.0245C226.599 67.1789 226.818 67.3488 227.004 67.534L225.243 69.5721ZM233.656 71.7954H233.267C232.934 71.7954 232.597 71.8109 232.258 71.8418C231.918 71.8726 231.615 71.9313 231.35 72.0178C231.084 72.1042 230.865 72.2308 230.692 72.3976C230.519 72.5643 230.433 72.7836 230.433 73.0553C230.433 73.2283 230.473 73.3765 230.553 73.5C230.634 73.6235 230.735 73.7223 230.859 73.7964C230.982 73.8706 231.125 73.9231 231.285 73.9539C231.446 73.9848 231.6 74.0003 231.748 74.0003C232.366 74.0003 232.838 73.8304 233.166 73.4907C233.493 73.1511 233.656 72.691 233.656 72.1104V71.7954ZM228.08 67.849C228.623 67.3302 229.256 66.9411 229.979 66.6818C230.701 66.4224 231.439 66.2927 232.193 66.2927C232.971 66.2927 233.629 66.3884 234.166 66.5799C234.703 66.7713 235.139 67.0678 235.472 67.4692C235.806 67.8706 236.05 68.3771 236.204 68.9885C236.358 69.5999 236.435 70.3256 236.435 71.1655V75.816H233.656V74.834H233.601C233.366 75.2169 233.011 75.5134 232.536 75.7233C232.06 75.9333 231.544 76.0383 230.989 76.0383C230.618 76.0383 230.235 75.9889 229.84 75.8901C229.445 75.7913 229.084 75.6307 228.756 75.4084C228.429 75.186 228.16 74.8896 227.95 74.519C227.74 74.1485 227.635 73.6915 227.635 73.148C227.635 72.481 227.818 71.9437 228.182 71.5361C228.546 71.1284 229.016 70.8135 229.59 70.5911C230.164 70.3688 230.803 70.2206 231.507 70.1465C232.211 70.0724 232.897 70.0353 233.564 70.0353V69.8871C233.564 69.4301 233.403 69.0935 233.082 68.8773C232.761 68.6611 232.366 68.5531 231.896 68.5531C231.464 68.5531 231.047 68.6457 230.646 68.831C230.245 69.0163 229.902 69.2386 229.618 69.498L228.08 67.849ZM244.756 75.816V70.7764C244.756 70.517 244.734 70.27 244.691 70.0353C244.648 69.8006 244.577 69.5937 244.478 69.4146C244.379 69.2355 244.24 69.0935 244.061 68.9885C243.882 68.8835 243.657 68.831 243.385 68.831C243.113 68.831 242.875 68.8835 242.672 68.9885C242.468 69.0935 242.298 69.2386 242.162 69.4239C242.026 69.6092 241.924 69.8222 241.856 70.0631C241.789 70.304 241.755 70.5541 241.755 70.8135V75.816H238.698V66.5891H241.643V67.8675H241.68C241.792 67.6699 241.937 67.4754 242.116 67.2839C242.295 67.0925 242.505 66.9288 242.746 66.7929C242.987 66.6571 243.249 66.5459 243.533 66.4594C243.817 66.373 244.12 66.3297 244.441 66.3297C245.058 66.3297 245.583 66.4409 246.016 66.6632C246.448 66.8856 246.797 67.1727 247.062 67.5248C247.328 67.8768 247.519 68.2813 247.637 68.7383C247.754 69.1954 247.813 69.6524 247.813 70.1094V75.816H244.756ZM266.454 74.0003C265.874 74.6673 265.158 75.1953 264.305 75.5844C263.453 75.9735 262.471 76.168 261.36 76.168C260.347 76.168 259.411 76.0013 258.553 75.6678C257.694 75.3343 256.95 74.8618 256.32 74.2504C255.69 73.639 255.196 72.9071 254.838 72.0548C254.48 71.2025 254.301 70.2638 254.301 69.2386C254.301 68.1887 254.483 67.2376 254.847 66.3853C255.212 65.533 255.715 64.8074 256.357 64.2083C257 63.6092 257.753 63.1491 258.618 62.828C259.482 62.5068 260.415 62.3462 261.415 62.3462C262.341 62.3462 263.252 62.5099 264.148 62.8372C265.043 63.1646 265.769 63.6432 266.325 64.2731L264.176 66.4224C263.879 66.0148 263.49 65.7121 263.008 65.5145C262.527 65.3169 262.033 65.2181 261.526 65.2181C260.97 65.2181 260.461 65.32 259.998 65.5238C259.535 65.7276 259.136 66.0086 258.803 66.3668C258.469 66.725 258.21 67.148 258.025 67.6359C257.839 68.1238 257.747 68.6581 257.747 69.2386C257.747 69.8315 257.839 70.375 258.025 70.869C258.21 71.3631 258.466 71.7862 258.794 72.1382C259.121 72.4902 259.513 72.7651 259.97 72.9627C260.427 73.1603 260.927 73.2591 261.471 73.2591C262.101 73.2591 262.65 73.1356 263.12 72.8886C263.589 72.6415 263.966 72.3204 264.25 71.9251L266.454 74.0003ZM277.202 71.1655C277.202 71.919 277.066 72.6014 276.794 73.2128C276.522 73.8242 276.152 74.343 275.683 74.7692C275.213 75.1953 274.67 75.5257 274.052 75.7604C273.435 75.9951 272.774 76.1124 272.07 76.1124C271.378 76.1124 270.721 75.9951 270.097 75.7604C269.473 75.5257 268.93 75.1953 268.466 74.7692C268.003 74.343 267.636 73.8242 267.364 73.2128C267.092 72.6014 266.957 71.919 266.957 71.1655C266.957 70.412 267.092 69.7327 267.364 69.1274C267.636 68.5222 268.003 68.0096 268.466 67.5896C268.93 67.1697 269.473 66.8485 270.097 66.6262C270.721 66.4038 271.378 66.2927 272.07 66.2927C272.774 66.2927 273.435 66.4038 274.052 66.6262C274.67 66.8485 275.213 67.1697 275.683 67.5896C276.152 68.0096 276.522 68.5222 276.794 69.1274C277.066 69.7327 277.202 70.412 277.202 71.1655ZM274.275 71.1655C274.275 70.869 274.225 70.5788 274.126 70.2947C274.028 70.0106 273.885 69.7605 273.7 69.5443C273.515 69.3282 273.286 69.1521 273.015 69.0163C272.743 68.8804 272.428 68.8125 272.07 68.8125C271.712 68.8125 271.397 68.8804 271.125 69.0163C270.853 69.1521 270.628 69.3282 270.449 69.5443C270.27 69.7605 270.134 70.0106 270.041 70.2947C269.949 70.5788 269.902 70.869 269.902 71.1655C269.902 71.4619 269.949 71.7522 270.041 72.0363C270.134 72.3204 270.273 72.5767 270.458 72.8052C270.643 73.0337 270.872 73.2159 271.144 73.3518C271.415 73.4877 271.73 73.5556 272.088 73.5556C272.447 73.5556 272.762 73.4877 273.033 73.3518C273.305 73.2159 273.533 73.0337 273.719 72.8052C273.904 72.5767 274.043 72.3204 274.136 72.0363C274.228 71.7522 274.275 71.4619 274.275 71.1655ZM279.167 75.816V61.8089H282.243V75.816H279.167ZM284.69 75.816V61.8089H287.766V75.816H284.69ZM296.531 70.1465C296.531 69.6647 296.379 69.251 296.077 68.9051C295.774 68.5592 295.32 68.3863 294.715 68.3863C294.419 68.3863 294.147 68.4326 293.9 68.5253C293.653 68.6179 293.437 68.7445 293.252 68.9051C293.066 69.0657 292.918 69.254 292.807 69.4702C292.696 69.6864 292.634 69.9118 292.622 70.1465H296.531ZM299.328 71.3137V71.6843C299.328 71.8078 299.322 71.9251 299.31 72.0363H292.622C292.646 72.2957 292.724 72.5304 292.853 72.7404C292.983 72.9503 293.15 73.1325 293.353 73.2869C293.557 73.4413 293.786 73.5618 294.039 73.6482C294.292 73.7347 294.555 73.7779 294.826 73.7779C295.308 73.7779 295.716 73.6884 296.049 73.5093C296.383 73.3302 296.654 73.0986 296.864 72.8145L298.976 74.1485C298.544 74.7784 297.973 75.2632 297.263 75.6029C296.552 75.9426 295.728 76.1124 294.789 76.1124C294.098 76.1124 293.443 76.0043 292.825 75.7882C292.208 75.572 291.668 75.2571 291.204 74.8433C290.741 74.4295 290.377 73.92 290.111 73.3147C289.846 72.7095 289.713 72.0178 289.713 71.2396C289.713 70.4861 289.843 69.8037 290.102 69.1923C290.361 68.5809 290.713 68.0621 291.158 67.6359C291.603 67.2098 292.128 66.8794 292.733 66.6447C293.338 66.41 293.993 66.2927 294.697 66.2927C295.376 66.2927 296 66.4069 296.568 66.6354C297.136 66.864 297.624 67.1944 298.031 67.6267C298.439 68.059 298.757 68.5839 298.986 69.2015C299.214 69.8191 299.328 70.5232 299.328 71.3137ZM311.002 74.9452C311.002 75.8469 310.872 76.6312 310.613 77.2982C310.354 77.9652 309.989 78.518 309.52 78.9565C309.051 79.3949 308.479 79.7223 307.806 79.9384C307.133 80.1546 306.389 80.2627 305.574 80.2627C304.759 80.2627 303.922 80.1391 303.063 79.8921C302.205 79.6451 301.461 79.2869 300.831 78.8175L302.35 76.6497C302.795 77.045 303.286 77.3384 303.823 77.5298C304.36 77.7213 304.888 77.817 305.407 77.817C306.296 77.817 306.954 77.5823 307.38 77.1129C307.806 76.6436 308.019 76.0198 308.019 75.2416V74.6858H307.964C307.68 75.0563 307.297 75.3528 306.815 75.5751C306.333 75.7975 305.784 75.9086 305.166 75.9086C304.462 75.9086 303.838 75.782 303.295 75.5288C302.751 75.2756 302.291 74.9328 301.915 74.5005C301.538 74.0682 301.251 73.5649 301.053 72.9905C300.856 72.4161 300.757 71.8078 300.757 71.1655C300.757 70.5232 300.856 69.9118 301.053 69.3312C301.251 68.7507 301.538 68.2381 301.915 67.7934C302.291 67.3488 302.751 66.9936 303.295 66.7281C303.838 66.4625 304.456 66.3297 305.148 66.3297C305.728 66.3297 306.284 66.4471 306.815 66.6818C307.346 66.9164 307.772 67.2808 308.093 67.7749H308.13V66.5891H311.002V74.9452ZM308.112 71.147C308.112 70.8382 308.059 70.5417 307.954 70.2576C307.849 69.9735 307.698 69.7234 307.5 69.5073C307.303 69.2911 307.068 69.1213 306.796 68.9977C306.525 68.8742 306.216 68.8125 305.87 68.8125C305.524 68.8125 305.219 68.8742 304.953 68.9977C304.687 69.1213 304.462 69.288 304.277 69.498C304.092 69.708 303.95 69.955 303.851 70.2391C303.752 70.5232 303.702 70.8258 303.702 71.147C303.702 71.4558 303.752 71.7522 303.851 72.0363C303.95 72.3204 304.092 72.5705 304.277 72.7867C304.462 73.0028 304.687 73.1758 304.953 73.3055C305.219 73.4352 305.524 73.5 305.87 73.5C306.216 73.5 306.528 73.4352 306.806 73.3055C307.084 73.1758 307.318 73.0059 307.51 72.7959C307.701 72.586 307.849 72.3389 307.954 72.0548C308.059 71.7707 308.112 71.4681 308.112 71.147ZM319.767 70.1465C319.767 69.6647 319.616 69.251 319.313 68.9051C319.01 68.5592 318.557 68.3863 317.951 68.3863C317.655 68.3863 317.383 68.4326 317.136 68.5253C316.889 68.6179 316.673 68.7445 316.488 68.9051C316.303 69.0657 316.154 69.254 316.043 69.4702C315.932 69.6864 315.87 69.9118 315.858 70.1465H319.767ZM322.565 71.3137V71.6843C322.565 71.8078 322.558 71.9251 322.546 72.0363H315.858C315.883 72.2957 315.96 72.5304 316.089 72.7404C316.219 72.9503 316.386 73.1325 316.59 73.2869C316.793 73.4413 317.022 73.5618 317.275 73.6482C317.528 73.7347 317.791 73.7779 318.063 73.7779C318.544 73.7779 318.952 73.6884 319.285 73.5093C319.619 73.3302 319.891 73.0986 320.1 72.8145L322.213 74.1485C321.78 74.7784 321.209 75.2632 320.499 75.6029C319.789 75.9426 318.964 76.1124 318.025 76.1124C317.334 76.1124 316.679 76.0043 316.062 75.7882C315.444 75.572 314.904 75.2571 314.441 74.8433C313.977 74.4295 313.613 73.92 313.348 73.3147C313.082 72.7095 312.949 72.0178 312.949 71.2396C312.949 70.4861 313.079 69.8037 313.338 69.1923C313.598 68.5809 313.95 68.0621 314.394 67.6359C314.839 67.2098 315.364 66.8794 315.969 66.6447C316.574 66.41 317.229 66.2927 317.933 66.2927C318.612 66.2927 319.236 66.4069 319.804 66.6354C320.372 66.864 320.86 67.1944 321.268 67.6267C321.675 68.059 321.993 68.5839 322.222 69.2015C322.45 69.8191 322.565 70.5232 322.565 71.3137ZM338.872 71.1655C338.872 71.919 338.736 72.6014 338.464 73.2128C338.192 73.8242 337.822 74.343 337.353 74.7692C336.883 75.1953 336.34 75.5257 335.722 75.7604C335.105 75.9951 334.444 76.1124 333.74 76.1124C333.048 76.1124 332.391 75.9951 331.767 75.7604C331.143 75.5257 330.6 75.1953 330.136 74.7692C329.673 74.343 329.306 73.8242 329.034 73.2128C328.762 72.6014 328.627 71.919 328.627 71.1655C328.627 70.412 328.762 69.7327 329.034 69.1274C329.306 68.5222 329.673 68.0096 330.136 67.5896C330.6 67.1697 331.143 66.8485 331.767 66.6262C332.391 66.4038 333.048 66.2927 333.74 66.2927C334.444 66.2927 335.105 66.4038 335.722 66.6262C336.34 66.8485 336.883 67.1697 337.353 67.5896C337.822 68.0096 338.192 68.5222 338.464 69.1274C338.736 69.7327 338.872 70.412 338.872 71.1655ZM335.945 71.1655C335.945 70.869 335.895 70.5788 335.796 70.2947C335.698 70.0106 335.556 69.7605 335.37 69.5443C335.185 69.3282 334.956 69.1521 334.685 69.0163C334.413 68.8804 334.098 68.8125 333.74 68.8125C333.382 68.8125 333.067 68.8804 332.795 69.0163C332.523 69.1521 332.298 69.3282 332.119 69.5443C331.94 69.7605 331.804 70.0106 331.711 70.2947C331.619 70.5788 331.572 70.869 331.572 71.1655C331.572 71.4619 331.619 71.7522 331.711 72.0363C331.804 72.3204 331.943 72.5767 332.128 72.8052C332.313 73.0337 332.542 73.2159 332.814 73.3518C333.085 73.4877 333.4 73.5556 333.758 73.5556C334.117 73.5556 334.432 73.4877 334.703 73.3518C334.975 73.2159 335.204 73.0337 335.389 72.8052C335.574 72.5767 335.713 72.3204 335.806 72.0363C335.898 71.7522 335.945 71.4619 335.945 71.1655ZM346.525 64.0508C346.414 64.0138 346.284 63.9829 346.136 63.9582C345.988 63.9335 345.84 63.9211 345.692 63.9211C345.407 63.9211 345.179 63.9705 345.006 64.0693C344.833 64.1681 344.697 64.3009 344.598 64.4677C344.5 64.6344 344.432 64.8228 344.395 65.0328C344.358 65.2428 344.339 65.4527 344.339 65.6627V66.5891H346.396V68.868H344.339V75.816H341.301V68.868H339.615V66.5891H341.301V65.6998C341.301 65.1316 341.362 64.5912 341.486 64.0786C341.609 63.566 341.823 63.1152 342.125 62.7261C342.428 62.337 342.835 62.0282 343.348 61.7997C343.86 61.5712 344.5 61.4569 345.265 61.4569C345.525 61.4569 345.781 61.4723 346.034 61.5032C346.287 61.5341 346.519 61.5804 346.729 61.6422L346.525 64.0508ZM352.791 75.816V62.6983H361.61V65.3848H355.848V67.849H361.295V70.3873H355.848V73.1109H361.943V75.816H352.791ZM375.655 75.816V70.7764C375.655 70.517 375.636 70.2669 375.599 70.026C375.562 69.7852 375.494 69.5783 375.395 69.4053C375.297 69.2324 375.164 69.0935 374.997 68.9885C374.83 68.8835 374.611 68.831 374.339 68.831C374.08 68.831 373.855 68.8866 373.663 68.9977C373.472 69.1089 373.311 69.2571 373.182 69.4424C373.052 69.6277 372.956 69.8408 372.894 70.0816C372.833 70.3225 372.802 70.5726 372.802 70.832V75.816H369.763V70.5541C369.763 70.0229 369.658 69.603 369.448 69.2942C369.238 68.9854 368.905 68.831 368.448 68.831C367.966 68.831 367.593 69.0224 367.327 69.4053C367.062 69.7883 366.929 70.2576 366.929 70.8135V75.816H363.872V66.5891H366.818V67.8675H366.855C366.966 67.6699 367.105 67.4785 367.272 67.2932C367.438 67.1079 367.639 66.9442 367.874 66.8022C368.108 66.6601 368.371 66.5459 368.661 66.4594C368.951 66.373 369.269 66.3297 369.615 66.3297C370.282 66.3297 370.847 66.4656 371.31 66.7373C371.774 67.0091 372.135 67.3982 372.394 67.9046C372.703 67.4229 373.098 67.04 373.58 66.7559C374.062 66.4718 374.648 66.3297 375.34 66.3297C375.97 66.3297 376.498 66.444 376.924 66.6725C377.35 66.901 377.693 67.1974 377.952 67.5618C378.211 67.9262 378.4 68.3338 378.517 68.7847C378.635 69.2355 378.693 69.6771 378.693 70.1094V75.816H375.655ZM387.347 70.1465C387.347 69.6647 387.196 69.251 386.893 68.9051C386.591 68.5592 386.137 68.3863 385.531 68.3863C385.235 68.3863 384.963 68.4326 384.716 68.5253C384.469 68.6179 384.253 68.7445 384.068 68.9051C383.883 69.0657 383.734 69.254 383.623 69.4702C383.512 69.6864 383.45 69.9118 383.438 70.1465H387.347ZM390.145 71.3137V71.6843C390.145 71.8078 390.138 71.9251 390.126 72.0363H383.438C383.463 72.2957 383.54 72.5304 383.67 72.7404C383.799 72.9503 383.966 73.1325 384.17 73.2869C384.374 73.4413 384.602 73.5618 384.855 73.6482C385.108 73.7347 385.371 73.7779 385.643 73.7779C386.124 73.7779 386.532 73.6884 386.865 73.5093C387.199 73.3302 387.471 73.0986 387.681 72.8145L389.793 74.1485C389.36 74.7784 388.789 75.2632 388.079 75.6029C387.369 75.9426 386.544 76.1124 385.606 76.1124C384.914 76.1124 384.259 76.0043 383.642 75.7882C383.024 75.572 382.484 75.2571 382.021 74.8433C381.557 74.4295 381.193 73.92 380.928 73.3147C380.662 72.7095 380.529 72.0178 380.529 71.2396C380.529 70.4861 380.659 69.8037 380.918 69.1923C381.178 68.5809 381.53 68.0621 381.974 67.6359C382.419 67.2098 382.944 66.8794 383.549 66.6447C384.154 66.41 384.809 66.2927 385.513 66.2927C386.192 66.2927 386.816 66.4069 387.384 66.6354C387.952 66.864 388.44 67.1944 388.848 67.6267C389.255 68.059 389.573 68.5839 389.802 69.2015C390.03 69.8191 390.145 70.5232 390.145 71.3137ZM398.02 69.0718C397.884 69.0348 397.752 69.0101 397.622 68.9977C397.492 68.9854 397.366 68.9792 397.242 68.9792C396.835 68.9792 396.492 69.0533 396.214 69.2015C395.936 69.3498 395.714 69.5289 395.547 69.7389C395.38 69.9488 395.26 70.1773 395.186 70.4244C395.112 70.6714 395.075 70.8876 395.075 71.0729V75.816H392.036V66.5891H394.963V67.9231H395C395.235 67.4538 395.569 67.0708 396.001 66.7744C396.433 66.478 396.933 66.3297 397.502 66.3297C397.625 66.3297 397.745 66.3359 397.863 66.3483C397.98 66.3606 398.076 66.3791 398.15 66.4038L398.02 69.0718ZM408.823 74.9452C408.823 75.8469 408.694 76.6312 408.434 77.2982C408.175 77.9652 407.81 78.518 407.341 78.9565C406.872 79.3949 406.301 79.7223 405.627 79.9384C404.954 80.1546 404.21 80.2627 403.395 80.2627C402.58 80.2627 401.743 80.1391 400.885 79.8921C400.026 79.6451 399.282 79.2869 398.652 78.8175L400.171 76.6497C400.616 77.045 401.107 77.3384 401.644 77.5298C402.181 77.7213 402.709 77.817 403.228 77.817C404.117 77.817 404.775 77.5823 405.201 77.1129C405.627 76.6436 405.84 76.0198 405.84 75.2416V74.6858H405.785C405.501 75.0563 405.118 75.3528 404.636 75.5751C404.155 75.7975 403.605 75.9086 402.987 75.9086C402.283 75.9086 401.66 75.782 401.116 75.5288C400.573 75.2756 400.113 74.9328 399.736 74.5005C399.359 74.0682 399.072 73.5649 398.874 72.9905C398.677 72.4161 398.578 71.8078 398.578 71.1655C398.578 70.5232 398.677 69.9118 398.874 69.3312C399.072 68.7507 399.359 68.2381 399.736 67.7934C400.113 67.3488 400.573 66.9936 401.116 66.7281C401.66 66.4625 402.277 66.3297 402.969 66.3297C403.549 66.3297 404.105 66.4471 404.636 66.6818C405.167 66.9164 405.593 67.2808 405.915 67.7749H405.952V66.5891H408.823V74.9452ZM405.933 71.147C405.933 70.8382 405.881 70.5417 405.776 70.2576C405.671 69.9735 405.519 69.7234 405.322 69.5073C405.124 69.2911 404.889 69.1213 404.618 68.9977C404.346 68.8742 404.037 68.8125 403.691 68.8125C403.346 68.8125 403.04 68.8742 402.774 68.9977C402.509 69.1213 402.283 69.288 402.098 69.498C401.913 69.708 401.771 69.955 401.672 70.2391C401.573 70.5232 401.524 70.8258 401.524 71.147C401.524 71.4558 401.573 71.7522 401.672 72.0363C401.771 72.3204 401.913 72.5705 402.098 72.7867C402.283 73.0028 402.509 73.1758 402.774 73.3055C403.04 73.4352 403.346 73.5 403.691 73.5C404.037 73.5 404.349 73.4352 404.627 73.3055C404.905 73.1758 405.14 73.0059 405.331 72.7959C405.522 72.586 405.671 72.3389 405.776 72.0548C405.881 71.7707 405.933 71.4681 405.933 71.147ZM417.588 70.1465C417.588 69.6647 417.437 69.251 417.134 68.9051C416.832 68.5592 416.378 68.3863 415.773 68.3863C415.476 68.3863 415.204 68.4326 414.957 68.5253C414.71 68.6179 414.494 68.7445 414.309 68.9051C414.124 69.0657 413.976 69.254 413.864 69.4702C413.753 69.6864 413.691 69.9118 413.679 70.1465H417.588ZM420.386 71.3137V71.6843C420.386 71.8078 420.38 71.9251 420.367 72.0363H413.679C413.704 72.2957 413.781 72.5304 413.911 72.7404C414.04 72.9503 414.207 73.1325 414.411 73.2869C414.615 73.4413 414.843 73.5618 415.096 73.6482C415.35 73.7347 415.612 73.7779 415.884 73.7779C416.365 73.7779 416.773 73.6884 417.107 73.5093C417.44 73.3302 417.712 73.0986 417.922 72.8145L420.034 74.1485C419.602 74.7784 419.03 75.2632 418.32 75.6029C417.61 75.9426 416.785 76.1124 415.847 76.1124C415.155 76.1124 414.5 76.0043 413.883 75.7882C413.265 75.572 412.725 75.2571 412.262 74.8433C411.799 74.4295 411.434 73.92 411.169 73.3147C410.903 72.7095 410.77 72.0178 410.77 71.2396C410.77 70.4861 410.9 69.8037 411.16 69.1923C411.419 68.5809 411.771 68.0621 412.216 67.6359C412.66 67.2098 413.185 66.8794 413.79 66.6447C414.396 66.41 415.05 66.2927 415.754 66.2927C416.433 66.2927 417.057 66.4069 417.625 66.6354C418.193 66.864 418.681 67.1944 419.089 67.6267C419.497 68.059 419.815 68.5839 420.043 69.2015C420.272 69.8191 420.386 70.5232 420.386 71.3137ZM428.336 75.816V70.7764C428.336 70.517 428.314 70.27 428.271 70.0353C428.228 69.8006 428.157 69.5937 428.058 69.4146C427.959 69.2355 427.82 69.0935 427.641 68.9885C427.462 68.8835 427.236 68.831 426.965 68.831C426.693 68.831 426.455 68.8835 426.251 68.9885C426.048 69.0935 425.878 69.2386 425.742 69.4239C425.606 69.6092 425.504 69.8222 425.436 70.0631C425.368 70.304 425.334 70.5541 425.334 70.8135V75.816H422.277V66.5891H425.223V67.8675H425.26C425.371 67.6699 425.517 67.4754 425.696 67.2839C425.875 67.0925 426.085 66.9288 426.325 66.7929C426.566 66.6571 426.829 66.5459 427.113 66.4594C427.397 66.373 427.7 66.3297 428.021 66.3297C428.638 66.3297 429.163 66.4409 429.595 66.6632C430.028 66.8856 430.377 67.1727 430.642 67.5248C430.908 67.8768 431.099 68.2813 431.217 68.7383C431.334 69.1954 431.393 69.6524 431.393 70.1094V75.816H428.336ZM440.046 69.5721C439.873 69.3498 439.639 69.1707 439.342 69.0348C439.046 68.8989 438.743 68.831 438.435 68.831C438.113 68.831 437.823 68.8958 437.564 69.0255C437.304 69.1552 437.082 69.3282 436.897 69.5443C436.712 69.7605 436.566 70.0106 436.461 70.2947C436.356 70.5788 436.304 70.8814 436.304 71.2026C436.304 71.5237 436.353 71.8263 436.452 72.1104C436.551 72.3945 436.696 72.6446 436.888 72.8608C437.079 73.077 437.308 73.2468 437.573 73.3703C437.839 73.4938 438.138 73.5556 438.472 73.5556C438.78 73.5556 439.086 73.4969 439.389 73.3796C439.691 73.2622 439.935 73.0924 440.12 72.8701L441.806 74.9266C441.424 75.2972 440.93 75.5875 440.324 75.7975C439.719 76.0074 439.077 76.1124 438.398 76.1124C437.669 76.1124 436.989 76.0013 436.36 75.7789C435.73 75.5566 435.183 75.2324 434.72 74.8062C434.257 74.3801 433.892 73.8644 433.627 73.2591C433.361 72.6539 433.229 71.9684 433.229 71.2026C433.229 70.4491 433.361 69.7697 433.627 69.1645C433.892 68.5592 434.257 68.0436 434.72 67.6174C435.183 67.1913 435.73 66.864 436.36 66.6354C436.989 66.4069 437.663 66.2927 438.379 66.2927C438.712 66.2927 439.043 66.3236 439.37 66.3853C439.697 66.4471 440.012 66.5304 440.315 66.6354C440.618 66.7404 440.896 66.8701 441.149 67.0245C441.402 67.1789 441.621 67.3488 441.806 67.534L440.046 69.5721ZM448.219 77.2056C448.033 77.6873 447.826 78.1165 447.598 78.4933C447.369 78.87 447.098 79.1911 446.783 79.4567C446.468 79.7223 446.097 79.923 445.671 80.0589C445.245 80.1947 444.742 80.2627 444.161 80.2627C443.877 80.2627 443.584 80.2441 443.281 80.2071C442.979 80.17 442.716 80.1206 442.494 80.0589L442.827 77.502C442.976 77.5514 443.139 77.5916 443.318 77.6224C443.497 77.6533 443.661 77.6688 443.809 77.6688C444.279 77.6688 444.618 77.5607 444.828 77.3445C445.038 77.1284 445.217 76.8227 445.365 76.4274L445.662 75.6678L441.808 66.5891H445.18L447.237 72.518H447.292L449.126 66.5891H452.35L448.219 77.2056ZM468.268 66.7373C468.268 67.5032 468.126 68.1485 467.842 68.6735C467.558 69.1985 467.175 69.6215 466.693 69.9427C466.212 70.2638 465.656 70.4985 465.026 70.6467C464.396 70.7949 463.742 70.869 463.062 70.869H461.487V75.816H458.319V62.6983H463.136C463.853 62.6983 464.523 62.7693 465.146 62.9113C465.77 63.0534 466.314 63.2819 466.777 63.5969C467.24 63.9118 467.604 64.3256 467.87 64.8382C468.135 65.3508 468.268 65.9839 468.268 66.7373ZM465.1 66.7559C465.1 66.4471 465.038 66.1939 464.915 65.9962C464.791 65.7986 464.625 65.6442 464.415 65.533C464.205 65.4219 463.967 65.3478 463.701 65.3107C463.436 65.2736 463.161 65.2551 462.877 65.2551H461.487V68.3493H462.821C463.118 68.3493 463.402 68.3246 463.674 68.2752C463.945 68.2257 464.189 68.1393 464.405 68.0158C464.622 67.8922 464.791 67.7286 464.915 67.5248C465.038 67.321 465.1 67.0647 465.1 66.7559ZM476.088 75.816V70.8135C476.088 70.5541 476.07 70.307 476.033 70.0724C475.996 69.8377 475.925 69.6308 475.82 69.4517C475.715 69.2726 475.576 69.1305 475.403 69.0255C475.23 68.9205 475.008 68.868 474.736 68.868C474.205 68.868 473.797 69.0564 473.513 69.4331C473.229 69.8099 473.087 70.2762 473.087 70.832V75.816H470.049V61.8089H473.087V67.7564H473.124C473.334 67.3858 473.668 67.0554 474.125 66.7651C474.582 66.4749 475.131 66.3297 475.773 66.3297C476.403 66.3297 476.931 66.4409 477.357 66.6632C477.784 66.8856 478.129 67.1727 478.395 67.5248C478.66 67.8768 478.852 68.2813 478.969 68.7383C479.087 69.1954 479.145 69.6524 479.145 70.1094V75.816H476.088ZM486.65 77.2056C486.465 77.6873 486.258 78.1165 486.03 78.4933C485.801 78.87 485.53 79.1911 485.215 79.4567C484.9 79.7223 484.529 79.923 484.103 80.0589C483.677 80.1947 483.174 80.2627 482.593 80.2627C482.309 80.2627 482.016 80.2441 481.713 80.2071C481.411 80.17 481.148 80.1206 480.926 80.0589L481.259 77.502C481.407 77.5514 481.571 77.5916 481.75 77.6224C481.929 77.6533 482.093 77.6688 482.241 77.6688C482.71 77.6688 483.05 77.5607 483.26 77.3445C483.47 77.1284 483.649 76.8227 483.797 76.4274L484.094 75.6678L480.24 66.5891H483.612L485.669 72.518H485.724L487.558 66.5891H490.782L486.65 77.2056ZM497.379 69.3127C497.132 69.078 496.842 68.8804 496.509 68.7198C496.175 68.5592 495.823 68.479 495.453 68.479C495.168 68.479 494.906 68.5345 494.665 68.6457C494.424 68.7569 494.304 68.9483 494.304 69.2201C494.304 69.4795 494.437 69.6647 494.702 69.7759C494.968 69.8871 495.397 70.0106 495.99 70.1465C496.336 70.2206 496.685 70.3256 497.037 70.4614C497.389 70.5973 497.707 70.7764 497.991 70.9987C498.275 71.2211 498.503 71.4928 498.676 71.814C498.849 72.1351 498.936 72.518 498.936 72.9627C498.936 73.5432 498.818 74.0342 498.584 74.4357C498.349 74.8371 498.043 75.1613 497.666 75.4084C497.29 75.6554 496.867 75.8345 496.397 75.9457C495.928 76.0568 495.459 76.1124 494.989 76.1124C494.236 76.1124 493.498 75.992 492.775 75.7511C492.053 75.5103 491.451 75.1552 490.969 74.6858L492.674 72.8886C492.945 73.185 493.279 73.4321 493.674 73.6297C494.069 73.8273 494.489 73.9261 494.934 73.9261C495.181 73.9261 495.425 73.8675 495.666 73.7501C495.906 73.6328 496.027 73.4259 496.027 73.1294C496.027 72.8454 495.879 72.6354 495.582 72.4995C495.286 72.3636 494.823 72.2216 494.193 72.0734C493.872 71.9992 493.55 71.9004 493.229 71.7769C492.908 71.6534 492.621 71.4866 492.368 71.2767C492.115 71.0667 491.908 70.8073 491.747 70.4985C491.587 70.1897 491.506 69.8191 491.506 69.3868C491.506 68.831 491.624 68.3585 491.858 67.9694C492.093 67.5804 492.396 67.2623 492.766 67.0153C493.137 66.7682 493.547 66.586 493.998 66.4687C494.449 66.3513 494.897 66.2927 495.341 66.2927C496.033 66.2927 496.709 66.4008 497.37 66.6169C498.031 66.8331 498.59 67.1573 499.047 67.5896L497.379 69.3127ZM503.995 63.6432C503.995 63.8779 503.949 64.0971 503.856 64.3009C503.764 64.5047 503.64 64.6808 503.486 64.829C503.331 64.9772 503.146 65.0945 502.93 65.181C502.714 65.2675 502.488 65.3107 502.254 65.3107C501.76 65.3107 501.346 65.147 501.012 64.8197C500.679 64.4924 500.512 64.1002 500.512 63.6432C500.512 63.4209 500.555 63.2078 500.642 63.004C500.728 62.8002 500.852 62.6242 501.012 62.4759C501.173 62.3277 501.358 62.2073 501.568 62.1146C501.778 62.022 502.007 61.9757 502.254 61.9757C502.488 61.9757 502.714 62.0189 502.93 62.1054C503.146 62.1918 503.331 62.3092 503.486 62.4574C503.64 62.6056 503.764 62.7816 503.856 62.9855C503.949 63.1893 503.995 63.4085 503.995 63.6432ZM500.735 75.816V66.5891H503.773V75.816H500.735ZM512.538 69.5721C512.365 69.3498 512.13 69.1707 511.834 69.0348C511.537 68.8989 511.235 68.831 510.926 68.831C510.605 68.831 510.315 68.8958 510.055 69.0255C509.796 69.1552 509.574 69.3282 509.388 69.5443C509.203 69.7605 509.058 70.0106 508.953 70.2947C508.848 70.5788 508.796 70.8814 508.796 71.2026C508.796 71.5237 508.845 71.8263 508.944 72.1104C509.043 72.3945 509.188 72.6446 509.379 72.8608C509.571 73.077 509.799 73.2468 510.065 73.3703C510.33 73.4938 510.63 73.5556 510.963 73.5556C511.272 73.5556 511.578 73.4969 511.88 73.3796C512.183 73.2622 512.427 73.0924 512.612 72.8701L514.298 74.9266C513.915 75.2972 513.421 75.5875 512.816 75.7975C512.211 76.0074 511.568 76.1124 510.889 76.1124C510.16 76.1124 509.481 76.0013 508.851 75.7789C508.221 75.5566 507.675 75.2324 507.212 74.8062C506.748 74.3801 506.384 73.8644 506.118 73.2591C505.853 72.6539 505.72 71.9684 505.72 71.2026C505.72 70.4491 505.853 69.7697 506.118 69.1645C506.384 68.5592 506.748 68.0436 507.212 67.6174C507.675 67.1913 508.221 66.864 508.851 66.6354C509.481 66.4069 510.154 66.2927 510.871 66.2927C511.204 66.2927 511.534 66.3236 511.862 66.3853C512.189 66.4471 512.504 66.5304 512.807 66.6354C513.109 66.7404 513.387 66.8701 513.64 67.0245C513.893 67.1789 514.113 67.3488 514.298 67.534L512.538 69.5721ZM518.802 63.6432C518.802 63.8779 518.756 64.0971 518.663 64.3009C518.57 64.5047 518.447 64.6808 518.292 64.829C518.138 64.9772 517.953 65.0945 517.737 65.181C517.52 65.2675 517.295 65.3107 517.06 65.3107C516.566 65.3107 516.153 65.147 515.819 64.8197C515.486 64.4924 515.319 64.1002 515.319 63.6432C515.319 63.4209 515.362 63.2078 515.449 63.004C515.535 62.8002 515.658 62.6242 515.819 62.4759C515.98 62.3277 516.165 62.2073 516.375 62.1146C516.585 62.022 516.813 61.9757 517.06 61.9757C517.295 61.9757 517.52 62.0189 517.737 62.1054C517.953 62.1918 518.138 62.3092 518.292 62.4574C518.447 62.6056 518.57 62.7816 518.663 62.9855C518.756 63.1893 518.802 63.4085 518.802 63.6432ZM515.541 75.816V66.5891H518.58V75.816H515.541ZM526.437 71.7954H526.048C525.714 71.7954 525.378 71.8109 525.038 71.8418C524.698 71.8726 524.396 71.9313 524.13 72.0178C523.865 72.1042 523.645 72.2308 523.472 72.3976C523.3 72.5643 523.213 72.7836 523.213 73.0553C523.213 73.2283 523.253 73.3765 523.334 73.5C523.414 73.6235 523.516 73.7223 523.639 73.7964C523.763 73.8706 523.905 73.9231 524.065 73.9539C524.226 73.9848 524.38 74.0003 524.528 74.0003C525.146 74.0003 525.618 73.8304 525.946 73.4907C526.273 73.1511 526.437 72.691 526.437 72.1104V71.7954ZM520.86 67.849C521.404 67.3302 522.037 66.9411 522.759 66.6818C523.482 66.4224 524.22 66.2927 524.973 66.2927C525.751 66.2927 526.409 66.3884 526.946 66.5799C527.483 66.7713 527.919 67.0678 528.252 67.4692C528.586 67.8706 528.83 68.3771 528.984 68.9885C529.139 69.5999 529.216 70.3256 529.216 71.1655V75.816H526.437V74.834H526.381C526.146 75.2169 525.791 75.5134 525.316 75.7233C524.84 75.9333 524.325 76.0383 523.769 76.0383C523.398 76.0383 523.015 75.9889 522.62 75.8901C522.225 75.7913 521.864 75.6307 521.536 75.4084C521.209 75.186 520.941 74.8896 520.731 74.519C520.521 74.1485 520.416 73.6915 520.416 73.148C520.416 72.481 520.598 71.9437 520.962 71.5361C521.326 71.1284 521.796 70.8135 522.37 70.5911C522.944 70.3688 523.584 70.2206 524.288 70.1465C524.992 70.0724 525.677 70.0353 526.344 70.0353V69.8871C526.344 69.4301 526.184 69.0935 525.862 68.8773C525.541 68.6611 525.146 68.5531 524.677 68.5531C524.244 68.5531 523.828 68.6457 523.426 68.831C523.025 69.0163 522.682 69.2386 522.398 69.498L520.86 67.849ZM537.536 75.816V70.7764C537.536 70.517 537.514 70.27 537.471 70.0353C537.428 69.8006 537.357 69.5937 537.258 69.4146C537.159 69.2355 537.02 69.0935 536.841 68.9885C536.662 68.8835 536.437 68.831 536.165 68.831C535.893 68.831 535.656 68.8835 535.452 68.9885C535.248 69.0935 535.078 69.2386 534.942 69.4239C534.807 69.6092 534.705 69.8222 534.637 70.0631C534.569 70.304 534.535 70.5541 534.535 70.8135V75.816H531.478V66.5891H534.424V67.8675H534.461C534.572 67.6699 534.717 67.4754 534.896 67.2839C535.075 67.0925 535.285 66.9288 535.526 66.7929C535.767 66.6571 536.029 66.5459 536.313 66.4594C536.597 66.373 536.9 66.3297 537.221 66.3297C537.839 66.3297 538.364 66.4409 538.796 66.6632C539.228 66.8856 539.577 67.1727 539.843 67.5248C540.108 67.8768 540.3 68.2813 540.417 68.7383C540.534 69.1954 540.593 69.6524 540.593 70.1094V75.816H537.536ZM548.321 69.3127C548.073 69.078 547.783 68.8804 547.45 68.7198C547.116 68.5592 546.764 68.479 546.394 68.479C546.11 68.479 545.847 68.5345 545.606 68.6457C545.366 68.7569 545.245 68.9483 545.245 69.2201C545.245 69.4795 545.378 69.6647 545.643 69.7759C545.909 69.8871 546.338 70.0106 546.931 70.1465C547.277 70.2206 547.626 70.3256 547.978 70.4614C548.33 70.5973 548.648 70.7764 548.932 70.9987C549.216 71.2211 549.444 71.4928 549.617 71.814C549.79 72.1351 549.877 72.518 549.877 72.9627C549.877 73.5432 549.759 74.0342 549.525 74.4357C549.29 74.8371 548.984 75.1613 548.608 75.4084C548.231 75.6554 547.808 75.8345 547.339 75.9457C546.869 76.0568 546.4 76.1124 545.931 76.1124C545.177 76.1124 544.439 75.992 543.717 75.7511C542.994 75.5103 542.392 75.1552 541.91 74.6858L543.615 72.8886C543.886 73.185 544.22 73.4321 544.615 73.6297C545.01 73.8273 545.43 73.9261 545.875 73.9261C546.122 73.9261 546.366 73.8675 546.607 73.7501C546.848 73.6328 546.968 73.4259 546.968 73.1294C546.968 72.8454 546.82 72.6354 546.523 72.4995C546.227 72.3636 545.764 72.2216 545.134 72.0734C544.813 71.9992 544.492 71.9004 544.171 71.7769C543.849 71.6534 543.562 71.4866 543.309 71.2767C543.056 71.0667 542.849 70.8073 542.688 70.4985C542.528 70.1897 542.448 69.8191 542.448 69.3868C542.448 68.831 542.565 68.3585 542.8 67.9694C543.034 67.5804 543.337 67.2623 543.707 67.0153C544.078 66.7682 544.489 66.586 544.939 66.4687C545.39 66.3513 545.838 66.2927 546.283 66.2927C546.974 66.2927 547.65 66.4008 548.311 66.6169C548.972 66.8331 549.531 67.1573 549.988 67.5896L548.321 69.3127Z" fill="white"/>
<path fill-rule="evenodd" clip-rule="evenodd" d="M172.212 52.3814C172.045 52.6315 171.844 52.8677 171.608 53.09C171.372 53.3124 171.098 53.5069 170.788 53.6737C170.478 53.8404 170.135 53.9724 169.76 54.0697C169.385 54.167 168.975 54.2156 168.53 54.2156C167.789 54.2156 167.104 54.0859 166.474 53.8265C165.844 53.5671 165.302 53.2082 164.848 52.7496C164.394 52.291 164.04 51.7468 163.785 51.1168C163.53 50.4869 163.403 49.7967 163.403 49.0463C163.403 48.296 163.533 47.6058 163.792 46.9759C164.051 46.3459 164.41 45.8017 164.869 45.3431C165.327 44.8845 165.869 44.5256 166.494 44.2662C167.12 44.0068 167.798 43.8771 168.53 43.8771C168.891 43.8771 169.246 43.9141 169.593 43.9882C169.94 44.0624 170.267 44.1666 170.573 44.3009C170.878 44.4352 171.156 44.5973 171.406 44.7873C171.656 44.9772 171.865 45.1926 172.032 45.4334L171.198 46.0448C171.096 45.8873 170.959 45.7299 170.788 45.5724C170.617 45.4149 170.415 45.2759 170.184 45.1555C169.952 45.0351 169.7 44.9378 169.426 44.8637C169.153 44.7896 168.859 44.7525 168.544 44.7525C167.905 44.7525 167.333 44.8683 166.828 45.0999C166.323 45.3315 165.895 45.6442 165.543 46.0379C165.191 46.4316 164.922 46.8878 164.737 47.4066C164.551 47.9254 164.459 48.472 164.459 49.0463C164.459 49.6207 164.554 50.1673 164.744 50.6861C164.934 51.2048 165.205 51.6611 165.557 52.0548C165.909 52.4485 166.337 52.7612 166.842 52.9928C167.347 53.2244 167.914 53.3402 168.544 53.3402C169.109 53.3402 169.646 53.2244 170.156 52.9928C170.665 52.7612 171.091 52.3906 171.434 51.8811L172.212 52.3814ZM183.492 49.0463C183.492 49.7967 183.363 50.4869 183.103 51.1168C182.844 51.7468 182.485 52.291 182.026 52.7496C181.568 53.2082 181.026 53.5671 180.401 53.8265C179.775 54.0859 179.097 54.2156 178.365 54.2156C177.633 54.2156 176.955 54.0859 176.329 53.8265C175.704 53.5671 175.162 53.2082 174.704 52.7496C174.245 52.291 173.886 51.7468 173.627 51.1168C173.367 50.4869 173.238 49.7967 173.238 49.0463C173.238 48.296 173.367 47.6058 173.627 46.9759C173.886 46.3459 174.245 45.8017 174.704 45.3431C175.162 44.8845 175.704 44.5256 176.329 44.2662C176.955 44.0068 177.633 43.8771 178.365 43.8771C179.097 43.8771 179.775 44.0068 180.401 44.2662C181.026 44.5256 181.568 44.8845 182.026 45.3431C182.485 45.8017 182.844 46.3459 183.103 46.9759C183.363 47.6058 183.492 48.296 183.492 49.0463ZM182.436 49.0463C182.436 48.472 182.344 47.9254 182.158 47.4066C181.973 46.8878 181.704 46.4316 181.352 46.0379C181 45.6442 180.572 45.3315 180.067 45.0999C179.562 44.8683 178.995 44.7525 178.365 44.7525C177.735 44.7525 177.168 44.8683 176.663 45.0999C176.158 45.3315 175.73 45.6442 175.378 46.0379C175.026 46.4316 174.757 46.8878 174.572 47.4066C174.386 47.9254 174.294 48.472 174.294 49.0463C174.294 49.6207 174.386 50.1673 174.572 50.6861C174.757 51.2048 175.026 51.6588 175.378 52.0479C175.73 52.4369 176.158 52.7473 176.663 52.9789C177.168 53.2105 177.735 53.3263 178.365 53.3263C178.995 53.3263 179.562 53.2105 180.067 52.9789C180.572 52.7473 181 52.4369 181.352 52.0479C181.704 51.6588 181.973 51.2048 182.158 50.6861C182.344 50.1673 182.436 49.6207 182.436 49.0463ZM186.574 53.0761H191.16V53.9655H185.574V44.1272H186.574V53.0761ZM201.967 49.0463C201.967 49.7967 201.837 50.4869 201.578 51.1168C201.319 51.7468 200.96 52.291 200.501 52.7496C200.043 53.2082 199.501 53.5671 198.875 53.8265C198.25 54.0859 197.572 54.2156 196.84 54.2156C196.108 54.2156 195.43 54.0859 194.804 53.8265C194.179 53.5671 193.637 53.2082 193.179 52.7496C192.72 52.291 192.361 51.7468 192.102 51.1168C191.842 50.4869 191.713 49.7967 191.713 49.0463C191.713 48.296 191.842 47.6058 192.102 46.9759C192.361 46.3459 192.72 45.8017 193.179 45.3431C193.637 44.8845 194.179 44.5256 194.804 44.2662C195.43 44.0068 196.108 43.8771 196.84 43.8771C197.572 43.8771 198.25 44.0068 198.875 44.2662C199.501 44.5256 200.043 44.8845 200.501 45.3431C200.96 45.8017 201.319 46.3459 201.578 46.9759C201.837 47.6058 201.967 48.296 201.967 49.0463ZM200.911 49.0463C200.911 48.472 200.818 47.9254 200.633 47.4066C200.448 46.8878 200.179 46.4316 199.827 46.0379C199.475 45.6442 199.047 45.3315 198.542 45.0999C198.037 44.8683 197.47 44.7525 196.84 44.7525C196.21 44.7525 195.643 44.8683 195.138 45.0999C194.633 45.3315 194.204 45.6442 193.852 46.0379C193.5 46.4316 193.232 46.8878 193.047 47.4066C192.861 47.9254 192.769 48.472 192.769 49.0463C192.769 49.6207 192.861 50.1673 193.047 50.6861C193.232 51.2048 193.5 51.6588 193.852 52.0479C194.204 52.4369 194.633 52.7473 195.138 52.9789C195.643 53.2105 196.21 53.3263 196.84 53.3263C197.47 53.3263 198.037 53.2105 198.542 52.9789C199.047 52.7473 199.475 52.4369 199.827 52.0479C200.179 51.6588 200.448 51.2048 200.633 50.6861C200.818 50.1673 200.911 49.6207 200.911 49.0463ZM205.049 53.9655H204.049V44.1272H206.939C207.42 44.1272 207.867 44.1735 208.28 44.2662C208.692 44.3588 209.049 44.5093 209.35 44.7178C209.651 44.9262 209.885 45.1972 210.051 45.5307C210.218 45.8642 210.301 46.2718 210.301 46.7535C210.301 47.1148 210.237 47.4437 210.107 47.7401C209.977 48.0366 209.801 48.2936 209.579 48.5114C209.357 48.7291 209.093 48.9027 208.787 49.0324C208.481 49.1621 208.148 49.2455 207.786 49.2826L210.663 53.9655H209.44L206.716 49.3659H205.049V53.9655ZM205.049 48.5044H206.786C207.592 48.5044 208.213 48.3585 208.648 48.0667C209.083 47.7749 209.301 47.3372 209.301 46.7535C209.301 46.4293 209.241 46.156 209.12 45.9337C209 45.7113 208.833 45.5307 208.62 45.3917C208.407 45.2528 208.148 45.1509 207.842 45.086C207.536 45.0212 207.198 44.9887 206.828 44.9887H205.049V48.5044ZM212.3 53.9655H211.202L215.454 44.1272H216.426L220.65 53.9655H219.539L218.455 51.3808H213.369L212.3 53.9655ZM213.745 50.4637H218.08L215.912 45.2389L213.745 50.4637ZM222.093 44.1272H225.358C225.969 44.1272 226.583 44.2291 227.199 44.4329C227.815 44.6367 228.371 44.9447 228.867 45.357C229.362 45.7692 229.763 46.2834 230.069 46.8994C230.374 47.5155 230.527 48.2311 230.527 49.0463C230.527 49.8708 230.374 50.5888 230.069 51.2002C229.763 51.8116 229.362 52.3235 228.867 52.7357C228.371 53.1479 227.815 53.456 227.199 53.6598C226.583 53.8636 225.969 53.9655 225.358 53.9655H222.093V44.1272ZM223.093 53.0761H225.08C225.821 53.0761 226.467 52.9603 227.019 52.7287C227.57 52.4972 228.026 52.1938 228.387 51.8186C228.748 51.4434 229.019 51.0149 229.2 50.5332C229.381 50.0515 229.471 49.5559 229.471 49.0463C229.471 48.5368 229.381 48.0412 229.2 47.5595C229.019 47.0778 228.748 46.6493 228.387 46.2741C228.026 45.8989 227.57 45.5955 227.019 45.3639C226.467 45.1323 225.821 45.0165 225.08 45.0165H223.093V53.0761ZM242.335 49.0463C242.335 49.7967 242.205 50.4869 241.946 51.1168C241.687 51.7468 241.328 52.291 240.869 52.7496C240.411 53.2082 239.869 53.5671 239.243 53.8265C238.618 54.0859 237.94 54.2156 237.208 54.2156C236.476 54.2156 235.797 54.0859 235.172 53.8265C234.547 53.5671 234.005 53.2082 233.546 52.7496C233.088 52.291 232.729 51.7468 232.47 51.1168C232.21 50.4869 232.081 49.7967 232.081 49.0463C232.081 48.296 232.21 47.6058 232.47 46.9759C232.729 46.3459 233.088 45.8017 233.546 45.3431C234.005 44.8845 234.547 44.5256 235.172 44.2662C235.797 44.0068 236.476 43.8771 237.208 43.8771C237.94 43.8771 238.618 44.0068 239.243 44.2662C239.869 44.5256 240.411 44.8845 240.869 45.3431C241.328 45.8017 241.687 46.3459 241.946 46.9759C242.205 47.6058 242.335 48.296 242.335 49.0463ZM241.279 49.0463C241.279 48.472 241.186 47.9254 241.001 47.4066C240.816 46.8878 240.547 46.4316 240.195 46.0379C239.843 45.6442 239.415 45.3315 238.91 45.0999C238.405 44.8683 237.838 44.7525 237.208 44.7525C236.578 44.7525 236.011 44.8683 235.506 45.0999C235.001 45.3315 234.572 45.6442 234.22 46.0379C233.868 46.4316 233.6 46.8878 233.414 47.4066C233.229 47.9254 233.137 48.472 233.137 49.0463C233.137 49.6207 233.229 50.1673 233.414 50.6861C233.6 51.2048 233.868 51.6588 234.22 52.0479C234.572 52.4369 235.001 52.7473 235.506 52.9789C236.011 53.2105 236.578 53.3263 237.208 53.3263C237.838 53.3263 238.405 53.2105 238.91 52.9789C239.415 52.7473 239.843 52.4369 240.195 52.0479C240.547 51.6588 240.816 51.2048 241.001 50.6861C241.186 50.1673 241.279 49.6207 241.279 49.0463ZM256.169 52.3814C256.002 52.6315 255.801 52.8677 255.565 53.09C255.328 53.3124 255.055 53.5069 254.745 53.6737C254.434 53.8404 254.092 53.9724 253.717 54.0697C253.341 54.167 252.931 54.2156 252.487 54.2156C251.746 54.2156 251.06 54.0859 250.43 53.8265C249.8 53.5671 249.259 53.2082 248.805 52.7496C248.351 52.291 247.996 51.7468 247.742 51.1168C247.487 50.4869 247.36 49.7967 247.36 49.0463C247.36 48.296 247.489 47.6058 247.749 46.9759C248.008 46.3459 248.367 45.8017 248.826 45.3431C249.284 44.8845 249.826 44.5256 250.451 44.2662C251.077 44.0068 251.755 43.8771 252.487 43.8771C252.848 43.8771 253.202 43.9141 253.55 43.9882C253.897 44.0624 254.224 44.1666 254.529 44.3009C254.835 44.4352 255.113 44.5973 255.363 44.7873C255.613 44.9772 255.822 45.1926 255.988 45.4334L255.155 46.0448C255.053 45.8873 254.916 45.7299 254.745 45.5724C254.573 45.4149 254.372 45.2759 254.14 45.1555C253.909 45.0351 253.656 44.9378 253.383 44.8637C253.11 44.7896 252.816 44.7525 252.501 44.7525C251.862 44.7525 251.29 44.8683 250.785 45.0999C250.28 45.3315 249.851 45.6442 249.499 46.0379C249.147 46.4316 248.879 46.8878 248.694 47.4066C248.508 47.9254 248.416 48.472 248.416 49.0463C248.416 49.6207 248.511 50.1673 248.7 50.6861C248.89 51.2048 249.161 51.6611 249.513 52.0548C249.865 52.4485 250.294 52.7612 250.799 52.9928C251.303 53.2244 251.871 53.3402 252.501 53.3402C253.066 53.3402 253.603 53.2244 254.113 52.9928C254.622 52.7612 255.048 52.3906 255.391 51.8811L256.169 52.3814ZM257.889 44.1272H258.89V48.3932H264.253V44.1272H265.254V53.9655H264.253V49.3104H258.89V53.9655H257.889V44.1272ZM267.794 53.9655H266.696L270.948 44.1272H271.92L276.145 53.9655H275.033L273.949 51.3808H268.864L267.794 53.9655ZM269.239 50.4637H273.574L271.406 45.2389L269.239 50.4637ZM277.587 44.1272H280.366C280.866 44.1272 281.32 44.1805 281.728 44.287C282.135 44.3935 282.485 44.5557 282.777 44.7734C283.068 44.9911 283.293 45.2643 283.451 45.5932C283.608 45.9221 283.687 46.3089 283.687 46.7535C283.687 47.1982 283.606 47.585 283.444 47.9138C283.282 48.2427 283.055 48.516 282.763 48.7337C282.471 48.9514 282.119 49.1158 281.707 49.227C281.295 49.3382 280.838 49.3937 280.338 49.3937H278.587V53.9655H277.587V44.1272ZM278.587 48.5461H280.283C281.07 48.5461 281.667 48.3932 282.075 48.0875C282.483 47.7818 282.686 47.3372 282.686 46.7535C282.686 46.1421 282.476 45.6951 282.054 45.4126C281.633 45.13 281.042 44.9887 280.283 44.9887H278.587V48.5461ZM288.714 53.9655H287.714V45.0165H284.421V44.1272H292.007V45.0165H288.714V53.9655ZM294.478 53.0761H299.744V53.9655H293.477V44.1272H299.577V45.0165H294.478V48.4071H299.244V49.2826H294.478V53.0761ZM302.701 53.9655H301.7V44.1272H304.591C305.072 44.1272 305.519 44.1735 305.931 44.2662C306.344 44.3588 306.7 44.5093 307.001 44.7178C307.302 44.9262 307.536 45.1972 307.703 45.5307C307.87 45.8642 307.953 46.2718 307.953 46.7535C307.953 47.1148 307.888 47.4437 307.759 47.7401C307.629 48.0366 307.453 48.2936 307.231 48.5114C307.008 48.7291 306.744 48.9027 306.439 49.0324C306.133 49.1621 305.799 49.2455 305.438 49.2826L308.314 53.9655H307.092L304.368 49.3659H302.701V53.9655ZM302.701 48.5044H304.438C305.244 48.5044 305.864 48.3585 306.3 48.0667C306.735 47.7749 306.953 47.3372 306.953 46.7535C306.953 46.4293 306.893 46.156 306.772 45.9337C306.652 45.7113 306.485 45.5307 306.272 45.3917C306.059 45.2528 305.799 45.1509 305.494 45.086C305.188 45.0212 304.85 44.9887 304.479 44.9887H302.701V48.5044Z" fill="white"/>
<path fill-rule="evenodd" clip-rule="evenodd" d="M164.631 98.3551H163.533L167.785 88.5168H168.758L172.982 98.3551H171.87L170.786 95.7705H165.701L164.631 98.3551ZM166.076 94.8533H170.411L168.244 89.6285L166.076 94.8533ZM174.429 88.5168H177.694C178.306 88.5168 178.919 88.6187 179.535 88.8225C180.151 89.0263 180.707 89.3343 181.203 89.7466C181.698 90.1588 182.099 90.673 182.405 91.289C182.71 91.9051 182.863 92.6207 182.863 93.4359C182.863 94.2604 182.71 94.9784 182.405 95.5898C182.099 96.2012 181.698 96.7131 181.203 97.1253C180.707 97.5375 180.151 97.8456 179.535 98.0494C178.919 98.2532 178.306 98.3551 177.694 98.3551H174.429V88.5168ZM175.429 97.4658H177.416C178.157 97.4658 178.803 97.35 179.355 97.1184C179.906 96.8868 180.362 96.5834 180.723 96.2082C181.085 95.833 181.355 95.4045 181.536 94.9228C181.717 94.4411 181.807 93.9455 181.807 93.4359C181.807 92.9264 181.717 92.4308 181.536 91.9491C181.355 91.4674 181.085 91.0389 180.723 90.6637C180.362 90.2885 179.906 89.9851 179.355 89.7535C178.803 89.5219 178.157 89.4061 177.416 89.4061H175.429V97.4658ZM187.798 97.0628H187.826L191.021 88.5168H192.091L188.326 98.3551H187.27L183.518 88.5168H184.602L187.798 97.0628ZM192.955 98.3551H191.857L196.109 88.5168H197.081L201.306 98.3551H200.194L199.11 95.7705H194.025L192.955 98.3551ZM194.4 94.8533H198.735L196.567 89.6285L194.4 94.8533ZM209.728 96.896H209.756V88.5168H210.756V98.3551H209.506L203.781 89.8925H203.753V98.3551H202.753V88.5168H204.003L209.728 96.896ZM221.652 96.771C221.485 97.0211 221.283 97.2573 221.047 97.4796C220.811 97.702 220.538 97.8965 220.227 98.0633C219.917 98.23 219.574 98.362 219.199 98.4593C218.824 98.5566 218.414 98.6052 217.969 98.6052C217.228 98.6052 216.543 98.4755 215.913 98.2161C215.283 97.9567 214.741 97.5978 214.287 97.1392C213.833 96.6806 213.479 96.1364 213.224 95.5064C212.97 94.8765 212.842 94.1863 212.842 93.4359C212.842 92.6856 212.972 91.9954 213.231 91.3655C213.491 90.7355 213.85 90.1913 214.308 89.7327C214.767 89.2741 215.309 88.9152 215.934 88.6558C216.559 88.3964 217.238 88.2667 217.969 88.2667C218.331 88.2667 218.685 88.3037 219.032 88.3778C219.38 88.452 219.706 88.5562 220.012 88.6905C220.318 88.8248 220.596 88.9869 220.846 89.1769C221.096 89.3668 221.304 89.5822 221.471 89.823L220.637 90.4344C220.535 90.2769 220.399 90.1195 220.227 89.962C220.056 89.8045 219.855 89.6655 219.623 89.5451C219.391 89.4247 219.139 89.3274 218.866 89.2533C218.592 89.1792 218.298 89.1421 217.983 89.1421C217.344 89.1421 216.772 89.2579 216.267 89.4895C215.762 89.7211 215.334 90.0338 214.982 90.4275C214.63 90.8212 214.361 91.2774 214.176 91.7962C213.991 92.315 213.898 92.8616 213.898 93.4359C213.898 94.0103 213.993 94.5569 214.183 95.0757C214.373 95.5944 214.644 96.0507 214.996 96.4444C215.348 96.8381 215.776 97.1508 216.281 97.3824C216.786 97.614 217.353 97.7298 217.983 97.7298C218.548 97.7298 219.086 97.614 219.595 97.3824C220.105 97.1508 220.531 96.7802 220.874 96.2707L221.652 96.771ZM224.377 98.3551H223.377V88.5168H224.377V98.3551ZM233.966 96.896H233.994V88.5168H234.995V98.3551H233.744L228.019 89.8925H227.992V98.3551H226.991V88.5168H228.242L233.966 96.896ZM245.07 90.2816C244.728 89.9203 244.32 89.6401 243.848 89.4409C243.375 89.2417 242.833 89.1421 242.222 89.1421C241.592 89.1421 241.025 89.2579 240.52 89.4895C240.015 89.7211 239.587 90.0338 239.235 90.4275C238.883 90.8212 238.612 91.2774 238.422 91.7962C238.232 92.315 238.137 92.8616 238.137 93.4359C238.137 94.0103 238.232 94.5569 238.422 95.0757C238.612 95.5944 238.883 96.0484 239.235 96.4375C239.587 96.8265 240.015 97.1369 240.52 97.3685C241.025 97.6001 241.592 97.7159 242.222 97.7159C242.778 97.7159 243.287 97.6557 243.75 97.5352C244.214 97.4148 244.589 97.2619 244.876 97.0767V94.0891H242.583V93.2136H245.876V97.6464C245.339 97.9706 244.76 98.2115 244.139 98.369C243.519 98.5265 242.875 98.6052 242.208 98.6052C241.467 98.6052 240.782 98.4755 240.152 98.2161C239.522 97.9567 238.98 97.5978 238.526 97.1392C238.072 96.6806 237.718 96.1364 237.463 95.5064C237.208 94.8765 237.081 94.1863 237.081 93.4359C237.081 92.6856 237.211 91.9954 237.47 91.3655C237.729 90.7355 238.088 90.1913 238.547 89.7327C239.005 89.2741 239.547 88.9152 240.172 88.6558C240.798 88.3964 241.476 88.2667 242.208 88.2667C242.995 88.2667 243.681 88.3825 244.265 88.6141C244.848 88.8457 245.348 89.1699 245.765 89.5868L245.07 90.2816ZM252.911 97.4658H258.177V98.3551H251.911V88.5168H258.01V89.4061H252.911V92.7967H257.677V93.6722H252.911V97.4658ZM265.002 96.6598H265.015L268.309 88.5168H269.837V98.3551H268.837V89.8091H268.809L265.252 98.3551H264.724L261.167 89.8091H261.139V98.3551H260.138V88.5168H261.667L265.002 96.6598ZM273.452 97.4658H278.718V98.3551H272.451V88.5168H278.551V89.4061H273.452V92.7967H278.218V93.6722H273.452V97.4658ZM281.679 98.3551H280.679V88.5168H283.569C284.051 88.5168 284.498 88.5631 284.91 88.6558C285.322 88.7484 285.679 88.8989 285.98 89.1074C286.281 89.3158 286.515 89.5868 286.682 89.9203C286.848 90.2538 286.932 90.6614 286.932 91.1431C286.932 91.5044 286.867 91.8333 286.737 92.1297C286.607 92.4262 286.431 92.6833 286.209 92.901C285.987 93.1187 285.723 93.2924 285.417 93.4221C285.111 93.5517 284.778 93.6351 284.417 93.6722L287.293 98.3551H286.07L283.347 93.7556H281.679V98.3551ZM281.679 92.894H283.416C284.222 92.894 284.843 92.7481 285.278 92.4563C285.714 92.1645 285.931 91.7268 285.931 91.1431C285.931 90.8189 285.871 90.5456 285.751 90.3233C285.63 90.1009 285.463 89.9203 285.25 89.7813C285.037 89.6424 284.778 89.5405 284.472 89.4756C284.167 89.4108 283.828 89.3783 283.458 89.3783H281.679V92.894ZM296.466 90.2816C296.123 89.9203 295.715 89.6401 295.243 89.4409C294.77 89.2417 294.228 89.1421 293.617 89.1421C292.987 89.1421 292.42 89.2579 291.915 89.4895C291.41 89.7211 290.982 90.0338 290.63 90.4275C290.278 90.8212 290.007 91.2774 289.817 91.7962C289.627 92.315 289.532 92.8616 289.532 93.4359C289.532 94.0103 289.627 94.5569 289.817 95.0757C290.007 95.5944 290.278 96.0484 290.63 96.4375C290.982 96.8265 291.41 97.1369 291.915 97.3685C292.42 97.6001 292.987 97.7159 293.617 97.7159C294.173 97.7159 294.682 97.6557 295.146 97.5352C295.609 97.4148 295.984 97.2619 296.271 97.0767V94.0891H293.978V93.2136H297.271V97.6464C296.734 97.9706 296.155 98.2115 295.535 98.369C294.914 98.5265 294.27 98.6052 293.603 98.6052C292.862 98.6052 292.177 98.4755 291.547 98.2161C290.917 97.9567 290.375 97.5978 289.921 97.1392C289.467 96.6806 289.113 96.1364 288.858 95.5064C288.603 94.8765 288.476 94.1863 288.476 93.4359C288.476 92.6856 288.606 91.9954 288.865 91.3655C289.124 90.7355 289.483 90.1913 289.942 89.7327C290.4 89.2741 290.942 88.9152 291.568 88.6558C292.193 88.3964 292.871 88.2667 293.603 88.2667C294.391 88.2667 295.076 88.3825 295.66 88.6141C296.243 88.8457 296.743 89.1699 297.16 89.5868L296.466 90.2816ZM300.831 97.4658H306.097V98.3551H299.83V88.5168H305.93V89.4061H300.831V92.7967H305.596V93.6722H300.831V97.4658ZM315.033 96.896H315.061V88.5168H316.061V98.3551H314.811L309.086 89.8925H309.058V98.3551H308.058V88.5168H309.308L315.033 96.896ZM326.957 96.771C326.79 97.0211 326.589 97.2573 326.352 97.4796C326.116 97.702 325.843 97.8965 325.533 98.0633C325.222 98.23 324.88 98.362 324.504 98.4593C324.129 98.5566 323.719 98.6052 323.275 98.6052C322.534 98.6052 321.848 98.4755 321.218 98.2161C320.588 97.9567 320.046 97.5978 319.593 97.1392C319.139 96.6806 318.784 96.1364 318.53 95.5064C318.275 94.8765 318.147 94.1863 318.147 93.4359C318.147 92.6856 318.277 91.9954 318.537 91.3655C318.796 90.7355 319.155 90.1913 319.613 89.7327C320.072 89.2741 320.614 88.9152 321.239 88.6558C321.864 88.3964 322.543 88.2667 323.275 88.2667C323.636 88.2667 323.99 88.3037 324.338 88.3778C324.685 88.452 325.012 88.5562 325.317 88.6905C325.623 88.8248 325.901 88.9869 326.151 89.1769C326.401 89.3668 326.61 89.5822 326.776 89.823L325.943 90.4344C325.841 90.2769 325.704 90.1195 325.533 89.962C325.361 89.8045 325.16 89.6655 324.928 89.5451C324.697 89.4247 324.444 89.3274 324.171 89.2533C323.898 89.1792 323.604 89.1421 323.289 89.1421C322.649 89.1421 322.077 89.2579 321.573 89.4895C321.068 89.7211 320.639 90.0338 320.287 90.4275C319.935 90.8212 319.667 91.2774 319.481 91.7962C319.296 92.315 319.203 92.8616 319.203 93.4359C319.203 94.0103 319.298 94.5569 319.488 95.0757C319.678 95.5944 319.949 96.0507 320.301 96.4444C320.653 96.8381 321.082 97.1508 321.586 97.3824C322.091 97.614 322.659 97.7298 323.289 97.7298C323.854 97.7298 324.391 97.614 324.9 97.3824C325.41 97.1508 325.836 96.7802 326.179 96.2707L326.957 96.771ZM331.892 98.3551H330.891V94.1168L327.209 88.5168H328.459L331.419 93.2831L334.407 88.5168H335.574L331.892 94.1168V98.3551ZM348.305 96.771C348.139 97.0211 347.937 97.2573 347.701 97.4796C347.465 97.702 347.191 97.8965 346.881 98.0633C346.571 98.23 346.228 98.362 345.853 98.4593C345.478 98.5566 345.068 98.6052 344.623 98.6052C343.882 98.6052 343.197 98.4755 342.567 98.2161C341.937 97.9567 341.395 97.5978 340.941 97.1392C340.487 96.6806 340.133 96.1364 339.878 95.5064C339.623 94.8765 339.496 94.1863 339.496 93.4359C339.496 92.6856 339.626 91.9954 339.885 91.3655C340.144 90.7355 340.503 90.1913 340.962 89.7327C341.42 89.2741 341.962 88.9152 342.588 88.6558C343.213 88.3964 343.891 88.2667 344.623 88.2667C344.984 88.2667 345.339 88.3037 345.686 88.3778C346.034 88.452 346.36 88.5562 346.666 88.6905C346.971 88.8248 347.249 88.9869 347.499 89.1769C347.75 89.3668 347.958 89.5822 348.125 89.823L347.291 90.4344C347.189 90.2769 347.052 90.1195 346.881 89.962C346.71 89.8045 346.508 89.6655 346.277 89.5451C346.045 89.4247 345.793 89.3274 345.519 89.2533C345.246 89.1792 344.952 89.1421 344.637 89.1421C343.998 89.1421 343.426 89.2579 342.921 89.4895C342.416 89.7211 341.988 90.0338 341.636 90.4275C341.284 90.8212 341.015 91.2774 340.83 91.7962C340.645 92.315 340.552 92.8616 340.552 93.4359C340.552 94.0103 340.647 94.5569 340.837 95.0757C341.027 95.5944 341.298 96.0507 341.65 96.4444C342.002 96.8381 342.43 97.1508 342.935 97.3824C343.44 97.614 344.007 97.7298 344.637 97.7298C345.202 97.7298 345.739 97.614 346.249 97.3824C346.758 97.1508 347.184 96.7802 347.527 96.2707L348.305 96.771ZM349.794 98.3551H348.696L352.948 88.5168H353.921L358.145 98.3551H357.033L355.949 95.7705H350.864L349.794 98.3551ZM351.239 94.8533H355.574L353.407 89.6285L351.239 94.8533ZM360.592 98.3551H359.592V88.5168H362.482C362.964 88.5168 363.411 88.5631 363.823 88.6558C364.235 88.7484 364.592 88.8989 364.893 89.1074C365.194 89.3158 365.428 89.5868 365.595 89.9203C365.761 90.2538 365.845 90.6614 365.845 91.1431C365.845 91.5044 365.78 91.8333 365.65 92.1297C365.52 92.4262 365.344 92.6833 365.122 92.901C364.9 93.1187 364.636 93.2924 364.33 93.4221C364.024 93.5517 363.691 93.6351 363.33 93.6722L366.206 98.3551H364.983L362.26 93.7556H360.592V98.3551ZM360.592 92.894H362.329C363.135 92.894 363.756 92.7481 364.191 92.4563C364.626 92.1645 364.844 91.7268 364.844 91.1431C364.844 90.8189 364.784 90.5456 364.664 90.3233C364.543 90.1009 364.376 89.9203 364.163 89.7813C363.95 89.6424 363.691 89.5405 363.385 89.4756C363.08 89.4108 362.741 89.3783 362.371 89.3783H360.592V92.894ZM368.917 97.4658H374.184V98.3551H367.917V88.5168H374.017V89.4061H368.917V92.7967H373.683V93.6722H368.917V97.4658Z" fill="white"/>
</svg>
