<?xml version="1.0" encoding="UTF-8" standalone="no"?>
<svg width="529px" height="139px" viewBox="0 0 529 139" version="1.1" xmlns="http://www.w3.org/2000/svg" xmlns:xlink="http://www.w3.org/1999/xlink" xmlns:sketch="http://www.bohemiancoding.com/sketch/ns">
    <!-- Generator: Sketch 3.4.3 (16044) - http://www.bohemiancoding.com/sketch -->
    <title>white</title>
    <desc>Created with Sketch.</desc>
    <defs></defs>
    <g id="Page-1" stroke="none" stroke-width="1" fill="none" fill-rule="evenodd" sketch:type="MSPage">
        <g id="logo" sketch:type="MSArtboardGroup" transform="translate(-267.000000, -773.000000)" fill="#FFFFFF">
            <g id="white" sketch:type="MSLayerGroup" transform="translate(268.000000, 773.000000)">
                <path d="M11.8652344,10.5664062 C11.7024731,12.0638096 11.1669967,13.2096314 10.2587891,14.0039062 C9.3505814,14.7981811 8.14128359,15.1953125 6.63085938,15.1953125 C5.5761666,15.1953125 4.64355874,14.9316433 3.83300781,14.4042969 C3.02245688,13.8769505 2.39583555,13.1298876 1.953125,12.1630859 C1.51041445,11.1962842 1.28580732,10.0911521 1.27929688,8.84765625 L1.27929688,7.00195312 C1.27929688,5.73892598 1.50064883,4.61914551 1.94335938,3.64257812 C2.38606992,2.66601074 3.02245679,1.91243755 3.85253906,1.38183594 C4.68262134,0.851234326 5.63801543,0.5859375 6.71875,0.5859375 C8.24219512,0.5859375 9.44498257,0.997717236 10.3271484,1.82128906 C11.2093143,2.64486089 11.7220045,3.78254482 11.8652344,5.234375 L10.6542969,5.234375 C10.3548162,2.81899834 9.04298037,1.61132812 6.71875,1.61132812 C5.42968105,1.61132812 4.4026731,2.09309414 3.63769531,3.05664062 C2.87271753,4.02018711 2.49023438,5.351554 2.49023438,7.05078125 L2.49023438,8.7890625 C2.49023438,10.4296957 2.862952,11.7382764 3.60839844,12.7148438 C4.35384487,13.6914111 5.36132178,14.1796875 6.63085938,14.1796875 C7.88737607,14.1796875 8.83463223,13.8785837 9.47265625,13.2763672 C10.1106803,12.6741506 10.5045565,11.7708394 10.6542969,10.5664062 L11.8652344,10.5664062 Z M26.2929688,8.66210938 C26.2929688,9.97070967 26.066734,11.1197867 25.6142578,12.109375 C25.1617816,13.0989633 24.5156292,13.8606744 23.6757812,14.3945312 C22.8359333,14.9283881 21.8658909,15.1953125 20.765625,15.1953125 C19.1054604,15.1953125 17.764328,14.6012429 16.7421875,13.4130859 C15.720047,12.224929 15.2089844,10.6217549 15.2089844,8.60351562 L15.2089844,7.13867188 C15.2089844,5.84309248 15.4384743,4.69564302 15.8974609,3.69628906 C16.3564476,2.69693511 17.0058552,1.92871362 17.8457031,1.39160156 C18.6855511,0.854489502 19.6523383,0.5859375 20.7460938,0.5859375 C21.8398492,0.5859375 22.8050088,0.849606738 23.6416016,1.37695312 C24.4781943,1.90429951 25.1243467,2.64973477 25.5800781,3.61328125 C26.0358096,4.57682773 26.2734374,5.69335303 26.2929688,6.96289062 L26.2929688,8.66210938 Z M25.0917969,7.11914062 C25.0917969,5.40689248 24.704431,4.06576006 23.9296875,3.09570312 C23.154944,2.12564619 22.0937567,1.640625 20.7460938,1.640625 C19.4244726,1.640625 18.3714232,2.12727378 17.5869141,3.10058594 C16.8024049,4.0738981 16.4101562,5.43293398 16.4101562,7.17773438 L16.4101562,8.66210938 C16.4101562,10.3483157 16.8007773,11.6845654 17.5820312,12.6708984 C18.3632852,13.6572315 19.4244725,14.1503906 20.765625,14.1503906 C22.1263089,14.1503906 23.1874962,13.6637418 23.9492188,12.6904297 C24.7109413,11.7171175 25.0917969,10.3613368 25.0917969,8.62304688 L25.0917969,7.11914062 Z M31.53125,13.984375 L38.5527344,13.984375 L38.5527344,15 L30.3203125,15 L30.3203125,0.78125 L31.53125,0.78125 L31.53125,13.984375 Z M51.7304688,8.66210938 C51.7304688,9.97070967 51.504234,11.1197867 51.0517578,12.109375 C50.5992816,13.0989633 49.9531292,13.8606744 49.1132812,14.3945312 C48.2734333,14.9283881 47.3033909,15.1953125 46.203125,15.1953125 C44.5429604,15.1953125 43.201828,14.6012429 42.1796875,13.4130859 C41.157547,12.224929 40.6464844,10.6217549 40.6464844,8.60351562 L40.6464844,7.13867188 C40.6464844,5.84309248 40.8759743,4.69564302 41.3349609,3.69628906 C41.7939476,2.69693511 42.4433552,1.92871362 43.2832031,1.39160156 C44.1230511,0.854489502 45.0898383,0.5859375 46.1835938,0.5859375 C47.2773492,0.5859375 48.2425088,0.849606738 49.0791016,1.37695312 C49.9156943,1.90429951 50.5618467,2.64973477 51.0175781,3.61328125 C51.4733096,4.57682773 51.7109374,5.69335303 51.7304688,6.96289062 L51.7304688,8.66210938 Z M50.5292969,7.11914062 C50.5292969,5.40689248 50.141931,4.06576006 49.3671875,3.09570312 C48.592444,2.12564619 47.5312567,1.640625 46.1835938,1.640625 C44.8619726,1.640625 43.8089232,2.12727378 43.0244141,3.10058594 C42.2399049,4.0738981 41.8476562,5.43293398 41.8476562,7.17773438 L41.8476562,8.66210938 C41.8476562,10.3483157 42.2382773,11.6845654 43.0195312,12.6708984 C43.8007852,13.6572315 44.8619725,14.1503906 46.203125,14.1503906 C47.5638089,14.1503906 48.6249962,13.6637418 49.3867188,12.6904297 C50.1484413,11.7171175 50.5292969,10.3613368 50.5292969,8.62304688 L50.5292969,7.11914062 Z M61.0703125,9.08203125 L56.9394531,9.08203125 L56.9394531,15 L55.7285156,15 L55.7285156,0.78125 L60.3476562,0.78125 C61.8645909,0.78125 63.0494749,1.14908486 63.9023438,1.88476562 C64.7552126,2.62044639 65.1816406,3.64908193 65.1816406,4.97070312 C65.1816406,5.88216602 64.9147162,6.68619443 64.3808594,7.3828125 C63.8470025,8.07943057 63.1308639,8.56119658 62.2324219,8.828125 L65.7871094,14.8730469 L65.7871094,15 L64.5078125,15 L61.0703125,9.08203125 Z M56.9394531,8.05664062 L60.6210938,8.05664062 C61.6302134,8.05664062 62.4407521,7.77018516 63.0527344,7.19726562 C63.6647166,6.62434609 63.9707031,5.88216602 63.9707031,4.97070312 C63.9707031,3.96809395 63.6516959,3.19010693 63.0136719,2.63671875 C62.3756479,2.08333057 61.4804745,1.80664062 60.328125,1.80664062 L56.9394531,1.80664062 L56.9394531,8.05664062 Z M77.1289062,11.015625 L70.6738281,11.015625 L69.2089844,15 L67.9492188,15 L73.3300781,0.78125 L74.4726562,0.78125 L79.8535156,15 L78.6035156,15 L77.1289062,11.015625 Z M71.0449219,9.99023438 L76.7480469,9.99023438 L73.8964844,2.24609375 L71.0449219,9.99023438 Z M82.9433594,15 L82.9433594,0.78125 L86.9179688,0.78125 C88.0833392,0.78125 89.1282506,1.04654683 90.0527344,1.57714844 C90.9772182,2.10775005 91.6982396,2.86783359 92.2158203,3.85742188 C92.733401,4.84701016 92.9921875,5.97330098 92.9921875,7.23632812 L92.9921875,8.54492188 C92.9921875,9.81445947 92.7350286,10.9407503 92.2207031,11.9238281 C91.7063776,12.906906 90.982101,13.6653619 90.0478516,14.1992188 C89.1136021,14.7330756 88.0410217,15 86.8300781,15 L82.9433594,15 Z M84.1445312,1.80664062 L84.1445312,13.984375 L86.8398438,13.984375 C88.3372471,13.984375 89.5384069,13.4879607 90.4433594,12.4951172 C91.3483118,11.5022737 91.8007812,10.1595137 91.8007812,8.46679688 L91.8007812,7.21679688 C91.8007812,5.58267412 91.3548222,4.27409346 90.4628906,3.29101562 C89.5709591,2.30793779 88.3958406,1.81315107 86.9375,1.80664062 L84.1445312,1.80664062 Z M107.546875,8.66210938 C107.546875,9.97070967 107.32064,11.1197867 106.868164,12.109375 C106.415688,13.0989633 105.769535,13.8606744 104.929688,14.3945312 C104.08984,14.9283881 103.119797,15.1953125 102.019531,15.1953125 C100.359367,15.1953125 99.0182343,14.6012429 97.9960938,13.4130859 C96.9739532,12.224929 96.4628906,10.6217549 96.4628906,8.60351562 L96.4628906,7.13867188 C96.4628906,5.84309248 96.6923805,4.69564302 97.1513672,3.69628906 C97.6103539,2.69693511 98.2597614,1.92871362 99.0996094,1.39160156 C99.9394573,0.854489502 100.906245,0.5859375 102,0.5859375 C103.093755,0.5859375 104.058915,0.849606738 104.895508,1.37695312 C105.732101,1.90429951 106.378253,2.64973477 106.833984,3.61328125 C107.289716,4.57682773 107.527344,5.69335303 107.546875,6.96289062 L107.546875,8.66210938 Z M106.345703,7.11914062 C106.345703,5.40689248 105.958337,4.06576006 105.183594,3.09570312 C104.40885,2.12564619 103.347663,1.640625 102,1.640625 C100.678379,1.640625 99.6253294,2.12727378 98.8408203,3.10058594 C98.0563112,4.0738981 97.6640625,5.43293398 97.6640625,7.17773438 L97.6640625,8.66210938 C97.6640625,10.3483157 98.0546836,11.6845654 98.8359375,12.6708984 C99.6171914,13.6572315 100.678379,14.1503906 102.019531,14.1503906 C103.380215,14.1503906 104.441402,13.6637418 105.203125,12.6904297 C105.964848,11.7171175 106.345703,10.3613368 106.345703,8.62304688 L106.345703,7.11914062 Z M127.505859,10.5664062 C127.343098,12.0638096 126.807622,13.2096314 125.899414,14.0039062 C124.991206,14.7981811 123.781909,15.1953125 122.271484,15.1953125 C121.216792,15.1953125 120.284184,14.9316433 119.473633,14.4042969 C118.663082,13.8769505 118.036461,13.1298876 117.59375,12.1630859 C117.151039,11.1962842 116.926432,10.0911521 116.919922,8.84765625 L116.919922,7.00195312 C116.919922,5.73892598 117.141274,4.61914551 117.583984,3.64257812 C118.026695,2.66601074 118.663082,1.91243755 119.493164,1.38183594 C120.323246,0.851234326 121.27864,0.5859375 122.359375,0.5859375 C123.88282,0.5859375 125.085608,0.997717236 125.967773,1.82128906 C126.849939,2.64486089 127.362629,3.78254482 127.505859,5.234375 L126.294922,5.234375 C125.995441,2.81899834 124.683605,1.61132812 122.359375,1.61132812 C121.070306,1.61132812 120.043298,2.09309414 119.27832,3.05664062 C118.513343,4.02018711 118.130859,5.351554 118.130859,7.05078125 L118.130859,8.7890625 C118.130859,10.4296957 118.503577,11.7382764 119.249023,12.7148438 C119.99447,13.6914111 121.001947,14.1796875 122.271484,14.1796875 C123.528001,14.1796875 124.475257,13.8785837 125.113281,13.2763672 C125.751305,12.6741506 126.145182,11.7708394 126.294922,10.5664062 L127.505859,10.5664062 Z M141.962891,15 L140.751953,15 L140.751953,8.18359375 L132.626953,8.18359375 L132.626953,15 L131.425781,15 L131.425781,0.78125 L132.626953,0.78125 L132.626953,7.16796875 L140.751953,7.16796875 L140.751953,0.78125 L141.962891,0.78125 L141.962891,15 Z M154.427734,11.015625 L147.972656,11.015625 L146.507812,15 L145.248047,15 L150.628906,0.78125 L151.771484,0.78125 L157.152344,15 L155.902344,15 L154.427734,11.015625 Z M148.34375,9.99023438 L154.046875,9.99023438 L151.195312,2.24609375 L148.34375,9.99023438 Z M161.443359,9.20898438 L161.443359,15 L160.242188,15 L160.242188,0.78125 L165.085938,0.78125 C166.563809,0.78125 167.73079,1.15885039 168.586914,1.9140625 C169.443038,2.66927461 169.871094,3.70767568 169.871094,5.02929688 C169.871094,6.36393896 169.459314,7.3942021 168.635742,8.12011719 C167.81217,8.84603228 166.619148,9.20898438 165.056641,9.20898438 L161.443359,9.20898438 Z M161.443359,8.19335938 L165.085938,8.19335938 C166.251308,8.19335938 167.139971,7.91666943 167.751953,7.36328125 C168.363935,6.80989307 168.669922,6.03841641 168.669922,5.04882812 C168.669922,4.06575029 168.365563,3.28288052 167.756836,2.70019531 C167.148109,2.11751011 166.28386,1.81966152 165.164062,1.80664062 L161.443359,1.80664062 L161.443359,8.19335938 Z M183.205078,1.80664062 L178.332031,1.80664062 L178.332031,15 L177.130859,15 L177.130859,1.80664062 L172.267578,1.80664062 L172.267578,0.78125 L183.205078,0.78125 L183.205078,1.80664062 Z M194.351562,8.18359375 L187.701172,8.18359375 L187.701172,13.984375 L195.347656,13.984375 L195.347656,15 L186.5,15 L186.5,0.78125 L195.298828,0.78125 L195.298828,1.80664062 L187.701172,1.80664062 L187.701172,7.16796875 L194.351562,7.16796875 L194.351562,8.18359375 Z M204.189453,9.08203125 L200.058594,9.08203125 L200.058594,15 L198.847656,15 L198.847656,0.78125 L203.466797,0.78125 C204.983732,0.78125 206.168616,1.14908486 207.021484,1.88476562 C207.874353,2.62044639 208.300781,3.64908193 208.300781,4.97070312 C208.300781,5.88216602 208.033857,6.68619443 207.5,7.3828125 C206.966143,8.07943057 206.250004,8.56119658 205.351562,8.828125 L208.90625,14.8730469 L208.90625,15 L207.626953,15 L204.189453,9.08203125 Z M200.058594,8.05664062 L203.740234,8.05664062 C204.749354,8.05664062 205.559893,7.77018516 206.171875,7.19726562 C206.783857,6.62434609 207.089844,5.88216602 207.089844,4.97070312 C207.089844,3.96809395 206.770837,3.19010693 206.132812,2.63671875 C205.494788,2.08333057 204.599615,1.80664062 203.447266,1.80664062 L200.058594,1.80664062 L200.058594,8.05664062 Z" id="COLORADO-CHAPTER" stroke="#FFFFFF" sketch:type="MSShapeGroup"></path>
                <path d="M9.47265625,124.015625 L3.01757812,124.015625 L1.55273438,128 L0.29296875,128 L5.67382812,113.78125 L6.81640625,113.78125 L12.1972656,128 L10.9472656,128 L9.47265625,124.015625 Z M3.38867188,122.990234 L9.09179688,122.990234 L6.24023438,115.246094 L3.38867188,122.990234 Z M15.2871094,128 L15.2871094,113.78125 L19.2617188,113.78125 C20.4270892,113.78125 21.4720006,114.046547 22.3964844,114.577148 C23.3209682,115.10775 24.0419896,115.867834 24.5595703,116.857422 C25.077151,117.84701 25.3359375,118.973301 25.3359375,120.236328 L25.3359375,121.544922 C25.3359375,122.814459 25.0787786,123.94075 24.5644531,124.923828 C24.0501276,125.906906 23.325851,126.665362 22.3916016,127.199219 C21.4573521,127.733076 20.3847717,128 19.1738281,128 L15.2871094,128 Z M16.4882812,114.806641 L16.4882812,126.984375 L19.1835938,126.984375 C20.6809971,126.984375 21.8821569,126.487961 22.7871094,125.495117 C23.6920618,124.502274 24.1445312,123.159514 24.1445312,121.466797 L24.1445312,120.216797 C24.1445312,118.582674 23.6985722,117.274093 22.8066406,116.291016 C21.9147091,115.307938 20.7395906,114.813151 19.28125,114.806641 L16.4882812,114.806641 Z M33.4550781,126.242188 L33.5332031,126.544922 L33.6210938,126.242188 L38.09375,113.78125 L39.4121094,113.78125 L34.1191406,128 L32.9667969,128 L27.6738281,113.78125 L28.9824219,113.78125 L33.4550781,126.242188 Z M49.4453125,124.015625 L42.9902344,124.015625 L41.5253906,128 L40.265625,128 L45.6464844,113.78125 L46.7890625,113.78125 L52.1699219,128 L50.9199219,128 L49.4453125,124.015625 Z M43.3613281,122.990234 L49.0644531,122.990234 L46.2128906,115.246094 L43.3613281,122.990234 Z M65.8457031,128 L64.6445312,128 L56.4707031,115.832031 L56.4707031,128 L55.2597656,128 L55.2597656,113.78125 L56.4707031,113.78125 L64.6542969,125.958984 L64.6542969,113.78125 L65.8457031,113.78125 L65.8457031,128 Z M80.5273438,123.566406 C80.3645825,125.06381 79.8291061,126.209631 78.9208984,127.003906 C78.0126908,127.798181 76.803393,128.195312 75.2929688,128.195312 C74.238276,128.195312 73.3056681,127.931643 72.4951172,127.404297 C71.6845663,126.87695 71.0579449,126.129888 70.6152344,125.163086 C70.1725238,124.196284 69.9479167,123.091152 69.9414062,121.847656 L69.9414062,120.001953 C69.9414062,118.738926 70.1627582,117.619146 70.6054688,116.642578 C71.0481793,115.666011 71.6845662,114.912438 72.5146484,114.381836 C73.3447307,113.851234 74.3001248,113.585938 75.3808594,113.585938 C76.9043045,113.585938 78.1070919,113.997717 78.9892578,114.821289 C79.8714237,115.644861 80.3841139,116.782545 80.5273438,118.234375 L79.3164062,118.234375 C79.0169256,115.818998 77.7050897,114.611328 75.3808594,114.611328 C74.0917904,114.611328 73.0647825,115.093094 72.2998047,116.056641 C71.5348269,117.020187 71.1523438,118.351554 71.1523438,120.050781 L71.1523438,121.789062 C71.1523438,123.429696 71.5250614,124.738276 72.2705078,125.714844 C73.0159542,126.691411 74.0234312,127.179688 75.2929688,127.179688 C76.5494854,127.179688 77.4967416,126.878584 78.1347656,126.276367 C78.7727896,125.674151 79.1666659,124.770839 79.3164062,123.566406 L80.5273438,123.566406 Z M85.9121094,128 L84.7109375,128 L84.7109375,113.78125 L85.9121094,113.78125 L85.9121094,128 Z M101.355469,128 L100.154297,128 L91.9804688,115.832031 L91.9804688,128 L90.7695312,128 L90.7695312,113.78125 L91.9804688,113.78125 L100.164062,125.958984 L100.164062,113.78125 L101.355469,113.78125 L101.355469,128 Z M116.232422,126.310547 C115.815753,126.902998 115.16309,127.365233 114.274414,127.697266 C113.385738,128.029299 112.391282,128.195312 111.291016,128.195312 C110.177729,128.195312 109.188155,127.928388 108.322266,127.394531 C107.456376,126.860674 106.78581,126.105474 106.310547,125.128906 C105.835284,124.152339 105.594401,123.032558 105.587891,121.769531 L105.587891,119.972656 C105.587891,117.99999 106.085933,116.442389 107.082031,115.299805 C108.07813,114.157221 109.416007,113.585938 111.095703,113.585938 C112.560554,113.585938 113.738928,113.958655 114.630859,114.704102 C115.522791,115.449548 116.053385,116.476556 116.222656,117.785156 L115.021484,117.785156 C114.845702,116.743484 114.420902,115.954104 113.74707,115.416992 C113.073239,114.87988 112.192714,114.611328 111.105469,114.611328 C109.777337,114.611328 108.725915,115.083329 107.951172,116.027344 C107.176428,116.971359 106.789062,118.302726 106.789062,120.021484 L106.789062,121.701172 C106.789062,122.781906 106.97298,123.737301 107.34082,124.567383 C107.708661,125.397465 108.235999,126.040362 108.922852,126.496094 C109.609704,126.951825 110.399084,127.179688 111.291016,127.179688 C112.326177,127.179688 113.21484,127.016929 113.957031,126.691406 C114.438804,126.476561 114.796874,126.225913 115.03125,125.939453 L115.03125,122.267578 L111.212891,122.267578 L111.212891,121.251953 L116.232422,121.251953 L116.232422,126.310547 Z M134.355469,121.183594 L127.705078,121.183594 L127.705078,126.984375 L135.351562,126.984375 L135.351562,128 L126.503906,128 L126.503906,113.78125 L135.302734,113.78125 L135.302734,114.806641 L127.705078,114.806641 L127.705078,120.167969 L134.355469,120.167969 L134.355469,121.183594 Z M140.472656,113.78125 L145.716797,126.330078 L150.980469,113.78125 L152.582031,113.78125 L152.582031,128 L151.380859,128 L151.380859,121.808594 L151.478516,115.460938 L146.185547,128 L145.257812,128 L139.984375,115.509766 L140.082031,121.769531 L140.082031,128 L138.880859,128 L138.880859,113.78125 L140.472656,113.78125 Z M165.037109,121.183594 L158.386719,121.183594 L158.386719,126.984375 L166.033203,126.984375 L166.033203,128 L157.185547,128 L157.185547,113.78125 L165.984375,113.78125 L165.984375,114.806641 L158.386719,114.806641 L158.386719,120.167969 L165.037109,120.167969 L165.037109,121.183594 Z M174.875,122.082031 L170.744141,122.082031 L170.744141,128 L169.533203,128 L169.533203,113.78125 L174.152344,113.78125 C175.669278,113.78125 176.854162,114.149085 177.707031,114.884766 C178.5599,115.620446 178.986328,116.649082 178.986328,117.970703 C178.986328,118.882166 178.719404,119.686194 178.185547,120.382812 C177.65169,121.079431 176.935551,121.561197 176.037109,121.828125 L179.591797,127.873047 L179.591797,128 L178.3125,128 L174.875,122.082031 Z M170.744141,121.056641 L174.425781,121.056641 C175.434901,121.056641 176.24544,120.770185 176.857422,120.197266 C177.469404,119.624346 177.775391,118.882166 177.775391,117.970703 C177.775391,116.968094 177.456383,116.190107 176.818359,115.636719 C176.180335,115.083331 175.285162,114.806641 174.132812,114.806641 L170.744141,114.806641 L170.744141,121.056641 Z M193.521484,126.310547 C193.104816,126.902998 192.452153,127.365233 191.563477,127.697266 C190.6748,128.029299 189.680344,128.195312 188.580078,128.195312 C187.466791,128.195312 186.477218,127.928388 185.611328,127.394531 C184.745438,126.860674 184.074872,126.105474 183.599609,125.128906 C183.124347,124.152339 182.883464,123.032558 182.876953,121.769531 L182.876953,119.972656 C182.876953,117.99999 183.374995,116.442389 184.371094,115.299805 C185.367192,114.157221 186.70507,113.585938 188.384766,113.585938 C189.849617,113.585938 191.02799,113.958655 191.919922,114.704102 C192.811853,115.449548 193.342447,116.476556 193.511719,117.785156 L192.310547,117.785156 C192.134765,116.743484 191.709964,115.954104 191.036133,115.416992 C190.362301,114.87988 189.481776,114.611328 188.394531,114.611328 C187.0664,114.611328 186.014978,115.083329 185.240234,116.027344 C184.465491,116.971359 184.078125,118.302726 184.078125,120.021484 L184.078125,121.701172 C184.078125,122.781906 184.262042,123.737301 184.629883,124.567383 C184.997723,125.397465 185.525062,126.040362 186.211914,126.496094 C186.898766,126.951825 187.688147,127.179688 188.580078,127.179688 C189.61524,127.179688 190.503903,127.016929 191.246094,126.691406 C191.727867,126.476561 192.085936,126.225913 192.320312,125.939453 L192.320312,122.267578 L188.501953,122.267578 L188.501953,121.251953 L193.521484,121.251953 L193.521484,126.310547 Z M205.78125,121.183594 L199.130859,121.183594 L199.130859,126.984375 L206.777344,126.984375 L206.777344,128 L197.929688,128 L197.929688,113.78125 L206.728516,113.78125 L206.728516,114.806641 L199.130859,114.806641 L199.130859,120.167969 L205.78125,120.167969 L205.78125,121.183594 Z M220.892578,128 L219.691406,128 L211.517578,115.832031 L211.517578,128 L210.306641,128 L210.306641,113.78125 L211.517578,113.78125 L219.701172,125.958984 L219.701172,113.78125 L220.892578,113.78125 L220.892578,128 Z M235.574219,123.566406 C235.411458,125.06381 234.875981,126.209631 233.967773,127.003906 C233.059566,127.798181 231.850268,128.195312 230.339844,128.195312 C229.285151,128.195312 228.352543,127.931643 227.541992,127.404297 C226.731441,126.87695 226.10482,126.129888 225.662109,125.163086 C225.219399,124.196284 224.994792,123.091152 224.988281,121.847656 L224.988281,120.001953 C224.988281,118.738926 225.209633,117.619146 225.652344,116.642578 C226.095054,115.666011 226.731441,114.912438 227.561523,114.381836 C228.391606,113.851234 229.347,113.585938 230.427734,113.585938 C231.951179,113.585938 233.153967,113.997717 234.036133,114.821289 C234.918299,115.644861 235.430989,116.782545 235.574219,118.234375 L234.363281,118.234375 C234.063801,115.818998 232.751965,114.611328 230.427734,114.611328 C229.138665,114.611328 228.111657,115.093094 227.34668,116.056641 C226.581702,117.020187 226.199219,118.351554 226.199219,120.050781 L226.199219,121.789062 C226.199219,123.429696 226.571936,124.738276 227.317383,125.714844 C228.062829,126.691411 229.070306,127.179688 230.339844,127.179688 C231.59636,127.179688 232.543617,126.878584 233.181641,126.276367 C233.819665,125.674151 234.213541,124.770839 234.363281,123.566406 L235.574219,123.566406 Z M243.664062,121.535156 L248.009766,113.78125 L249.396484,113.78125 L244.259766,122.648438 L244.259766,128 L243.058594,128 L243.058594,122.648438 L237.931641,113.78125 L239.357422,113.78125 L243.664062,121.535156 Z M268.398438,123.566406 C268.235676,125.06381 267.7002,126.209631 266.791992,127.003906 C265.883785,127.798181 264.674487,128.195312 263.164062,128.195312 C262.10937,128.195312 261.176762,127.931643 260.366211,127.404297 C259.55566,126.87695 258.929039,126.129888 258.486328,125.163086 C258.043618,124.196284 257.81901,123.091152 257.8125,121.847656 L257.8125,120.001953 C257.8125,118.738926 258.033852,117.619146 258.476562,116.642578 C258.919273,115.666011 259.55566,114.912438 260.385742,114.381836 C261.215824,113.851234 262.171219,113.585938 263.251953,113.585938 C264.775398,113.585938 265.978186,113.997717 266.860352,114.821289 C267.742517,115.644861 268.255208,116.782545 268.398438,118.234375 L267.1875,118.234375 C266.888019,115.818998 265.576183,114.611328 263.251953,114.611328 C261.962884,114.611328 260.935876,115.093094 260.170898,116.056641 C259.405921,117.020187 259.023438,118.351554 259.023438,120.050781 L259.023438,121.789062 C259.023438,123.429696 259.396155,124.738276 260.141602,125.714844 C260.887048,126.691411 261.894525,127.179688 263.164062,127.179688 C264.420579,127.179688 265.367835,126.878584 266.005859,126.276367 C266.643883,125.674151 267.03776,124.770839 267.1875,123.566406 L268.398438,123.566406 Z M279.994141,124.015625 L273.539062,124.015625 L272.074219,128 L270.814453,128 L276.195312,113.78125 L277.337891,113.78125 L282.71875,128 L281.46875,128 L279.994141,124.015625 Z M273.910156,122.990234 L279.613281,122.990234 L276.761719,115.246094 L273.910156,122.990234 Z M291.121094,122.082031 L286.990234,122.082031 L286.990234,128 L285.779297,128 L285.779297,113.78125 L290.398438,113.78125 C291.915372,113.78125 293.100256,114.149085 293.953125,114.884766 C294.805994,115.620446 295.232422,116.649082 295.232422,117.970703 C295.232422,118.882166 294.965497,119.686194 294.431641,120.382812 C293.897784,121.079431 293.181645,121.561197 292.283203,121.828125 L295.837891,127.873047 L295.837891,128 L294.558594,128 L291.121094,122.082031 Z M286.990234,121.056641 L290.671875,121.056641 C291.680995,121.056641 292.491533,120.770185 293.103516,120.197266 C293.715498,119.624346 294.021484,118.882166 294.021484,117.970703 C294.021484,116.968094 293.702477,116.190107 293.064453,115.636719 C292.426429,115.083331 291.531256,114.806641 290.378906,114.806641 L286.990234,114.806641 L286.990234,121.056641 Z M307.355469,121.183594 L300.705078,121.183594 L300.705078,126.984375 L308.351562,126.984375 L308.351562,128 L299.503906,128 L299.503906,113.78125 L308.302734,113.78125 L308.302734,114.806641 L300.705078,114.806641 L300.705078,120.167969 L307.355469,120.167969 L307.355469,121.183594 Z" id="ADVANCING-EMERGENCY-" stroke="#FFFFFF" sketch:type="MSShapeGroup"></path>
                <text id="®" sketch:type="MSTextLayer" font-family="Hoefler Text" font-size="14" font-weight="normal">
                    <tspan x="445" y="75">®</tspan>
                </text>
                <path d="M108.782837,50.828125 L97.1636963,50.828125 L94.5269775,58 L92.2593994,58 L101.944946,32.40625 L104.001587,32.40625 L113.687134,58 L111.437134,58 L108.782837,50.828125 Z M97.831665,48.9824219 L108.09729,48.9824219 L102.964478,35.0429688 L97.831665,48.9824219 Z M118.872681,38.9804688 L118.942993,42.0742188 C119.646122,40.9257755 120.525019,40.064456 121.579712,39.4902344 C122.634405,38.9160128 123.806268,38.6289062 125.095337,38.6289062 C128.095352,38.6289062 129.99963,39.8593627 130.808228,42.3203125 C131.487918,41.1367128 132.396112,40.2255891 133.532837,39.5869141 C134.669561,38.948239 135.923455,38.6289062 137.294556,38.6289062 C141.372701,38.6289062 143.452758,40.8554465 143.53479,45.3085938 L143.53479,58 L141.425415,58 L141.425415,45.4667969 C141.413696,43.7675696 141.047489,42.5078166 140.326782,41.6875 C139.606075,40.8671834 138.431283,40.4570312 136.802368,40.4570312 C135.290642,40.4804689 134.013311,40.9697218 132.970337,41.9248047 C131.927363,42.8798876 131.347291,44.0429619 131.230103,45.4140625 L131.230103,58 L129.120728,58 L129.120728,45.3085938 C129.109009,43.6796794 128.725224,42.4638712 127.96936,41.6611328 C127.213497,40.8583944 126.050423,40.4570312 124.480103,40.4570312 C123.155877,40.4570312 122.01917,40.8349572 121.069946,41.5908203 C120.120723,42.3466835 119.417605,43.4687426 118.960571,44.9570312 L118.960571,58 L116.851196,58 L116.851196,38.9804688 L118.872681,38.9804688 Z M156.226196,58.3515625 C154.609001,58.3515625 153.147101,57.953129 151.840454,57.15625 C150.533807,56.359371 149.517216,55.2490306 148.790649,53.8251953 C148.064083,52.4013601 147.700806,50.8046963 147.700806,49.0351562 L147.700806,48.2792969 C147.700806,46.4511627 148.055294,44.8046948 148.764282,43.3398438 C149.47327,41.8749927 150.460565,40.723637 151.726196,39.8857422 C152.991828,39.0478474 154.362908,38.6289062 155.839478,38.6289062 C158.148083,38.6289062 159.979119,39.4169843 161.332642,40.9931641 C162.686164,42.5693438 163.362915,44.7226426 163.362915,47.453125 L163.362915,48.6308594 L149.792603,48.6308594 L149.792603,49.0351562 C149.792603,51.191417 150.41076,52.9872975 151.647095,54.4228516 C152.883429,55.8584056 154.439078,56.5761719 156.314087,56.5761719 C157.439093,56.5761719 158.432247,56.3710958 159.293579,55.9609375 C160.154912,55.5507792 160.93713,54.8945358 161.640259,53.9921875 L162.958618,54.9941406 C161.411735,57.2324331 159.167617,58.3515625 156.226196,58.3515625 L156.226196,58.3515625 Z M155.839478,40.421875 C154.257438,40.421875 152.924444,41.0019473 151.840454,42.1621094 C150.756464,43.3222714 150.097291,44.8808496 149.862915,46.8378906 L161.271118,46.8378906 L161.271118,46.609375 C161.212524,44.7812409 160.691045,43.2929745 159.706665,42.1445312 C158.722285,40.996088 157.433236,40.421875 155.839478,40.421875 L155.839478,40.421875 Z M176.247681,40.7734375 C175.802366,40.6914058 175.327761,40.6503906 174.823853,40.6503906 C173.511346,40.6503906 172.401006,41.0165979 171.492798,41.7490234 C170.58459,42.481449 169.937136,43.5449149 169.550415,44.9394531 L169.550415,58 L167.458618,58 L167.458618,38.9804688 L169.515259,38.9804688 L169.550415,42.0039062 C170.663702,39.753895 172.450793,38.6289062 174.911743,38.6289062 C175.497684,38.6289062 175.96057,38.7050774 176.300415,38.8574219 L176.247681,40.7734375 Z M181.925415,58 L179.81604,58 L179.81604,38.9804688 L181.925415,38.9804688 L181.925415,58 Z M179.446899,33.4785156 C179.446899,33.0800761 179.575804,32.7431654 179.833618,32.4677734 C180.091432,32.1923814 180.442991,32.0546875 180.888306,32.0546875 C181.33362,32.0546875 181.688109,32.1923814 181.951782,32.4677734 C182.215455,32.7431654 182.34729,33.0800761 182.34729,33.4785156 C182.34729,33.8769551 182.215455,34.2109362 181.951782,34.4804688 C181.688109,34.7500013 181.33362,34.8847656 180.888306,34.8847656 C180.442991,34.8847656 180.091432,34.7500013 179.833618,34.4804688 C179.575804,34.2109362 179.446899,33.8769551 179.446899,33.4785156 L179.446899,33.4785156 Z M194.669556,56.5761719 C196.134407,56.5761719 197.361934,56.1630901 198.352173,55.3369141 C199.342412,54.5107381 199.87854,53.4414128 199.960571,52.1289062 L201.982056,52.1289062 C201.923462,53.2890683 201.560184,54.3466749 200.892212,55.3017578 C200.22424,56.2568407 199.336553,57.0039036 198.229126,57.5429688 C197.121699,58.0820339 195.935187,58.3515625 194.669556,58.3515625 C192.173449,58.3515625 190.19593,57.4843837 188.736938,55.75 C187.277947,54.0156163 186.548462,51.6836084 186.548462,48.7539062 L186.548462,48.1210938 C186.548462,46.2460844 186.876584,44.5878978 187.532837,43.1464844 C188.18909,41.7050709 189.12951,40.5918008 190.354126,39.8066406 C191.578741,39.0214804 193.011344,38.6289062 194.651978,38.6289062 C196.737925,38.6289062 198.457635,39.2499938 199.811157,40.4921875 C201.16468,41.7343812 201.888305,43.3691305 201.982056,45.3964844 L199.960571,45.3964844 C199.866821,43.9081957 199.330693,42.7070358 198.352173,41.7929688 C197.373652,40.8789017 196.140266,40.421875 194.651978,40.421875 C192.753531,40.421875 191.279912,41.107415 190.231079,42.4785156 C189.182246,43.8496162 188.657837,45.771472 188.657837,48.2441406 L188.657837,48.859375 C188.657837,51.2851684 189.182246,53.1777276 190.231079,54.5371094 C191.279912,55.8964912 192.75939,56.5761719 194.669556,56.5761719 L194.669556,56.5761719 Z M218.189087,58 C217.978148,57.4023408 217.843384,56.517584 217.78479,55.3457031 C217.046505,56.3066454 216.106085,57.047849 214.963501,57.5693359 C213.820917,58.0908229 212.610968,58.3515625 211.333618,58.3515625 C209.505484,58.3515625 208.026007,57.841802 206.895142,56.8222656 C205.764277,55.8027293 205.198853,54.5136797 205.198853,52.9550781 C205.198853,51.1035064 205.969353,49.6386773 207.510376,48.5605469 C209.051399,47.4824165 211.198839,46.9433594 213.952759,46.9433594 L217.767212,46.9433594 L217.767212,44.78125 C217.767212,43.4218682 217.348271,42.352543 216.510376,41.5732422 C215.672481,40.7939414 214.450814,40.4042969 212.845337,40.4042969 C211.380486,40.4042969 210.167607,40.7792931 209.206665,41.5292969 C208.245723,42.2793006 207.765259,43.1816354 207.765259,44.2363281 L205.655884,44.21875 C205.655884,42.7070237 206.359002,41.3974665 207.765259,40.2900391 C209.171516,39.1826117 210.900014,38.6289062 212.950806,38.6289062 C215.07191,38.6289062 216.744745,39.1591744 217.96936,40.2197266 C219.193976,41.2802787 219.823852,42.7597561 219.859009,44.6582031 L219.859009,53.6582031 C219.859009,55.4980561 220.052366,56.8749954 220.439087,57.7890625 L220.439087,58 L218.189087,58 Z M211.579712,56.4882812 C212.985969,56.4882812 214.242792,56.1484409 215.35022,55.46875 C216.457647,54.7890591 217.263303,53.8808651 217.767212,52.7441406 L217.767212,48.5605469 L214.005493,48.5605469 C211.907826,48.5839845 210.267218,48.9677697 209.083618,49.7119141 C207.900018,50.4560584 207.308228,51.4785091 207.308228,52.7792969 C207.308228,53.8457085 207.703731,54.7304652 208.494751,55.4335938 C209.285771,56.1367223 210.314081,56.4882812 211.579712,56.4882812 L211.579712,56.4882812 Z M227.470337,38.9804688 L227.540649,42.2324219 C228.255497,41.060541 229.146113,40.1669953 230.212524,39.5517578 C231.278936,38.9365204 232.456659,38.6289062 233.745728,38.6289062 C235.7848,38.6289062 237.302363,39.2031193 238.298462,40.3515625 C239.294561,41.5000057 239.798462,43.2226448 239.810181,45.5195312 L239.810181,58 L237.718384,58 L237.718384,45.5019531 C237.706665,43.8027259 237.346317,42.5371135 236.637329,41.7050781 C235.928341,40.8730427 234.794563,40.4570312 233.235962,40.4570312 C231.935174,40.4570312 230.783818,40.8642537 229.78186,41.6787109 C228.779902,42.4931681 228.038699,43.59179 227.558228,44.9746094 L227.558228,58 L225.466431,58 L225.466431,38.9804688 L227.470337,38.9804688 Z M272.610962,50.0195312 C272.317992,52.7148572 271.354134,54.7773366 269.71936,56.2070312 C268.084587,57.6367259 265.907851,58.3515625 263.189087,58.3515625 C261.29064,58.3515625 259.611946,57.8769579 258.152954,56.9277344 C256.693962,55.9785109 255.566044,54.6337978 254.769165,52.8935547 C253.972286,51.1533116 253.567993,49.1640737 253.556274,46.9257812 L253.556274,43.6035156 C253.556274,41.3300668 253.954708,39.3144619 254.751587,37.5566406 C255.548466,35.7988193 256.693962,34.4423876 258.18811,33.4873047 C259.682258,32.5322218 261.401968,32.0546875 263.34729,32.0546875 C266.089491,32.0546875 268.254509,32.795891 269.842407,34.2783203 C271.430306,35.7607496 272.353148,37.8085807 272.610962,40.421875 L270.431274,40.421875 C269.892209,36.074197 267.530905,33.9003906 263.34729,33.9003906 C261.026966,33.9003906 259.178352,34.7675695 257.801392,36.5019531 C256.424432,38.2363368 255.735962,40.6327972 255.735962,43.6914062 L255.735962,46.8203125 C255.735962,49.7734523 256.406854,52.1288975 257.748657,53.8867188 C259.090461,55.64454 260.903919,56.5234375 263.189087,56.5234375 C265.450817,56.5234375 267.155878,55.9814507 268.304321,54.8974609 C269.452765,53.8134711 270.161742,52.1875108 270.431274,50.0195312 L272.610962,50.0195312 Z M276.214478,48.2089844 C276.214478,46.3808502 276.568966,44.7343823 277.277954,43.2695312 C277.986942,41.8046802 278.988885,40.6650431 280.283813,39.8505859 C281.578742,39.0361287 283.046501,38.6289062 284.687134,38.6289062 C287.218396,38.6289062 289.269157,39.5165927 290.839478,41.2919922 C292.409798,43.0673917 293.194946,45.4199072 293.194946,48.3496094 L293.194946,48.7890625 C293.194946,50.6289154 292.840458,52.2841723 292.13147,53.7548828 C291.422482,55.2255933 290.423468,56.359371 289.134399,57.15625 C287.84533,57.953129 286.374642,58.3515625 284.72229,58.3515625 C282.202746,58.3515625 280.154915,57.4638761 278.578735,55.6884766 C277.002556,53.9130771 276.214478,51.5605615 276.214478,48.6308594 L276.214478,48.2089844 Z M278.323853,48.7890625 C278.323853,51.0625114 278.912714,52.9287036 280.090454,54.3876953 C281.268194,55.846687 282.812124,56.5761719 284.72229,56.5761719 C286.620737,56.5761719 288.158808,55.846687 289.336548,54.3876953 C290.514288,52.9287036 291.103149,51.0039182 291.103149,48.6132812 L291.103149,48.2089844 C291.103149,46.7558521 290.833621,45.4257873 290.294556,44.21875 C289.75549,43.0117127 288.999639,42.0771517 288.026978,41.4150391 C287.054316,40.7529264 285.941046,40.421875 284.687134,40.421875 C282.812124,40.421875 281.282843,41.1572192 280.099243,42.6279297 C278.915643,44.0986402 278.323853,46.0234256 278.323853,48.4023438 L278.323853,48.7890625 Z M299.892212,58 L297.782837,58 L297.782837,31 L299.892212,31 L299.892212,58 Z M307.960571,58 L305.851196,58 L305.851196,31 L307.960571,31 L307.960571,58 Z M321.038696,58.3515625 C319.421501,58.3515625 317.959601,57.953129 316.652954,57.15625 C315.346307,56.359371 314.329716,55.2490306 313.603149,53.8251953 C312.876583,52.4013601 312.513306,50.8046963 312.513306,49.0351562 L312.513306,48.2792969 C312.513306,46.4511627 312.867794,44.8046948 313.576782,43.3398438 C314.28577,41.8749927 315.273065,40.723637 316.538696,39.8857422 C317.804328,39.0478474 319.175408,38.6289062 320.651978,38.6289062 C322.960583,38.6289062 324.791619,39.4169843 326.145142,40.9931641 C327.498664,42.5693438 328.175415,44.7226426 328.175415,47.453125 L328.175415,48.6308594 L314.605103,48.6308594 L314.605103,49.0351562 C314.605103,51.191417 315.22326,52.9872975 316.459595,54.4228516 C317.695929,55.8584056 319.251578,56.5761719 321.126587,56.5761719 C322.251593,56.5761719 323.244747,56.3710958 324.106079,55.9609375 C324.967412,55.5507792 325.74963,54.8945358 326.452759,53.9921875 L327.771118,54.9941406 C326.224235,57.2324331 323.980117,58.3515625 321.038696,58.3515625 L321.038696,58.3515625 Z M320.651978,40.421875 C319.069938,40.421875 317.736944,41.0019473 316.652954,42.1621094 C315.568964,43.3222714 314.909791,44.8808496 314.675415,46.8378906 L326.083618,46.8378906 L326.083618,46.609375 C326.025024,44.7812409 325.503545,43.2929745 324.519165,42.1445312 C323.534785,40.996088 322.245736,40.421875 320.651978,40.421875 L320.651978,40.421875 Z M331.427368,48.3144531 C331.427368,45.3378757 332.086541,42.9795009 333.404907,41.2392578 C334.723273,39.4990147 336.513294,38.6289062 338.775024,38.6289062 C341.364881,38.6289062 343.333611,39.6601459 344.681274,41.7226562 L344.786743,38.9804688 L346.755493,38.9804688 L346.755493,57.6132812 C346.755493,60.0625122 346.069953,62.001946 344.698853,63.4316406 C343.327752,64.8613353 341.470349,65.5761719 339.126587,65.5761719 C337.802362,65.5761719 336.539679,65.2802764 335.338501,64.6884766 C334.137323,64.0966767 333.191043,63.3085987 332.499634,62.3242188 L333.677368,61.0585938 C335.165657,62.8867279 336.93517,63.8007812 338.985962,63.8007812 C340.743783,63.8007812 342.114863,63.2822317 343.099243,62.2451172 C344.083623,61.2080026 344.593384,59.7695404 344.62854,57.9296875 L344.62854,55.5390625 C343.280877,57.4140719 341.318006,58.3515625 338.739868,58.3515625 C336.536732,58.3515625 334.767219,57.472665 333.431274,55.7148438 C332.09533,53.9570225 331.427368,51.5839993 331.427368,48.5957031 L331.427368,48.3144531 Z M333.554321,48.6835938 C333.554321,51.1093871 334.040645,53.0224539 335.013306,54.4228516 C335.985967,55.8232492 337.357047,56.5234375 339.126587,56.5234375 C341.716444,56.5234375 343.55041,55.3632929 344.62854,53.0429688 L344.62854,44.2011719 C344.13635,42.9824158 343.427373,42.0537141 342.501587,41.4150391 C341.575801,40.776364 340.462531,40.4570312 339.161743,40.4570312 C337.392203,40.4570312 336.015264,41.1513602 335.030884,42.5400391 C334.046504,43.9287179 333.554321,45.976549 333.554321,48.6835938 L333.554321,48.6835938 Z M359.605103,58.3515625 C357.987907,58.3515625 356.526008,57.953129 355.21936,57.15625 C353.912713,56.359371 352.896122,55.2490306 352.169556,53.8251953 C351.44299,52.4013601 351.079712,50.8046963 351.079712,49.0351562 L351.079712,48.2792969 C351.079712,46.4511627 351.434201,44.8046948 352.143188,43.3398438 C352.852176,41.8749927 353.839471,40.723637 355.105103,39.8857422 C356.370734,39.0478474 357.741814,38.6289062 359.218384,38.6289062 C361.526989,38.6289062 363.358025,39.4169843 364.711548,40.9931641 C366.06507,42.5693438 366.741821,44.7226426 366.741821,47.453125 L366.741821,48.6308594 L353.171509,48.6308594 L353.171509,49.0351562 C353.171509,51.191417 353.789667,52.9872975 355.026001,54.4228516 C356.262335,55.8584056 357.817984,56.5761719 359.692993,56.5761719 C360.817999,56.5761719 361.811153,56.3710958 362.672485,55.9609375 C363.533818,55.5507792 364.316037,54.8945358 365.019165,53.9921875 L366.337524,54.9941406 C364.790642,57.2324331 362.546523,58.3515625 359.605103,58.3515625 L359.605103,58.3515625 Z M359.218384,40.421875 C357.636345,40.421875 356.30335,41.0019473 355.21936,42.1621094 C354.135371,43.3222714 353.476197,44.8808496 353.241821,46.8378906 L364.650024,46.8378906 L364.650024,46.609375 C364.59143,44.7812409 364.069951,43.2929745 363.085571,42.1445312 C362.101191,40.996088 360.812142,40.421875 359.218384,40.421875 L359.218384,40.421875 Z M378.431274,48.2089844 C378.431274,46.3808502 378.785763,44.7343823 379.494751,43.2695312 C380.203739,41.8046802 381.205682,40.6650431 382.50061,39.8505859 C383.795539,39.0361287 385.263297,38.6289062 386.903931,38.6289062 C389.435193,38.6289062 391.485954,39.5165927 393.056274,41.2919922 C394.626595,43.0673917 395.411743,45.4199072 395.411743,48.3496094 L395.411743,48.7890625 C395.411743,50.6289154 395.057255,52.2841723 394.348267,53.7548828 C393.639279,55.2255933 392.640265,56.359371 391.351196,57.15625 C390.062127,57.953129 388.591439,58.3515625 386.939087,58.3515625 C384.419543,58.3515625 382.371712,57.4638761 380.795532,55.6884766 C379.219352,53.9130771 378.431274,51.5605615 378.431274,48.6308594 L378.431274,48.2089844 Z M380.540649,48.7890625 C380.540649,51.0625114 381.129511,52.9287036 382.307251,54.3876953 C383.484991,55.846687 385.028921,56.5761719 386.939087,56.5761719 C388.837534,56.5761719 390.375604,55.846687 391.553345,54.3876953 C392.731085,52.9287036 393.319946,51.0039182 393.319946,48.6132812 L393.319946,48.2089844 C393.319946,46.7558521 393.050418,45.4257873 392.511353,44.21875 C391.972287,43.0117127 391.216436,42.0771517 390.243774,41.4150391 C389.271113,40.7529264 388.157843,40.421875 386.903931,40.421875 C385.028921,40.421875 383.49964,41.1572192 382.31604,42.6279297 C381.13244,44.0986402 380.540649,46.0234256 380.540649,48.4023438 L380.540649,48.7890625 Z M401.265259,58 L401.265259,40.703125 L398.118774,40.703125 L398.118774,38.9804688 L401.265259,38.9804688 L401.265259,36.6777344 C401.265259,34.7324121 401.760371,33.2382865 402.75061,32.1953125 C403.74085,31.1523385 405.120719,30.6308594 406.890259,30.6308594 C407.687138,30.6308594 408.431271,30.7304678 409.122681,30.9296875 L408.964478,32.6875 C408.378537,32.5468743 407.739872,32.4765625 407.048462,32.4765625 C405.8883,32.4765625 404.985965,32.8369105 404.341431,33.5576172 C403.696896,34.2783239 403.374634,35.3007746 403.374634,36.625 L403.374634,38.9804688 L407.90979,38.9804688 L407.90979,40.703125 L403.374634,40.703125 L403.374634,58 L401.265259,58 Z" id="American-College-of" sketch:type="MSShapeGroup"></path>
                <path d="M107.099243,82.7304688 L95.12854,82.7304688 L95.12854,93.171875 L108.892212,93.171875 L108.892212,95 L92.9664307,95 L92.9664307,69.40625 L108.804321,69.40625 L108.804321,71.2519531 L95.12854,71.2519531 L95.12854,80.9023438 L107.099243,80.9023438 L107.099243,82.7304688 Z M114.868774,75.9804688 L114.939087,79.0742188 C115.642215,77.9257755 116.521113,77.064456 117.575806,76.4902344 C118.630498,75.9160128 119.802362,75.6289062 121.091431,75.6289062 C124.091446,75.6289062 125.995723,76.8593627 126.804321,79.3203125 C127.484012,78.1367128 128.392206,77.2255891 129.528931,76.5869141 C130.665655,75.948239 131.919549,75.6289062 133.290649,75.6289062 C137.368795,75.6289062 139.448852,77.8554465 139.530884,82.3085938 L139.530884,95 L137.421509,95 L137.421509,82.4667969 C137.40979,80.7675696 137.043583,79.5078166 136.322876,78.6875 C135.602169,77.8671834 134.427376,77.4570312 132.798462,77.4570312 C131.286736,77.4804689 130.009405,77.9697218 128.966431,78.9248047 C127.923457,79.8798876 127.343384,81.0429619 127.226196,82.4140625 L127.226196,95 L125.116821,95 L125.116821,82.3085938 C125.105102,80.6796794 124.721317,79.4638712 123.965454,78.6611328 C123.209591,77.8583944 122.046517,77.4570312 120.476196,77.4570312 C119.151971,77.4570312 118.015264,77.8349572 117.06604,78.5908203 C116.116817,79.3466835 115.413699,80.4687426 114.956665,81.9570312 L114.956665,95 L112.84729,95 L112.84729,75.9804688 L114.868774,75.9804688 Z M152.22229,95.3515625 C150.605094,95.3515625 149.143195,94.953129 147.836548,94.15625 C146.529901,93.359371 145.513309,92.2490306 144.786743,90.8251953 C144.060177,89.4013601 143.696899,87.8046963 143.696899,86.0351562 L143.696899,85.2792969 C143.696899,83.4511627 144.051388,81.8046948 144.760376,80.3398438 C145.469364,78.8749927 146.456659,77.723637 147.72229,76.8857422 C148.987921,76.0478474 150.359001,75.6289062 151.835571,75.6289062 C154.144177,75.6289062 155.975213,76.4169843 157.328735,77.9931641 C158.682258,79.5693438 159.359009,81.7226426 159.359009,84.453125 L159.359009,85.6308594 L145.788696,85.6308594 L145.788696,86.0351562 C145.788696,88.191417 146.406854,89.9872975 147.643188,91.4228516 C148.879523,92.8584056 150.435171,93.5761719 152.310181,93.5761719 C153.435186,93.5761719 154.42834,93.3710958 155.289673,92.9609375 C156.151005,92.5507792 156.933224,91.8945358 157.636353,90.9921875 L158.954712,91.9941406 C157.407829,94.2324331 155.163711,95.3515625 152.22229,95.3515625 L152.22229,95.3515625 Z M151.835571,77.421875 C150.253532,77.421875 148.920538,78.0019473 147.836548,79.1621094 C146.752558,80.3222714 146.093385,81.8808496 145.859009,83.8378906 L157.267212,83.8378906 L157.267212,83.609375 C157.208618,81.7812409 156.687139,80.2929745 155.702759,79.1445312 C154.718379,77.996088 153.429329,77.421875 151.835571,77.421875 L151.835571,77.421875 Z M172.243774,77.7734375 C171.79846,77.6914058 171.323855,77.6503906 170.819946,77.6503906 C169.50744,77.6503906 168.397099,78.0165979 167.488892,78.7490234 C166.580684,79.481449 165.933229,80.5449149 165.546509,81.9394531 L165.546509,95 L163.454712,95 L163.454712,75.9804688 L165.511353,75.9804688 L165.546509,79.0039062 C166.659796,76.753895 168.446887,75.6289062 170.907837,75.6289062 C171.493777,75.6289062 171.956663,75.7050774 172.296509,75.8574219 L172.243774,77.7734375 Z M174.388306,85.3144531 C174.388306,82.3378757 175.047479,79.9795009 176.365845,78.2392578 C177.684211,76.4990147 179.474232,75.6289062 181.735962,75.6289062 C184.325819,75.6289062 186.294549,76.6601459 187.642212,78.7226562 L187.747681,75.9804688 L189.716431,75.9804688 L189.716431,94.6132812 C189.716431,97.0625122 189.030891,99.001946 187.65979,100.431641 C186.288689,101.861335 184.431286,102.576172 182.087524,102.576172 C180.763299,102.576172 179.500616,102.280276 178.299438,101.688477 C177.098261,101.096677 176.151981,100.308599 175.460571,99.3242188 L176.638306,98.0585938 C178.126594,99.8867279 179.896108,100.800781 181.946899,100.800781 C183.704721,100.800781 185.075801,100.282232 186.060181,99.2451172 C187.044561,98.2080026 187.554321,96.7695404 187.589478,94.9296875 L187.589478,92.5390625 C186.241815,94.4140719 184.278944,95.3515625 181.700806,95.3515625 C179.49767,95.3515625 177.728156,94.472665 176.392212,92.7148438 C175.056268,90.9570225 174.388306,88.5839993 174.388306,85.5957031 L174.388306,85.3144531 Z M176.515259,85.6835938 C176.515259,88.1093871 177.001582,90.0224539 177.974243,91.4228516 C178.946904,92.8232492 180.317984,93.5234375 182.087524,93.5234375 C184.677381,93.5234375 186.511347,92.3632929 187.589478,90.0429688 L187.589478,81.2011719 C187.097288,79.9824158 186.38831,79.0537141 185.462524,78.4150391 C184.536739,77.776364 183.423468,77.4570312 182.122681,77.4570312 C180.353141,77.4570312 178.976201,78.1513602 177.991821,79.5400391 C177.007441,80.9287179 176.515259,82.976549 176.515259,85.6835938 L176.515259,85.6835938 Z M202.56604,95.3515625 C200.948844,95.3515625 199.486945,94.953129 198.180298,94.15625 C196.873651,93.359371 195.857059,92.2490306 195.130493,90.8251953 C194.403927,89.4013601 194.040649,87.8046963 194.040649,86.0351562 L194.040649,85.2792969 C194.040649,83.4511627 194.395138,81.8046948 195.104126,80.3398438 C195.813114,78.8749927 196.800409,77.723637 198.06604,76.8857422 C199.331671,76.0478474 200.702751,75.6289062 202.179321,75.6289062 C204.487927,75.6289062 206.318963,76.4169843 207.672485,77.9931641 C209.026008,79.5693438 209.702759,81.7226426 209.702759,84.453125 L209.702759,85.6308594 L196.132446,85.6308594 L196.132446,86.0351562 C196.132446,88.191417 196.750604,89.9872975 197.986938,91.4228516 C199.223273,92.8584056 200.778921,93.5761719 202.653931,93.5761719 C203.778936,93.5761719 204.77209,93.3710958 205.633423,92.9609375 C206.494755,92.5507792 207.276974,91.8945358 207.980103,90.9921875 L209.298462,91.9941406 C207.751579,94.2324331 205.507461,95.3515625 202.56604,95.3515625 L202.56604,95.3515625 Z M202.179321,77.421875 C200.597282,77.421875 199.264288,78.0019473 198.180298,79.1621094 C197.096308,80.3222714 196.437135,81.8808496 196.202759,83.8378906 L207.610962,83.8378906 L207.610962,83.609375 C207.552368,81.7812409 207.030889,80.2929745 206.046509,79.1445312 C205.062129,77.996088 203.773079,77.421875 202.179321,77.421875 L202.179321,77.421875 Z M215.802368,75.9804688 L215.872681,79.2324219 C216.587528,78.060541 217.478144,77.1669953 218.544556,76.5517578 C219.610967,75.9365204 220.78869,75.6289062 222.077759,75.6289062 C224.116831,75.6289062 225.634394,76.2031193 226.630493,77.3515625 C227.626592,78.5000057 228.130493,80.2226448 228.142212,82.5195312 L228.142212,95 L226.050415,95 L226.050415,82.5019531 C226.038696,80.8027259 225.678348,79.5371135 224.96936,78.7050781 C224.260372,77.8730427 223.126595,77.4570312 221.567993,77.4570312 C220.267205,77.4570312 219.11585,77.8642537 218.113892,78.6787109 C217.111933,79.4931681 216.37073,80.59179 215.890259,81.9746094 L215.890259,95 L213.798462,95 L213.798462,75.9804688 L215.802368,75.9804688 Z M240.605103,93.5761719 C242.069954,93.5761719 243.29748,93.1630901 244.28772,92.3369141 C245.277959,91.5107381 245.814087,90.4414128 245.896118,89.1289062 L247.917603,89.1289062 C247.859008,90.2890683 247.495731,91.3466749 246.827759,92.3017578 C246.159787,93.2568407 245.2721,94.0039036 244.164673,94.5429688 C243.057245,95.0820339 241.870734,95.3515625 240.605103,95.3515625 C238.108996,95.3515625 236.131477,94.4843837 234.672485,92.75 C233.213494,91.0156163 232.484009,88.6836084 232.484009,85.7539062 L232.484009,85.1210938 C232.484009,83.2460844 232.812131,81.5878978 233.468384,80.1464844 C234.124637,78.7050709 235.065057,77.5918008 236.289673,76.8066406 C237.514288,76.0214804 238.946891,75.6289062 240.587524,75.6289062 C242.673472,75.6289062 244.393182,76.2499938 245.746704,77.4921875 C247.100226,78.7343812 247.823852,80.3691305 247.917603,82.3964844 L245.896118,82.3964844 C245.802368,80.9081957 245.26624,79.7070358 244.28772,78.7929688 C243.309199,77.8789017 242.075813,77.421875 240.587524,77.421875 C238.689077,77.421875 237.215459,78.107415 236.166626,79.4785156 C235.117793,80.8496162 234.593384,82.771472 234.593384,85.2441406 L234.593384,85.859375 C234.593384,88.2851684 235.117793,90.1777276 236.166626,91.5371094 C237.215459,92.8964912 238.694937,93.5761719 240.605103,93.5761719 L240.605103,93.5761719 Z M258.148071,91.9765625 L263.702759,75.9804688 L265.970337,75.9804688 L257.849243,98.234375 L257.427368,99.21875 C256.384394,101.527355 254.773082,102.681641 252.593384,102.681641 C252.089475,102.681641 251.550418,102.59961 250.976196,102.435547 L250.958618,100.695312 L252.048462,100.800781 C253.079717,100.800781 253.91467,100.545901 254.553345,100.036133 C255.19202,99.5263646 255.734007,98.6503968 256.179321,97.4082031 L257.110962,94.8417969 L249.939087,75.9804688 L252.241821,75.9804688 L258.148071,91.9765625 Z M280.630493,84.5761719 L280.630493,95 L278.468384,95 L278.468384,69.40625 L287.187134,69.40625 C289.847303,69.40625 291.947868,70.0859307 293.488892,71.4453125 C295.029915,72.8046943 295.800415,74.6738162 295.800415,77.0527344 C295.800415,79.4550901 295.059212,81.3095638 293.576782,82.6162109 C292.094353,83.9228581 289.946913,84.5761719 287.134399,84.5761719 L280.630493,84.5761719 Z M280.630493,82.7480469 L287.187134,82.7480469 C289.284801,82.7480469 290.884394,82.250005 291.985962,81.2539062 C293.08753,80.2578075 293.638306,78.8691495 293.638306,77.0878906 C293.638306,75.3183505 293.09046,73.9091849 291.994751,72.8603516 C290.899042,71.8115182 289.343394,71.2753907 287.327759,71.2519531 L280.630493,71.2519531 L280.630493,82.7480469 Z M302.234009,79.1972656 C302.925418,78.0605412 303.810175,77.1816437 304.888306,76.5605469 C305.966436,75.93945 307.144159,75.6289062 308.421509,75.6289062 C310.460581,75.6289062 311.978144,76.2031193 312.974243,77.3515625 C313.970342,78.5000057 314.474243,80.2226448 314.485962,82.5195312 L314.485962,95 L312.394165,95 L312.394165,82.5019531 C312.382446,80.8027259 312.022098,79.5371135 311.31311,78.7050781 C310.604122,77.8730427 309.470345,77.4570312 307.911743,77.4570312 C306.610955,77.4570312 305.4596,77.8642537 304.457642,78.6787109 C303.455683,79.4931681 302.71448,80.59179 302.234009,81.9746094 L302.234009,95 L300.142212,95 L300.142212,68 L302.234009,68 L302.234009,79.1972656 Z M325.929321,91.9765625 L331.484009,75.9804688 L333.751587,75.9804688 L325.630493,98.234375 L325.208618,99.21875 C324.165644,101.527355 322.554332,102.681641 320.374634,102.681641 C319.870725,102.681641 319.331668,102.59961 318.757446,102.435547 L318.739868,100.695312 L319.829712,100.800781 C320.860967,100.800781 321.69592,100.545901 322.334595,100.036133 C322.97327,99.5263646 323.515257,98.6503968 323.960571,97.4082031 L324.892212,94.8417969 L317.720337,75.9804688 L320.023071,75.9804688 L325.929321,91.9765625 Z M348.394165,90.1660156 C348.394165,89.1230417 347.975224,88.2851594 347.137329,87.6523438 C346.299434,87.0195281 345.036752,86.5244158 343.349243,86.1669922 C341.661735,85.8095685 340.352178,85.3994164 339.420532,84.9365234 C338.488887,84.4736305 337.797488,83.9082065 337.346313,83.2402344 C336.895139,82.5722623 336.669556,81.7636766 336.669556,80.8144531 C336.669556,79.3144456 337.296503,78.0752002 338.550415,77.0966797 C339.804328,76.1181592 341.40978,75.6289062 343.366821,75.6289062 C345.487926,75.6289062 347.190057,76.1533151 348.473267,77.2021484 C349.756476,78.2509818 350.398071,79.6191322 350.398071,81.3066406 L348.288696,81.3066406 C348.288696,80.1933538 347.822881,79.2675818 346.891235,78.5292969 C345.95959,77.7910119 344.784797,77.421875 343.366821,77.421875 C341.984002,77.421875 340.873661,77.7294891 340.035767,78.3447266 C339.197872,78.959964 338.778931,79.7597607 338.778931,80.7441406 C338.778931,81.6933641 339.12756,82.4287083 339.824829,82.9501953 C340.522098,83.4716823 341.79357,83.9492166 343.639282,84.3828125 C345.484995,84.8164084 346.867793,85.2792944 347.78772,85.7714844 C348.707646,86.2636743 349.390257,86.8554653 349.835571,87.546875 C350.280886,88.2382847 350.50354,89.076167 350.50354,90.0605469 C350.50354,91.6660237 349.856086,92.9492139 348.561157,93.9101562 C347.266229,94.8710986 345.575816,95.3515625 343.489868,95.3515625 C341.275013,95.3515625 339.479133,94.815435 338.102173,93.7431641 C336.725213,92.6708931 336.036743,91.3144613 336.036743,89.6738281 L338.146118,89.6738281 C338.22815,90.904303 338.746699,91.8623013 339.701782,92.5478516 C340.656865,93.2334019 341.919548,93.5761719 343.489868,93.5761719 C344.954719,93.5761719 346.138301,93.2539095 347.040649,92.609375 C347.942998,91.9648405 348.394165,91.1503955 348.394165,90.1660156 L348.394165,90.1660156 Z M357.587524,95 L355.478149,95 L355.478149,75.9804688 L357.587524,75.9804688 L357.587524,95 Z M355.109009,70.4785156 C355.109009,70.0800761 355.237914,69.7431654 355.495728,69.4677734 C355.753541,69.1923814 356.1051,69.0546875 356.550415,69.0546875 C356.99573,69.0546875 357.350218,69.1923814 357.613892,69.4677734 C357.877565,69.7431654 358.009399,70.0800761 358.009399,70.4785156 C358.009399,70.8769551 357.877565,71.2109362 357.613892,71.4804688 C357.350218,71.7500013 356.99573,71.8847656 356.550415,71.8847656 C356.1051,71.8847656 355.753541,71.7500013 355.495728,71.4804688 C355.237914,71.2109362 355.109009,70.8769551 355.109009,70.4785156 L355.109009,70.4785156 Z M370.331665,93.5761719 C371.796516,93.5761719 373.024043,93.1630901 374.014282,92.3369141 C375.004522,91.5107381 375.540649,90.4414128 375.622681,89.1289062 L377.644165,89.1289062 C377.585571,90.2890683 377.222293,91.3466749 376.554321,92.3017578 C375.886349,93.2568407 374.998663,94.0039036 373.891235,94.5429688 C372.783808,95.0820339 371.597296,95.3515625 370.331665,95.3515625 C367.835559,95.3515625 365.85804,94.4843837 364.399048,92.75 C362.940056,91.0156163 362.210571,88.6836084 362.210571,85.7539062 L362.210571,85.1210938 C362.210571,83.2460844 362.538693,81.5878978 363.194946,80.1464844 C363.8512,78.7050709 364.79162,77.5918008 366.016235,76.8066406 C367.240851,76.0214804 368.673454,75.6289062 370.314087,75.6289062 C372.400035,75.6289062 374.119744,76.2499938 375.473267,77.4921875 C376.826789,78.7343812 377.550415,80.3691305 377.644165,82.3964844 L375.622681,82.3964844 C375.52893,80.9081957 374.992803,79.7070358 374.014282,78.7929688 C373.035762,77.8789017 371.802376,77.421875 370.314087,77.421875 C368.41564,77.421875 366.942022,78.107415 365.893188,79.4785156 C364.844355,80.8496162 364.319946,82.771472 364.319946,85.2441406 L364.319946,85.859375 C364.319946,88.2851684 364.844355,90.1777276 365.893188,91.5371094 C366.942022,92.8964912 368.421499,93.5761719 370.331665,93.5761719 L370.331665,93.5761719 Z M384.200806,95 L382.091431,95 L382.091431,75.9804688 L384.200806,75.9804688 L384.200806,95 Z M381.72229,70.4785156 C381.72229,70.0800761 381.851195,69.7431654 382.109009,69.4677734 C382.366823,69.1923814 382.718382,69.0546875 383.163696,69.0546875 C383.609011,69.0546875 383.9635,69.1923814 384.227173,69.4677734 C384.490846,69.7431654 384.622681,70.0800761 384.622681,70.4785156 C384.622681,70.8769551 384.490846,71.2109362 384.227173,71.4804688 C383.9635,71.7500013 383.609011,71.8847656 383.163696,71.8847656 C382.718382,71.8847656 382.366823,71.7500013 382.109009,71.4804688 C381.851195,71.2109362 381.72229,70.8769551 381.72229,70.4785156 L381.72229,70.4785156 Z M401.919556,95 C401.708617,94.4023408 401.573853,93.517584 401.515259,92.3457031 C400.776974,93.3066454 399.836554,94.047849 398.69397,94.5693359 C397.551386,95.0908229 396.341437,95.3515625 395.064087,95.3515625 C393.235953,95.3515625 391.756475,94.841802 390.62561,93.8222656 C389.494745,92.8027293 388.929321,91.5136797 388.929321,89.9550781 C388.929321,88.1035064 389.699821,86.6386773 391.240845,85.5605469 C392.781868,84.4824165 394.929308,83.9433594 397.683228,83.9433594 L401.497681,83.9433594 L401.497681,81.78125 C401.497681,80.4218682 401.07874,79.352543 400.240845,78.5732422 C399.40295,77.7939414 398.181282,77.4042969 396.575806,77.4042969 C395.110955,77.4042969 393.898076,77.7792931 392.937134,78.5292969 C391.976191,79.2793006 391.495728,80.1816354 391.495728,81.2363281 L389.386353,81.21875 C389.386353,79.7070237 390.089471,78.3974665 391.495728,77.2900391 C392.901985,76.1826117 394.630483,75.6289062 396.681274,75.6289062 C398.802379,75.6289062 400.475214,76.1591744 401.699829,77.2197266 C402.924445,78.2802787 403.554321,79.7597561 403.589478,81.6582031 L403.589478,90.6582031 C403.589478,92.4980561 403.782835,93.8749954 404.169556,94.7890625 L404.169556,95 L401.919556,95 Z M395.310181,93.4882812 C396.716438,93.4882812 397.973261,93.1484409 399.080688,92.46875 C400.188116,91.7890591 400.993772,90.8808651 401.497681,89.7441406 L401.497681,85.5605469 L397.735962,85.5605469 C395.638295,85.5839845 393.997687,85.9677697 392.814087,86.7119141 C391.630487,87.4560584 391.038696,88.4785091 391.038696,89.7792969 C391.038696,90.8457085 391.4342,91.7304652 392.22522,92.4335938 C393.016239,93.1367223 394.044549,93.4882812 395.310181,93.4882812 L395.310181,93.4882812 Z M411.200806,75.9804688 L411.271118,79.2324219 C411.985965,78.060541 412.876582,77.1669953 413.942993,76.5517578 C415.009405,75.9365204 416.187127,75.6289062 417.476196,75.6289062 C419.515269,75.6289062 421.032832,76.2031193 422.028931,77.3515625 C423.025029,78.5000057 423.528931,80.2226448 423.540649,82.5195312 L423.540649,95 L421.448853,95 L421.448853,82.5019531 C421.437134,80.8027259 421.076786,79.5371135 420.367798,78.7050781 C419.65881,77.8730427 418.525032,77.4570312 416.966431,77.4570312 C415.665643,77.4570312 414.514287,77.8642537 413.512329,78.6787109 C412.510371,79.4931681 411.769167,80.59179 411.288696,81.9746094 L411.288696,95 L409.196899,95 L409.196899,75.9804688 L411.200806,75.9804688 Z M440.362915,90.1660156 C440.362915,89.1230417 439.943974,88.2851594 439.106079,87.6523438 C438.268184,87.0195281 437.005502,86.5244158 435.317993,86.1669922 C433.630485,85.8095685 432.320928,85.3994164 431.389282,84.9365234 C430.457637,84.4736305 429.766238,83.9082065 429.315063,83.2402344 C428.863889,82.5722623 428.638306,81.7636766 428.638306,80.8144531 C428.638306,79.3144456 429.265253,78.0752002 430.519165,77.0966797 C431.773078,76.1181592 433.37853,75.6289062 435.335571,75.6289062 C437.456676,75.6289062 439.158807,76.1533151 440.442017,77.2021484 C441.725226,78.2509818 442.366821,79.6191322 442.366821,81.3066406 L440.257446,81.3066406 C440.257446,80.1933538 439.791631,79.2675818 438.859985,78.5292969 C437.92834,77.7910119 436.753547,77.421875 435.335571,77.421875 C433.952752,77.421875 432.842411,77.7294891 432.004517,78.3447266 C431.166622,78.959964 430.747681,79.7597607 430.747681,80.7441406 C430.747681,81.6933641 431.09631,82.4287083 431.793579,82.9501953 C432.490848,83.4716823 433.76232,83.9492166 435.608032,84.3828125 C437.453745,84.8164084 438.836543,85.2792944 439.75647,85.7714844 C440.676396,86.2636743 441.359007,86.8554653 441.804321,87.546875 C442.249636,88.2382847 442.47229,89.076167 442.47229,90.0605469 C442.47229,91.6660237 441.824836,92.9492139 440.529907,93.9101562 C439.234979,94.8710986 437.544566,95.3515625 435.458618,95.3515625 C433.243763,95.3515625 431.447883,94.815435 430.070923,93.7431641 C428.693963,92.6708931 428.005493,91.3144613 428.005493,89.6738281 L430.114868,89.6738281 C430.1969,90.904303 430.715449,91.8623013 431.670532,92.5478516 C432.625615,93.2334019 433.888298,93.5761719 435.458618,93.5761719 C436.923469,93.5761719 438.107051,93.2539095 439.009399,92.609375 C439.911748,91.9648405 440.362915,91.1503955 440.362915,90.1660156 L440.362915,90.1660156 Z" id="Emergency-Physicians" sketch:type="MSShapeGroup"></path>
                <path d="M0.125757058,91.8250181 L7.81861447,91.8250181 L7.81861447,99.5178755 L0.125757058,99.5178755 L0.125757058,91.8250181 Z M10.3829003,91.8250181 L18.0757577,91.8250181 L18.0757577,99.5178755 L10.3829003,99.5178755 L10.3829003,91.8250181 Z M20.6400435,91.8250181 L28.3329009,91.8250181 L28.3329009,99.5178755 L20.6400435,99.5178755 L20.6400435,91.8250181 Z M30.8971867,91.8250181 L38.5900441,91.8250181 L38.5900441,99.5178755 L30.8971867,99.5178755 L30.8971867,91.8250181 Z M41.1543299,91.8250181 L48.8471873,91.8250181 L48.8471873,99.5178755 L41.1543299,99.5178755 L41.1543299,91.8250181 Z M51.4114731,91.8250181 L59.1043306,91.8250181 L59.1043306,99.5178755 L51.4114731,99.5178755 L51.4114731,91.8250181 Z M61.6686164,91.8250181 L69.3614738,91.8250181 L69.3614738,99.5178755 L61.6686164,99.5178755 L61.6686164,91.8250181 Z M71.9257596,91.8250181 L79.618617,91.8250181 L79.618617,99.5178755 L71.9257596,99.5178755 L71.9257596,91.8250181 Z M0.125757058,82.8500178 L7.81861447,82.8500178 L7.81861447,90.5428752 L0.125757058,90.5428752 L0.125757058,82.8500178 Z M10.3829003,82.8500178 L18.0757577,82.8500178 L18.0757577,90.5428752 L10.3829003,90.5428752 L10.3829003,82.8500178 Z M20.6400435,82.8500178 L28.3329009,82.8500178 L28.3329009,90.5428752 L20.6400435,90.5428752 L20.6400435,82.8500178 Z M30.8971867,82.8500178 L38.5900441,82.8500178 L38.5900441,90.5428752 L30.8971867,90.5428752 L30.8971867,82.8500178 Z M41.1543299,82.8500178 L48.8471873,82.8500178 L48.8471873,90.5428752 L41.1543299,90.5428752 L41.1543299,82.8500178 Z M51.4114731,82.8500178 L59.1043306,82.8500178 L59.1043306,90.5428752 L51.4114731,90.5428752 L51.4114731,82.8500178 Z M61.6686164,82.8500178 L69.3614738,82.8500178 L69.3614738,90.5428752 L61.6686164,90.5428752 L61.6686164,82.8500178 Z M71.9257596,82.8500178 L79.618617,82.8500178 L79.618617,90.5428752 L71.9257596,90.5428752 L71.9257596,82.8500178 Z M0.125757058,73.8750175 L7.81861447,73.8750175 L7.81861447,81.5678749 L0.125757058,81.5678749 L0.125757058,73.8750175 Z M10.3829003,73.8750175 L18.0757577,73.8750175 L18.0757577,81.5678749 L10.3829003,81.5678749 L10.3829003,73.8750175 Z M20.6400435,73.8750175 L28.3329009,73.8750175 L28.3329009,81.5678749 L20.6400435,81.5678749 L20.6400435,73.8750175 Z M30.8971867,73.8750175 L38.5900441,73.8750175 L38.5900441,81.5678749 L30.8971867,81.5678749 L30.8971867,73.8750175 Z M41.1543299,73.8750175 L48.8471873,73.8750175 L48.8471873,81.5678749 L41.1543299,81.5678749 L41.1543299,73.8750175 Z M51.4114731,73.8750175 L59.1043306,73.8750175 L59.1043306,81.5678749 L51.4114731,81.5678749 L51.4114731,73.8750175 Z M61.6686164,73.8750175 L69.3614738,73.8750175 L69.3614738,81.5678749 L61.6686164,81.5678749 L61.6686164,73.8750175 Z M71.9257596,73.8750175 L79.618617,73.8750175 L79.618617,81.5678749 L71.9257596,81.5678749 L71.9257596,73.8750175 Z M0.125757058,64.9000172 L7.81861447,64.9000172 L7.81861447,72.5928746 L0.125757058,72.5928746 L0.125757058,64.9000172 Z M10.3829003,64.9000172 L18.0757577,64.9000172 L18.0757577,72.5928746 L10.3829003,72.5928746 L10.3829003,64.9000172 Z M20.6400435,64.9000172 L28.3329009,64.9000172 L28.3329009,72.5928746 L20.6400435,72.5928746 L20.6400435,64.9000172 Z M30.8971867,64.9000172 L38.5900441,64.9000172 L38.5900441,72.5928746 L30.8971867,72.5928746 L30.8971867,64.9000172 Z M41.1543299,64.9000172 L48.8471873,64.9000172 L48.8471873,72.5928746 L41.1543299,72.5928746 L41.1543299,64.9000172 Z M51.4114731,64.9000172 L59.1043306,64.9000172 L59.1043306,72.5928746 L51.4114731,72.5928746 L51.4114731,64.9000172 Z M61.6686164,64.9000172 L69.3614738,64.9000172 L69.3614738,72.5928746 L61.6686164,72.5928746 L61.6686164,64.9000172 Z M71.9257596,64.9000172 L79.618617,64.9000172 L79.618617,72.5928746 L71.9257596,72.5928746 L71.9257596,64.9000172 Z M0.125757058,55.9250168 L7.81861447,55.9250168 L7.81861447,63.6178743 L0.125757058,63.6178743 L0.125757058,55.9250168 Z M10.3829003,55.9250168 L18.0757577,55.9250168 L18.0757577,63.6178743 L10.3829003,63.6178743 L10.3829003,55.9250168 Z M20.6400435,55.9250168 L28.3329009,55.9250168 L28.3329009,63.6178743 L20.6400435,63.6178743 L20.6400435,55.9250168 Z M30.8971867,55.9250168 L38.5900441,55.9250168 L38.5900441,63.6178743 L30.8971867,63.6178743 L30.8971867,55.9250168 Z M41.1543299,55.9250168 L48.8471873,55.9250168 L48.8471873,63.6178743 L41.1543299,63.6178743 L41.1543299,55.9250168 Z M51.4114731,55.9250168 L59.1043306,55.9250168 L59.1043306,63.6178743 L51.4114731,63.6178743 L51.4114731,55.9250168 Z M61.6686164,55.9250168 L69.3614738,55.9250168 L69.3614738,63.6178743 L61.6686164,63.6178743 L61.6686164,55.9250168 Z M71.9257596,55.9250168 L79.618617,55.9250168 L79.618617,63.6178743 L71.9257596,63.6178743 L71.9257596,55.9250168 Z M51.2857161,47.0782307 L58.9785735,47.0782307 L58.9785735,54.7710881 L51.2857161,54.7710881 L51.2857161,47.0782307 Z M61.5428593,47.0782307 L69.2357167,47.0782307 L69.2357167,54.7710881 L61.5428593,54.7710881 L61.5428593,47.0782307 Z M71.8000025,47.0782307 L79.4928599,47.0782307 L79.4928599,54.7710881 L71.8000025,54.7710881 L71.8000025,47.0782307 Z M0,47.0782307 L7.69285741,47.0782307 L7.69285741,54.7710881 L0,54.7710881 L0,47.0782307 Z M10.2571432,47.0782307 L17.9500006,47.0782307 L17.9500006,54.7710881 L10.2571432,54.7710881 L10.2571432,47.0782307 Z M20.5142864,47.0782307 L28.2071438,47.0782307 L28.2071438,54.7710881 L20.5142864,54.7710881 L20.5142864,47.0782307 Z M30.7714297,47.0782307 L38.4642871,47.0782307 L38.4642871,54.7710881 L30.7714297,54.7710881 L30.7714297,47.0782307 Z M0,37.9750083 L7.69285741,37.9750083 L7.69285741,45.6678657 L0,45.6678657 L0,37.9750083 Z M10.2571432,37.9750083 L17.9500006,37.9750083 L17.9500006,45.6678657 L10.2571432,45.6678657 L10.2571432,37.9750083 Z M20.5142864,37.9750083 L28.2071438,37.9750083 L28.2071438,45.6678657 L20.5142864,45.6678657 L20.5142864,37.9750083 Z M30.7714297,37.9750083 L38.4642871,37.9750083 L38.4642871,45.6678657 L30.7714297,45.6678657 L30.7714297,37.9750083 Z M41.0285729,37.9750083 L48.7214303,37.9750083 L48.7214303,45.6678657 L41.0285729,45.6678657 L41.0285729,37.9750083 Z M51.2857161,37.9750083 L58.9785735,37.9750083 L58.9785735,45.6678657 L51.2857161,45.6678657 L51.2857161,37.9750083 Z M61.5428593,37.9750083 L69.2357167,37.9750083 L69.2357167,45.6678657 L61.5428593,45.6678657 L61.5428593,37.9750083 Z M71.8000025,37.9750083 L79.4928599,37.9750083 L79.4928599,45.6678657 L71.8000025,45.6678657 L71.8000025,37.9750083 Z M0,29 L7.69285741,29 L7.69285741,36.6928574 L0,36.6928574 L0,29 Z M10.2571432,29 L17.9500006,29 L17.9500006,36.6928574 L10.2571432,36.6928574 L10.2571432,29 Z M20.5142864,29 L28.2071438,29 L28.2071438,36.6928574 L20.5142864,36.6928574 L20.5142864,29 Z M30.7714297,29 L38.4642871,29 L38.4642871,36.6928574 L30.7714297,36.6928574 L30.7714297,29 Z M41.0285729,29 L48.7214303,29 L48.7214303,36.6928574 L41.0285729,36.6928574 L41.0285729,29 Z M51.2857161,29 L58.9785735,29 L58.9785735,36.6928574 L51.2857161,36.6928574 L51.2857161,29 Z M61.5428593,29 L69.2357167,29 L69.2357167,36.6928574 L61.5428593,36.6928574 L61.5428593,29 Z M71.8000025,29 L79.4928599,29 L79.4928599,36.6928574 L71.8000025,36.6928574 L71.8000025,29 Z" id="squares" sketch:type="MSShapeGroup"></path>
                <path d="M315,119.234521 L446.687833,119.234521 L451.021515,132.160488 L472.997559,86 L480.813432,123.68211 L484.65987,115.558766 L527.435659,115.558766 L527.435659,119.234521 L486.640018,119.234521 L482.560136,127.74166 L478.826923,127.74166 L471.967963,94.6650472 L452.452082,138.916504 L449.360047,138.916504 L444.121845,123.096988 L315,123.096988 L315,119.234521 Z" id="Rectangle-15" sketch:type="MSShapeGroup"></path>
            </g>
        </g>
    </g>
</svg>